<svg width="19" height="20" viewBox="0 0 19 20" fill="none" xmlns="http://www.w3.org/2000/svg"><path d="M4.70931 10.0429C4.70644 7.36756 4.14614 4.67629 3.08589 2.26815L3.00544 1.93094L2.99395 1.79733C2.99395 1.37106 3.19508 0.973411 3.51976 0.760273C3.85594 0.537591 4.2697 0.537591 4.60587 0.760273L16.9669 8.97087C17.2915 9.18719 17.4927 9.58483 17.4927 10.0079C17.4927 10.4342 17.2915 10.8319 16.9669 11.045L4.603 19.2588C4.43922 19.3669 4.24958 19.4242 4.05994 19.4242C3.86743 19.4242 3.68067 19.3669 3.51689 19.2588C3.19221 19.0424 2.99107 18.6448 2.99107 18.2217V18.069L3.05141 17.9322C4.13752 15.4923 4.71219 12.7628 4.70931 10.0429Z" fill="black"/></svg>