<svg width="60" height="60" viewBox="0 0 60 60" fill="none" xmlns="http://www.w3.org/2000/svg">
<path d="M30 0C13.4 0 0 13.4 0 30C0 46.6 13.4 60 30 60C46.6 60 60 46.6 60 30C60 13.4 46.5 0 30 0ZM6.1 30.8C6.1 31.6 5.5 32.2 4.7 32.2C3.9 32.2 3.3 31.6 3.3 30.8C3.3 30.2 3.4 16.8 15.6 7.6C15.8 7.4 16.1 7.3 16.4 7.3C16.9 7.3 17.2 7.5 17.5 7.9C18 8.5 17.9 9.4 17.2 9.9C6.2 18.1 6.1 30.7 6.1 30.8ZM30 46.8C20.7 46.8 13.2 39.3 13.2 30C13.2 20.7 20.7 13.2 30 13.2C39.3 13.2 46.8 20.7 46.8 30C46.8 39.3 39.2 46.8 30 46.8ZM51.4 45.5C51.2 45.5 50.9 45.4 50.7 45.3C50.2 44.9 50.2 44.3 50.6 43.8C55.6 38.1 55.6 29.2 55.6 29.1C55.6 28.5 56.1 28 56.6 28C57.1 28 57.6 28.5 57.6 29.1C57.6 29.5 57.6 38.9 52.1 45.2C52 45.5 51.7 45.5 51.4 45.5ZM29.1 23.4L22.5 38.6H19L25.6 24.3H17.1V21.6H29.1V23.4ZM42.9 23.4L36.3 38.6H32.7L39.3 24.3H30.8V21.6H42.8L42.9 23.4Z" fill="url(#paint0_linear)"/>
<defs>
<linearGradient id="paint0_linear" x1="30" y1="-3.5849e-07" x2="41.9696" y2="57.5087" gradientUnits="userSpaceOnUse">
<stop stop-color="#06AC06"/>
<stop offset="1" stop-color="#005085"/>
</linearGradient>
</defs>
</svg>
