<svg width="60" height="60" viewBox="0 0 60 60" fill="none" xmlns="http://www.w3.org/2000/svg">
<path d="M30 0C13.458 0 0 13.458 0 30C0 46.542 13.458 60 29.9997 60C46.5417 60 59.9997 46.542 59.9997 30C59.9997 13.458 46.542 0 30 0ZM27.587 2.3357H32.2408V6.9895H27.587V2.3357ZM50.9514 30C50.9514 41.5528 41.5526 50.9515 30 50.9515C18.4474 50.9515 9.04881 41.5526 9.04881 30C9.04881 18.4474 18.4477 9.04856 30 9.04856C41.5526 9.04856 50.9514 18.4474 50.9514 30ZM12.0839 8.79311L15.3746 12.0839L12.0839 15.3746L8.79311 12.0839L12.0839 8.79311ZM6.90341 32.3269H2.2496V27.6731H6.90341V32.3269ZM12.0839 51.2071L8.79311 47.9164L12.0839 44.6256L15.3746 47.9164L12.0839 51.2071ZM32.2408 57.6643H27.587V53.0105H32.2408V57.6643ZM47.9161 51.2071L44.6254 47.9164L47.9161 44.6256L51.2069 47.9164L47.9161 51.2071ZM47.9161 15.3746L44.6254 12.0839L47.9161 8.79311L51.2069 12.0839L47.9161 15.3746ZM52.9244 32.3269V27.6731H57.5782V32.3269H52.9244Z" fill="url(#paint0_linear)"/>
<path d="M12.927 30C12.927 39.4142 20.5859 47.0733 30 47.0733C39.4142 47.0733 47.0733 39.4142 47.0733 30C47.0733 20.5859 39.4142 12.9268 30 12.9268C20.5859 12.9268 12.927 20.5859 12.927 30ZM38.1638 28.5527C38.9692 29.8625 39.2288 31.0275 39.2288 32.4115C39.2288 35.832 36.815 37.6711 34.0708 37.6711C32.1989 37.6711 31.133 36.7866 30.5515 36.0508L31.5438 39.5662H28.4247L29.395 36.1314C28.7955 36.845 27.7458 37.7398 25.9422 37.7398C23.198 37.7398 20.771 35.8667 20.771 32.4459C20.771 31.0616 21.0241 29.8622 21.8292 28.5524C23.0847 26.5097 30.0181 20.6298 30.0181 20.6298C30.0181 20.6298 36.9083 26.5099 38.1638 28.5527Z" fill="url(#paint1_linear)"/>
<defs>
<linearGradient id="paint0_linear" x1="29.9999" y1="-3.5849e-07" x2="41.9695" y2="57.5087" gradientUnits="userSpaceOnUse">
<stop stop-color="#06AC06"/>
<stop offset="1" stop-color="#005085"/>
</linearGradient>
<linearGradient id="paint1_linear" x1="30.0002" y1="12.9268" x2="36.8122" y2="45.6555" gradientUnits="userSpaceOnUse">
<stop stop-color="#06AC06"/>
<stop offset="1" stop-color="#005085"/>
</linearGradient>
</defs>
</svg>
