<svg width="60" height="60" viewBox="0 0 60 60" fill="none" xmlns="http://www.w3.org/2000/svg">
<path d="M38.3141 27.5243C40.0376 26.6188 42.5658 25.1506 44.8888 23.2685C49.8159 19.2766 51.5693 15.3752 50.1005 11.6726C49.4533 10.041 48.4653 8.96285 47.0801 8.37668C44.8213 7.42066 42.0559 7.98691 40.5927 8.41547C40.278 12.2414 38.7396 19.2445 36.5046 24.2679C37.3257 25.1984 37.9505 26.3052 38.3141 27.5243Z" fill="url(#paint0_linear_6_2)"/>
<path d="M23.4954 24.2678C21.2603 19.2444 19.7219 12.2409 19.4073 8.415C17.9458 7.98703 15.1796 7.4202 12.9201 8.37656C11.535 8.96285 10.5469 10.041 9.89974 11.6726C8.42588 15.388 10.1954 19.3024 15.1594 23.3073C17.4767 25.1769 19.977 26.6283 21.6855 27.5252C22.0492 26.3058 22.6741 25.1986 23.4954 24.2678Z" fill="url(#paint1_linear_6_2)"/>
<path d="M26.3925 22.1127C27.4919 21.6079 28.713 21.324 30 21.324C31.2869 21.324 32.508 21.6079 33.6075 22.1127C35.8158 16.8124 37.1371 9.69738 37.1371 7.13707C37.1369 3.20168 33.9354 0 30 0C26.0646 0 22.863 3.20168 22.863 7.13695C22.863 9.69727 24.1842 16.8124 26.3925 22.1127Z" fill="url(#paint2_linear_6_2)"/>
<path d="M20.7038 43.9928C18.3308 41.888 14.414 41.2901 9.04889 42.2109C9.27905 44.148 10.0576 47.6057 12.6879 49.4534C15.0893 51.1403 18.6378 51.2182 23.2463 49.6889C23.1529 48.2747 22.6912 45.7557 20.7038 43.9928Z" fill="url(#paint3_linear_6_2)"/>
<path d="M30 38.676C25.9068 38.676 22.4688 35.8257 21.5607 32.0062C11.4979 32.6079 3.70781 34.2173 0 35.2582V42.3183C0 52.0679 7.93207 60 17.6817 60H19.2585C20.8417 60 22.4271 59.6257 23.8431 58.9177C27.6983 56.9903 32.3016 56.99 36.1569 58.9177C37.5729 59.6257 39.1583 60 40.7415 60H42.3183C52.0679 60 60 52.0679 60 42.3183V35.2582C56.2934 34.2176 48.503 32.6079 38.4393 32.0064C37.5312 35.8257 34.0934 38.676 30 38.676ZM26.7524 51.1058L26.6442 52.1945L25.6196 52.5782C22.5669 53.7213 19.8144 54.2929 17.379 54.2929C14.7628 54.2929 12.5123 53.6337 10.6459 52.3153C5.36238 48.5835 5.43176 41.0655 5.43738 40.7474L5.46176 39.349L6.8298 39.0585C14.1424 37.5056 19.6075 38.2918 23.0733 41.3952C27.2897 45.171 26.7763 50.8652 26.7524 51.1058ZM54.5384 39.349L54.5627 40.7474C54.5682 41.0655 54.6377 48.5835 49.3542 52.3153C47.4881 53.6334 45.237 54.2929 42.6211 54.2929C40.1854 54.2929 37.4336 53.7214 34.3805 52.5782L33.3559 52.1945L33.2477 51.1058C33.2238 50.8652 32.7105 45.1711 36.927 41.3953C40.3928 38.292 45.8579 37.5057 53.1704 39.0586L54.5384 39.349Z" fill="url(#paint4_linear_6_2)"/>
<path d="M36.7463 49.6864C41.3677 51.2216 44.923 51.141 47.3258 49.4438C48.8766 48.3484 49.9746 46.5768 50.5889 44.1783C50.7763 43.4467 50.8871 42.7663 50.9527 42.2113C45.5679 41.287 41.6424 41.8917 39.272 44.0143C37.2832 45.7954 36.832 48.2838 36.7463 49.6864Z" fill="url(#paint5_linear_6_2)"/>
<path d="M30 35.1603C32.85 35.1603 35.1604 32.85 35.1604 30C35.1604 27.15 32.85 24.8396 30 24.8396C27.15 24.8396 24.8397 27.15 24.8397 30C24.8397 32.85 27.15 35.1603 30 35.1603Z" fill="url(#paint6_linear_6_2)"/>
<defs>
<linearGradient id="paint0_linear_6_2" x1="43.5539" y1="7.8539" x2="48.8218" y2="25.9946" gradientUnits="userSpaceOnUse">
<stop stop-color="#06AC06"/>
<stop offset="1" stop-color="#005085"/>
</linearGradient>
<linearGradient id="paint1_linear_6_2" x1="16.4461" y1="7.85368" x2="21.7146" y2="25.9952" gradientUnits="userSpaceOnUse">
<stop stop-color="#06AC06"/>
<stop offset="1" stop-color="#005085"/>
</linearGradient>
<linearGradient id="paint2_linear_6_2" x1="30.0001" y1="-1.3212e-07" x2="36.4585" y2="20.0303" gradientUnits="userSpaceOnUse">
<stop stop-color="#06AC06"/>
<stop offset="1" stop-color="#005085"/>
</linearGradient>
<linearGradient id="paint3_linear_6_2" x1="16.1476" y1="41.7919" x2="17.3117" y2="50.6267" gradientUnits="userSpaceOnUse">
<stop stop-color="#06AC06"/>
<stop offset="1" stop-color="#005085"/>
</linearGradient>
<linearGradient id="paint4_linear_6_2" x1="30" y1="32.0062" x2="32.693" y2="59.7385" gradientUnits="userSpaceOnUse">
<stop stop-color="#06AC06"/>
<stop offset="1" stop-color="#005085"/>
</linearGradient>
<linearGradient id="paint5_linear_6_2" x1="43.8495" y1="41.7919" x2="45.013" y2="50.6271" gradientUnits="userSpaceOnUse">
<stop stop-color="#06AC06"/>
<stop offset="1" stop-color="#005085"/>
</linearGradient>
<linearGradient id="paint6_linear_6_2" x1="30" y1="24.8396" x2="32.0589" y2="34.7318" gradientUnits="userSpaceOnUse">
<stop stop-color="#06AC06"/>
<stop offset="1" stop-color="#005085"/>
</linearGradient>
</defs>
</svg>
