<svg width="49" height="60" viewBox="0 0 49 60" fill="none" xmlns="http://www.w3.org/2000/svg">
<path d="M1.75781 48.4533C1.14166 48.4533 0.550232 48.3458 0 48.1508V58.2422C0 59.2131 0.786896 60 1.75781 60H46.9455C47.916 60 48.7033 59.2131 48.7033 58.2422V48.1508C48.1531 48.3458 47.5616 48.4533 46.9455 48.4533H1.75781ZM41.2967 55.9845H35.6483C34.6774 55.9845 33.8905 55.1971 33.8905 54.2267C33.8905 53.2557 34.6774 52.4688 35.6483 52.4688H41.2967C42.2676 52.4688 43.0545 53.2557 43.0545 54.2267C43.0545 55.1971 42.2676 55.9845 41.2967 55.9845Z" fill="url(#paint0_linear)"/>
<path d="M46.9455 37.1567H1.75781C0.786896 37.1567 0 37.9436 0 38.9145V43.1799C0 44.1504 0.786896 44.9377 1.75781 44.9377H46.9455C47.916 44.9377 48.7033 44.1504 48.7033 43.1799V38.9145C48.7033 37.9436 47.916 37.1567 46.9455 37.1567Z" fill="url(#paint1_linear)"/>
<path d="M42.2383 0H6.465C2.88849 0 0 2.89444 0 6.465V8.03101H48.7033V6.465C48.7033 2.88895 45.8089 0 42.2383 0Z" fill="url(#paint2_linear)"/>
<path d="M13.8904 33.6411V11.5466H0V33.9436C0.549774 33.7477 1.1412 33.6411 1.75781 33.6411H13.8904ZM4.98184 17.986H8.90854C9.46426 17.986 9.97192 18.3 10.22 18.7967C10.4686 19.2934 10.415 19.888 10.0818 20.3325L9.61075 20.9605C8.58444 22.3288 8.0191 24.0244 8.0191 25.735C8.0191 26.5448 7.36267 27.2012 6.55243 27.2012C5.74265 27.2012 5.08621 26.5448 5.08621 25.735C5.08621 24.0678 5.47852 22.4107 6.21185 20.9189H4.98184C4.17206 20.9189 3.51562 20.262 3.51562 19.4522C3.51562 18.6424 4.17206 17.986 4.98184 17.986Z" fill="url(#paint3_linear)"/>
<path d="M17.406 11.5466V33.6411H31.2973V11.5466H17.406ZM27.4878 20.3325L27.0168 20.9605C25.9904 22.3288 25.4251 24.0244 25.4251 25.735C25.4251 26.5448 24.7687 27.2012 23.9589 27.2012C23.1491 27.2012 22.4927 26.5448 22.4927 25.735C22.4927 24.0678 22.885 22.4112 23.6179 20.9189H22.3883C21.5785 20.9189 20.9216 20.2625 20.9216 19.4527C20.9216 18.6429 21.5785 17.986 22.3883 17.986H26.315C26.8703 17.986 27.3779 18.3 27.6265 18.7967C27.8746 19.2934 27.821 19.888 27.4878 20.3325Z" fill="url(#paint4_linear)"/>
<path d="M48.7034 11.5466H34.813V33.6411H46.9456C47.5617 33.6411 48.1536 33.7477 48.7034 33.9436V11.5466ZM44.8943 16.8256L44.4233 17.4536C43.397 18.8223 42.8316 20.5179 42.8316 22.2281C42.8316 23.0383 42.1752 23.6948 41.3654 23.6948C40.5552 23.6948 39.8987 23.0383 39.8987 22.2281C39.8987 20.5609 40.291 18.9043 41.0244 17.412H39.7944C38.9846 17.412 38.3282 16.7555 38.3282 15.9457C38.3282 15.136 38.9846 14.4795 39.7944 14.4795H43.7211C44.2768 14.4795 44.7845 14.7931 45.0326 15.2898C45.2811 15.7869 45.2276 16.3811 44.8943 16.8256Z" fill="url(#paint5_linear)"/>
<defs>
<linearGradient id="paint0_linear" x1="24.3517" y1="48.1508" x2="24.9501" y2="59.9697" gradientUnits="userSpaceOnUse">
<stop stop-color="#06AC06"/>
<stop offset="1" stop-color="#005085"/>
</linearGradient>
<linearGradient id="paint1_linear" x1="24.3517" y1="37.1567" x2="24.6101" y2="44.9291" gradientUnits="userSpaceOnUse">
<stop stop-color="#06AC06"/>
<stop offset="1" stop-color="#005085"/>
</linearGradient>
<linearGradient id="paint2_linear" x1="24.3517" y1="-4.79839e-08" x2="24.627" y2="8.02156" gradientUnits="userSpaceOnUse">
<stop stop-color="#06AC06"/>
<stop offset="1" stop-color="#005085"/>
</linearGradient>
<linearGradient id="paint3_linear" x1="6.94519" y1="11.5466" x2="13.7008" y2="31.6765" gradientUnits="userSpaceOnUse">
<stop stop-color="#06AC06"/>
<stop offset="1" stop-color="#005085"/>
</linearGradient>
<linearGradient id="paint4_linear" x1="24.3517" y1="11.5466" x2="30.9435" y2="31.4589" gradientUnits="userSpaceOnUse">
<stop stop-color="#06AC06"/>
<stop offset="1" stop-color="#005085"/>
</linearGradient>
<linearGradient id="paint5_linear" x1="41.7582" y1="11.5466" x2="48.5137" y2="31.6765" gradientUnits="userSpaceOnUse">
<stop stop-color="#06AC06"/>
<stop offset="1" stop-color="#005085"/>
</linearGradient>
</defs>
</svg>
