<svg xmlns="http://www.w3.org/2000/svg" width="25" height="25" viewBox="0 0 25 25" fill="none"><path fill-rule="evenodd" clip-rule="evenodd" d="M7.17603 4.53202C8.752 3.47899 10.6048 2.91694 12.5002 2.91694C15.041 2.91981 17.4769 3.9304 19.2735 5.727C21.0701 7.5236 22.0807 9.95949 22.0836 12.5003C22.0836 14.3957 21.5215 16.2485 20.4685 17.8245C19.4155 19.4005 17.9188 20.6288 16.1676 21.3541C14.4165 22.0795 12.4896 22.2692 10.6306 21.8995C8.77164 21.5297 7.06405 20.617 5.7238 19.2767C4.38355 17.9365 3.47082 16.2289 3.10105 14.3699C2.73127 12.5109 2.92106 10.584 3.6464 8.83289C4.37174 7.08176 5.60006 5.58505 7.17603 4.53202ZM16.8535 11.3101L12.7063 15.9615C12.388 16.3184 11.8262 16.3111 11.5175 15.9449L9.18511 13.177C8.90516 12.8448 8.94754 12.3485 9.27975 12.0685C9.61196 11.7886 10.1082 11.8309 10.3882 12.1632L12.1359 14.2371L15.6793 10.2631C15.9684 9.93871 16.4656 9.91025 16.7899 10.1994C17.1141 10.4886 17.1427 10.9858 16.8535 11.3101Z" fill="#B8B8B8"/><path fill-rule="evenodd" clip-rule="evenodd" d="M23.0508 8.1303C23.1919 8.47096 23.4366 8.75857 23.7502 8.95236C23.9553 9.07915 24.1321 9.24684 24.2695 9.44497C24.407 9.6431 24.5021 9.86741 24.549 10.1039C24.5959 10.3404 24.5936 10.5841 24.5422 10.8197C24.4908 11.0552 24.3914 11.2777 24.2502 11.4732C24.0345 11.7722 23.9184 12.1316 23.9184 12.5003C23.9184 12.869 24.0345 13.2283 24.2502 13.5274C24.3914 13.7228 24.4908 13.9453 24.5422 14.1809C24.5936 14.4165 24.5959 14.6601 24.549 14.8966C24.5021 15.1331 24.407 15.3574 24.2695 15.5556C24.1321 15.7537 23.9553 15.9214 23.7502 16.0482C23.4364 16.2419 23.1916 16.5296 23.0504 16.8703C22.9093 17.2111 22.8791 17.5876 22.964 17.9465C23.0195 18.1812 23.0261 18.4248 22.9833 18.6621C22.9405 18.8995 22.8493 19.1254 22.7153 19.326C22.5814 19.5265 22.4075 19.6972 22.2046 19.8276C22.0017 19.9579 21.7741 20.0451 21.5361 20.0836C21.1721 20.1426 20.836 20.3146 20.5753 20.5753C20.3146 20.836 20.1425 21.1722 20.0836 21.5361C20.0451 21.7743 19.958 22.0019 19.8276 22.2049C19.6973 22.4079 19.5265 22.5818 19.3259 22.7158C19.1253 22.8498 18.8993 22.9411 18.6619 22.9839C18.4245 23.0266 18.1808 23.02 17.9461 22.9644C17.5873 22.8796 17.2109 22.9098 16.8702 23.0509C16.5296 23.1919 16.2419 23.4366 16.0482 23.7503C15.9214 23.9554 15.7537 24.1321 15.5555 24.2696C15.3574 24.407 15.1331 24.5021 14.8966 24.549C14.6601 24.5959 14.4164 24.5936 14.1808 24.5422C13.9453 24.4908 13.7228 24.3914 13.5273 24.2503C13.2283 24.0345 12.869 23.9184 12.5002 23.9184C12.1315 23.9184 11.7722 24.0345 11.4732 24.2503C11.2777 24.3914 11.0552 24.4908 10.8196 24.5422C10.5841 24.5936 10.3404 24.5959 10.1039 24.549C9.86738 24.5021 9.64307 24.407 9.44494 24.2696C9.24681 24.1321 9.07912 23.9554 8.95232 23.7503C8.75857 23.4365 8.47092 23.1916 8.13017 23.0505C7.78943 22.9093 7.4129 22.8791 7.05399 22.964C6.81931 23.0196 6.57571 23.0261 6.33838 22.9833C6.10105 22.9406 5.87507 22.8493 5.67456 22.7154C5.47404 22.5814 5.30328 22.4075 5.17292 22.2046C5.04257 22.0017 4.95542 21.7742 4.91691 21.5361C4.85796 21.1722 4.68593 20.836 4.42523 20.5753C4.16452 20.3146 3.82836 20.1426 3.46441 20.0836C3.2263 20.0451 2.99868 19.9579 2.79576 19.8276C2.59283 19.6972 2.41895 19.5264 2.28497 19.3258C2.15099 19.1252 2.05977 18.8992 2.01702 18.6618C1.97427 18.4245 1.9809 18.1808 2.03649 17.9461C2.12132 17.5873 2.09102 17.2108 1.9499 16.8702C1.80877 16.5295 1.56398 16.2419 1.25024 16.0482C1.04515 15.9214 0.868381 15.7537 0.730955 15.5556C0.593529 15.3574 0.498394 15.1331 0.451482 14.8966C0.40457 14.6601 0.406887 14.4165 0.458288 14.1809C0.509689 13.9453 0.609073 13.7228 0.750241 13.5274C0.965974 13.2283 1.08208 12.869 1.08208 12.5003C1.08208 12.1316 0.965974 11.7722 0.750241 11.4732C0.609073 11.2777 0.509689 11.0552 0.458288 10.8197C0.406887 10.5841 0.40457 10.3404 0.451482 10.1039C0.498394 9.86741 0.593529 9.6431 0.730955 9.44497C0.868381 9.24684 1.04515 9.07915 1.25024 8.95236C1.56398 8.75863 1.80877 8.47104 1.9499 8.13038C2.09102 7.78972 2.12132 7.41328 2.03649 7.05444C1.9809 6.81973 1.97427 6.57609 2.01702 6.33871C2.05977 6.10132 2.15099 5.8753 2.28497 5.67473C2.41895 5.47417 2.59283 5.30337 2.79576 5.17299C2.99868 5.04261 3.2263 4.95544 3.46441 4.91694C3.82836 4.85799 4.16452 4.68596 4.42523 4.42526C4.68593 4.16455 4.85796 3.82839 4.91691 3.46444C4.95541 3.22633 5.04258 2.99871 5.17296 2.79579C5.30334 2.59286 5.47414 2.41898 5.6747 2.285C5.87527 2.15102 6.10129 2.0598 6.33867 2.01705C6.57606 1.9743 6.8197 1.98093 7.05441 2.03652C7.41325 2.12135 7.78969 2.09106 8.13035 1.94993C8.47101 1.80881 8.7586 1.56401 8.95232 1.25027C9.07912 1.04518 9.24681 0.868411 9.44494 0.730985C9.64307 0.59356 9.86738 0.498425 10.1039 0.451513C10.3404 0.404601 10.5841 0.406917 10.8196 0.458319C11.0552 0.50972 11.2777 0.609103 11.4732 0.750272C11.7722 0.966004 12.1315 1.08211 12.5002 1.08211C12.869 1.08211 13.2283 0.966004 13.5273 0.750272C13.7228 0.609103 13.9453 0.50972 14.1808 0.458319C14.4164 0.406917 14.6601 0.404601 14.8966 0.451513C15.1331 0.498425 15.3574 0.59356 15.5555 0.730985C15.7537 0.868411 15.9214 1.04518 16.0482 1.25027C16.2419 1.56401 16.5295 1.80881 16.8701 1.94993C17.2108 2.09106 17.5872 2.12135 17.9461 2.03652C18.1808 1.98093 18.4244 1.9743 18.6618 2.01705C18.8992 2.0598 19.1252 2.15102 19.3258 2.285C19.5263 2.41898 19.6971 2.59286 19.8275 2.79579C19.9579 2.99871 20.0451 3.22633 20.0836 3.46444C20.1425 3.82839 20.3146 4.16455 20.5753 4.42526C20.836 4.68596 21.1721 4.85799 21.5361 4.91694C21.7742 4.95539 22.0019 5.04252 22.2049 5.17288C22.4078 5.30324 22.5818 5.47403 22.7158 5.6746C22.8498 5.87517 22.9411 6.10121 22.9838 6.33862C23.0266 6.57603 23.02 6.8197 22.9644 7.05444C22.8795 7.41324 22.9098 7.78965 23.0508 8.1303ZM6.71305 21.1614C8.42606 22.306 10.44 22.9169 12.5002 22.9169C15.262 22.9139 17.9097 21.8154 19.8625 19.8626C21.8154 17.9097 22.9138 15.262 22.9169 12.5003C22.9169 10.4401 22.306 8.42609 21.1614 6.71308C20.0168 5.00007 18.3899 3.66494 16.4865 2.87653C14.5831 2.08811 12.4887 1.88183 10.4681 2.28376C8.44741 2.68569 6.59134 3.67778 5.13455 5.13458C3.67775 6.59137 2.68566 8.44744 2.28373 10.4681C1.8818 12.4887 2.08808 14.5832 2.8765 16.4866C3.66491 18.39 5.00004 20.0168 6.71305 21.1614Z" fill="#B8B8B8"/></svg>