<svg width="60" height="60" viewBox="0 0 60 60" fill="none" xmlns="http://www.w3.org/2000/svg">
<path fill-rule="evenodd" clip-rule="evenodd" d="M57.8303 0.210017L57.3053 0H55.3101C55.1417 0.0385444 54.9715 0.0685816 54.8001 0.0900033C53.8562 0.219361 52.917 0.336478 51.9779 0.453571C49.9767 0.703112 47.9763 0.952544 45.9342 1.32012C44.4526 1.58218 42.9912 1.98647 41.5092 2.39646C40.7855 2.59667 40.0569 2.79824 39.3186 2.98527C40.9018 6.9735 43.2852 10.5951 46.322 13.6267C49.3587 16.6583 52.9843 19.0355 56.9753 20.6119C58.8682 15.0012 59.8803 9.13098 59.9755 3.21029C59.9676 2.55086 59.7577 1.90973 59.3741 1.37327C58.9906 0.83681 58.4518 0.430818 57.8303 0.210017ZM0.189767 33.005C0.129936 33.1499 0.070417 33.294 0.0149931 33.4381L0 34.2332C0.450042 34.8632 0.930086 35.5233 1.50014 36.1083C1.67481 36.3412 1.90129 36.5302 2.16167 36.6604C2.42205 36.7906 2.70915 36.8584 3.00027 36.8584C3.29138 36.8584 3.5785 36.7906 3.83887 36.6604C4.09925 36.5302 4.32574 36.3412 4.5004 36.1083C5.20547 35.2983 5.95554 34.4732 6.70561 33.6931C6.8961 33.5082 7.14585 33.3966 7.41068 33.3781C8.29576 33.2731 9.19584 33.2731 10.0959 33.2731C10.1571 33.2815 10.2193 33.2776 10.2789 33.2618C10.3386 33.2459 10.3945 33.2183 10.4433 33.1806C10.4922 33.1429 10.5331 33.0958 10.5636 33.0422C10.5941 32.9885 10.6136 32.9293 10.621 32.868C11.593 29.2497 13.0783 25.7893 15.0314 22.5921C15.0902 22.4941 15.1362 22.3961 15.1861 22.2897C15.2126 22.2333 15.2402 22.1745 15.2714 22.112H14.9864H7.32067C6.31692 22.1026 5.3369 22.4172 4.52614 23.0091C3.71539 23.6009 3.11715 24.4385 2.82026 25.3973L0.480032 32.253C0.394901 32.5084 0.291879 32.7578 0.189767 33.005ZM38.2385 3.57032C39.8662 7.70495 42.3268 11.4606 45.4676 14.6039C48.6083 17.7472 52.3619 20.211 56.4952 21.842C56.3301 22.2181 56.1692 22.5899 56.01 22.958L56.01 22.958L56.01 22.958L56.0099 22.958C55.6483 23.794 55.295 24.6104 54.9201 25.4123C52.6112 30.1529 49.2995 34.3348 45.2142 37.6685C41.1942 41.2062 36.6754 44.1328 31.8029 46.3543C29.4719 47.4049 27.0171 48.1559 24.4973 48.5895L24.4753 48.5932C23.9442 48.6818 23.4737 48.7603 23.2221 48.0944C23.1109 47.8896 22.9575 47.7107 22.7721 47.5694L12.4061 37.2034C12.2649 37.018 12.0859 36.8646 11.8811 36.7534C11.2409 36.5003 11.3247 36.0256 11.414 35.5198L11.416 35.5083C12.2828 30.8949 14.0462 26.4964 16.6065 22.5621C19.3466 18.0734 22.6992 13.9887 26.5674 10.426C29.8927 7.44905 33.7578 5.13713 37.9535 3.61534L38.2385 3.57032ZM32.0429 21.962C32.0429 23.5535 32.6752 25.0797 33.8005 26.2051C34.9258 27.3304 36.4521 27.9626 38.0435 27.9626C39.6349 27.9626 41.1612 27.3304 42.2865 26.2051C43.4119 25.0797 44.0441 23.5535 44.0441 21.962C44.0441 20.3706 43.4119 18.8443 42.2865 17.719C41.1612 16.5937 39.6349 15.9615 38.0435 15.9615C37.2555 15.9615 36.4752 16.1167 35.7472 16.4182C35.0192 16.7198 34.3577 17.1618 33.8005 17.719C33.2433 18.2762 32.8013 18.9377 32.4997 19.6657C32.1982 20.3937 32.0429 21.174 32.0429 21.962ZM37.9235 48.5895V44.6141L37.5485 44.8541C34.2795 46.8451 30.7437 48.3604 27.0475 49.3546C26.9594 49.404 26.8839 49.473 26.8267 49.5562C26.7694 49.6394 26.7321 49.7347 26.7175 49.8346C26.6125 50.7047 26.6125 51.5598 26.6125 52.4148C26.6219 52.5871 26.5917 52.7592 26.5241 52.9178C26.4564 53.0765 26.3532 53.2175 26.2224 53.3299C25.3823 54.065 24.5573 54.8001 23.7472 55.5651C23.5521 55.7383 23.3959 55.9508 23.289 56.1887C23.182 56.4266 23.1267 56.6844 23.1267 56.9453C23.1267 57.2061 23.182 57.464 23.289 57.7019C23.3959 57.9398 23.5521 58.1523 23.7472 58.3254L24.8573 59.4355C25.0935 59.6876 25.3979 59.8658 25.7334 59.9483C26.0689 60.0308 26.4212 60.0143 26.7475 59.9005C27.5271 59.635 28.3067 59.3731 29.0857 59.1114L29.0873 59.1108C31.0807 58.4411 33.0697 57.7728 35.0432 57.0503C35.8443 56.7911 36.5481 56.2956 37.0622 55.6289C37.5763 54.9622 37.8765 54.1555 37.9235 53.3149V48.5895ZM10.0359 43.159C8.82643 43.9929 7.97495 45.2514 7.6507 46.6843C7.05065 48.6045 6.52561 50.5397 6.01556 52.4898C5.93219 52.6995 5.91207 52.929 5.95767 53.15C6.00327 53.371 6.1126 53.5738 6.27216 53.7334C6.43172 53.8929 6.63451 54.0023 6.85551 54.0479C7.0765 54.0935 7.30601 54.0734 7.5157 53.99C9.7509 53.3749 12.0161 52.7299 14.1913 52.0098C15.3168 51.6866 16.2803 50.9533 16.8916 49.9546C17.0148 50.0921 17.1366 50.2236 17.2554 50.3519C17.5127 50.6297 17.7562 50.8927 17.9717 51.1697C18.0269 51.2526 18.0636 51.3465 18.0791 51.4449C18.0947 51.5433 18.0887 51.6439 18.0617 51.7398C17.5563 53.4425 16.4111 54.8834 14.8664 55.7602C12.4566 57.0055 9.90195 57.9477 7.26068 58.5654C6.01068 58.9154 4.76069 59.2133 3.5107 59.5112L3.51043 59.5113C3.26037 59.5709 3.01032 59.6305 2.76026 59.6905C2.43019 59.8087 2.07326 59.8304 1.7313 59.7531C1.38933 59.6758 1.07647 59.5026 0.82935 59.2539C0.582227 59.0052 0.411071 58.6913 0.335926 58.3488C0.260781 58.0064 0.284745 57.6496 0.405032 57.3203C1.1501 53.6459 2.22454 50.046 3.61534 46.5643C3.98964 45.5301 4.58681 44.5908 5.36454 43.8131C6.14227 43.0354 7.08153 42.4382 8.11576 42.0639C8.2843 41.9719 8.48043 41.944 8.66794 41.9854C8.85544 42.0267 9.02165 42.1345 9.13585 42.2889C9.41629 42.5985 9.71697 42.8892 10.0359 43.159ZM11.341 37.9685C10.9919 37.7108 10.608 37.5037 10.2009 37.3535C9.85195 37.3897 9.51903 37.5187 9.23677 37.7271C8.9545 37.9355 8.73318 38.2157 8.59578 38.5386C8.45118 38.8651 8.41539 39.2295 8.49373 39.578C8.57206 39.9265 8.76036 40.2405 9.03083 40.4737L19.5318 50.9747C19.6828 51.1496 19.8682 51.2915 20.0764 51.3915C20.2847 51.4915 20.5114 51.5475 20.7423 51.556C20.9732 51.5644 21.2033 51.5251 21.4184 51.4406C21.6334 51.3561 21.8287 51.2281 21.992 51.0647C22.1591 50.9063 22.2921 50.7156 22.383 50.5041C22.4739 50.2926 22.5208 50.0648 22.5208 49.8346C22.5208 49.6044 22.4739 49.3766 22.383 49.1651C22.2921 48.9536 22.1591 48.7629 21.992 48.6045C18.4617 45.0542 14.9114 41.5088 11.341 37.9685Z" fill="url(#paint0_linear_649_674)"/>
<defs>
<linearGradient id="paint0_linear_649_674" x1="29.9878" y1="-3.5849e-07" x2="41.9618" y2="57.5068" gradientUnits="userSpaceOnUse">
<stop stop-color="#06AC06"/>
<stop offset="1" stop-color="#005085"/>
</linearGradient>
</defs>
</svg>
