<svg width="30" height="30" viewBox="0 0 30 30" fill="none" xmlns="http://www.w3.org/2000/svg"><g clip-path="url(#clip0)"><path d="M12.114 3.26136L5.01445 0.219074C3.64397 -0.368409 2.05677 0.266356 1.46934 1.63684C1.3255 1.97244 1.25121 2.33377 1.25098 2.6989V24.2563C1.25016 25.3364 1.894 26.3128 2.88711 26.7374L9.98664 29.781C11.3571 30.3685 12.9443 29.7337 13.5318 28.3632C13.6758 28.0272 13.7501 27.6655 13.7502 27.2999V5.74248C13.751 4.66237 13.1072 3.68603 12.114 3.26136Z" fill="#B8B8B8"/><path d="M10.625 17.4994C10.2798 17.4994 10 17.2195 10 16.8744V14.3745C10 14.0293 10.2798 13.7495 10.625 13.7495C10.9701 13.7495 11.25 14.0293 11.25 14.3745V16.8744C11.2499 17.2196 10.9701 17.4994 10.625 17.4994Z" fill="#232323"/><path d="M28.7017 13.3633C28.7983 13.1295 28.7445 12.8606 28.5654 12.682L24.8157 8.93228C24.5674 8.69247 24.1718 8.69938 23.932 8.94763C23.698 9.18984 23.698 9.57378 23.932 9.81599L26.6156 12.4996H15.625C15.2798 12.4996 15 12.7794 15 13.1246C15 13.4697 15.2798 13.7495 15.625 13.7495H26.6156L23.9332 16.4319C23.685 16.6717 23.6781 17.0673 23.9179 17.3156C24.1577 17.5638 24.5533 17.5707 24.8016 17.3309C24.8068 17.3259 24.8119 17.3208 24.817 17.3156L28.5667 13.5658C28.6245 13.5077 28.6704 13.439 28.7017 13.3633Z" fill="#FFBA00"/><path d="M10.625 17.4994C10.2798 17.4994 10 17.2195 10 16.8744V14.3745C10 14.0293 10.2798 13.7495 10.625 13.7495C10.9701 13.7495 11.25 14.0293 11.25 14.3745V16.8744C11.2499 17.2196 10.9701 17.4994 10.625 17.4994Z" fill="#232323"/><path d="M10.625 17.4994C10.2798 17.4994 10 17.2195 10 16.8744V14.3745C10 14.0293 10.2798 13.7495 10.625 13.7495C10.9701 13.7495 11.25 14.0293 11.25 14.3745V16.8744C11.2499 17.2196 10.9701 17.4994 10.625 17.4994Z" fill="#232323"/><path d="M28.1242 13.7495H15.625C15.2798 13.7495 15 13.4696 15 13.1245C15 12.7793 15.2798 12.4995 15.625 12.4995H28.1242C28.4693 12.4995 28.7492 12.7793 28.7492 13.1245C28.7492 13.4697 28.4693 13.7495 28.1242 13.7495Z" fill="#232323"/><path d="M24.3741 17.499C24.029 17.4997 23.7487 17.2203 23.748 16.8752C23.7478 16.7088 23.8138 16.5491 23.9317 16.4316L27.2402 13.1243L23.9317 9.81699C23.6919 9.56875 23.6988 9.17309 23.947 8.93328C24.1892 8.69932 24.5732 8.69932 24.8154 8.93328L28.5651 12.683C28.8091 12.9271 28.8091 13.3227 28.5651 13.5668L24.8154 17.3165C24.6983 17.4334 24.5396 17.499 24.3741 17.499Z" fill="#232323"/><path d="M19.3746 26.2489H13.125C12.7798 26.2489 12.5 25.9691 12.5 25.6239C12.5 25.2788 12.7798 24.9989 13.125 24.9989H19.3746C20.4101 24.9989 21.2495 24.1595 21.2495 23.1241V16.8745C21.2495 16.5293 21.5293 16.2495 21.8745 16.2495C22.2196 16.2495 22.4995 16.5293 22.4995 16.8745V23.1241C22.4994 24.8498 21.1004 26.2489 19.3746 26.2489Z" fill="#232323"/><path d="M21.8749 9.99982C21.5297 9.99982 21.2499 9.72 21.2499 9.37484V3.12527C21.2499 2.08981 20.4105 1.25039 19.375 1.25039H4.37596C4.0308 1.25039 3.75098 0.970564 3.75098 0.62541C3.75098 0.280256 4.0308 0.000488281 4.37596 0.000488281H19.375C21.1008 0.000488281 22.4998 1.3995 22.4998 3.12527V9.3749C22.4998 9.72006 22.22 9.99982 21.8749 9.99982Z" fill="#232323"/><path d="M10.625 17.4994C10.2798 17.4994 10 17.2195 10 16.8744V14.3745C10 14.0293 10.2798 13.7495 10.625 13.7495C10.9701 13.7495 11.25 14.0293 11.25 14.3745V16.8744C11.2499 17.2196 10.9701 17.4994 10.625 17.4994Z" fill="#232323"/><path d="M11.0516 29.9983C10.6854 29.9987 10.323 29.9242 9.98664 29.7795L2.8871 26.736C1.89435 26.3115 1.25063 25.3357 1.25098 24.2561V2.69868C1.25186 1.20762 2.46133 -0.000390091 3.95239 0.00048876C4.31752 0.000723121 4.67885 0.0750154 5.01445 0.218854L12.114 3.26243C13.1067 3.68686 13.7505 4.66262 13.7501 5.74226V27.2997C13.7481 28.7892 12.5411 29.9962 11.0516 29.9983ZM3.94952 1.25004C3.15 1.25139 2.50223 1.89922 2.50088 2.69868V24.2561C2.49965 24.8352 2.84387 25.3595 3.3758 25.5885L10.4766 28.6321C10.6583 28.71 10.854 28.7495 11.0516 28.7483C11.8511 28.747 12.4989 28.0991 12.5002 27.2997V5.74226C12.5014 5.16304 12.1572 4.63889 11.6253 4.40986L4.52077 1.36751C4.34037 1.28965 4.14597 1.24969 3.94952 1.25004Z" fill="#232323"/></g><defs><clipPath id="clip0"><rect width="30" height="30" fill="white"/></clipPath></defs></svg>