<svg width="25" height="25" viewBox="0 0 25 25" fill="none" xmlns="http://www.w3.org/2000/svg"><g clip-path="url(#clip0)"><path d="M24.9204 11.0603C24.8673 10.9332 24.7913 10.8175 24.6944 10.7207L21.5704 7.59668C21.1632 7.19043 20.5048 7.19043 20.0975 7.59668C19.6903 8.00396 19.6903 8.66333 20.0975 9.06958L21.4444 10.4165H15.6256C15.0496 10.4165 14.584 10.8831 14.584 11.4581C14.584 12.0331 15.0496 12.4998 15.6256 12.4998H21.4444L20.0975 13.8466C19.6902 14.2539 19.6902 14.9133 20.0975 15.3195C20.3006 15.5237 20.5673 15.6248 20.834 15.6248C21.1007 15.6248 21.3673 15.5237 21.5704 15.3195L24.6944 12.1956C24.7913 12.0997 24.8673 11.9841 24.9204 11.856C25.0256 11.6019 25.0256 11.3144 24.9204 11.0603Z" fill="#B8B8B8"/><path d="M17.7093 14.5833C17.1333 14.5833 16.6676 15.05 16.6676 15.625V20.8333H12.501V4.16665C12.501 3.70728 12.1989 3.30103 11.7583 3.16875L8.14053 2.08335H16.6676V7.2917C16.6676 7.8667 17.1333 8.33335 17.7093 8.33335C18.2853 8.33335 18.7509 7.8667 18.7509 7.2917V1.0417C18.7509 0.46665 18.2853 0 17.7093 0H1.04263C1.00513 0 0.971777 0.015625 0.935352 0.0197754C0.886377 0.025 0.841602 0.0333008 0.794727 0.0447754C0.685352 0.0729004 0.586377 0.115625 0.493701 0.173926C0.470801 0.188525 0.442676 0.189551 0.420801 0.206201C0.412402 0.2125 0.409277 0.223975 0.400928 0.230225C0.287402 0.319775 0.192627 0.42915 0.123877 0.559375C0.109277 0.5875 0.106152 0.617725 0.0947266 0.646875C0.061377 0.726025 0.0249512 0.803125 0.0124512 0.890625C0.00722656 0.921875 0.0166016 0.951025 0.0155762 0.98125C0.0145508 1.0021 0.000976562 1.02085 0.000976562 1.04165V21.875C0.000976562 22.3719 0.352002 22.799 0.838477 22.8959L11.2551 24.9792C11.3229 24.9938 11.3916 25 11.4593 25C11.6978 25 11.9322 24.9178 12.1197 24.7636C12.3603 24.5657 12.5009 24.2708 12.5009 23.9583V22.9167H17.7093C18.2853 22.9167 18.7509 22.45 18.7509 21.875V15.625C18.7509 15.05 18.2853 14.5833 17.7093 14.5833Z" fill="#B8B8B8"/></g><defs><clipPath id="clip0"><rect width="25" height="25" fill="white"/></clipPath></defs></svg>