<svg width="25" height="25" viewBox="0 0 25 25" fill="none" xmlns="http://www.w3.org/2000/svg"><path d="M0.158886 12.0138C0.382227 11.7082 5.70367 4.53297 12.5001 4.53297C19.2966 4.53297 24.6183 11.7082 24.8414 12.0135C25.0529 12.3033 25.0529 12.6964 24.8414 12.9863C24.6183 13.2918 19.2966 20.467 12.5001 20.467C5.70367 20.467 0.382227 13.2917 0.158886 12.9865C-0.0529308 12.6967 -0.0529308 12.3033 0.158886 12.0138ZM12.5001 18.8187C17.5064 18.8187 21.8424 14.0563 23.126 12.4994C21.8441 10.9412 17.5172 6.18132 12.5001 6.18132C7.49406 6.18132 3.15835 10.9428 1.87427 12.5006C3.15616 14.0588 7.48307 18.8187 12.5001 18.8187Z" fill="#035D03"/><path d="M12.5002 7.55495C15.2269 7.55495 17.4453 9.77336 17.4453 12.5C17.4453 15.2267 15.2269 17.4451 12.5002 17.4451C9.77357 17.4451 7.55516 15.2267 7.55516 12.5C7.55516 9.77336 9.77357 7.55495 12.5002 7.55495ZM12.5002 15.7967C14.3181 15.7967 15.7969 14.3178 15.7969 12.5C15.7969 10.6822 14.3181 9.20334 12.5002 9.20334C10.6824 9.20334 9.20355 10.6822 9.20355 12.5C9.20355 14.3178 10.6824 15.7967 12.5002 15.7967Z" fill="#035D03"/></svg>