<svg width="40" height="40" viewBox="0 0 40 40" fill="none" xmlns="http://www.w3.org/2000/svg"><path d="M25.8093 37.4735C24.4343 37.4735 23.3197 36.3589 23.3197 34.9839V34.4746H16.6806V34.9839C16.6806 36.3589 15.566 37.4735 14.191 37.4735H8.29883V39.8173H31.7014V37.4735H25.8093Z" fill="url(#paint0_linear_10628_7281)"/><path d="M0 24.6632C0 25.3898 0.591094 25.9809 1.31773 25.9809H38.6823C39.4089 25.9809 40 25.3898 40 24.6632V22.5156H0V24.6632Z" fill="url(#paint1_linear_10628_7281)"/><path d="M1.31773 28.3244C0.853281 28.3244 0.409219 28.2366 0 28.0781V29.788C0 31.0825 1.0493 32.1318 2.34375 32.1318H37.6562C38.9507 32.1318 40 31.0825 40 29.788V28.0781C39.5908 28.2366 39.1467 28.3244 38.6823 28.3244H1.31773Z" fill="url(#paint2_linear_10628_7281)"/><path d="M37.6562 0.181641H2.34375C1.0493 0.181641 0 1.23094 0 2.52539V4.81891H40V2.52539C40 1.23094 38.9507 0.181641 37.6562 0.181641Z" fill="url(#paint3_linear_10628_7281)"/><path d="M14.5039 7.16211V20.1711H25.4934V7.16211H14.5039ZM22.8615 12.8246L22.5178 13.168C22.502 13.1841 20.6484 15.0894 20.6484 17.4519H18.3047C18.3047 15.122 19.4911 13.209 20.2486 12.225H19.4797V12.4552H17.1359V9.88125H22.8615V12.8246Z" fill="url(#paint4_linear_10628_7281)"/><path d="M12.1615 7.16211H0V20.1711H12.1615V7.16211ZM8.94352 12.8246L8.59984 13.168C8.58406 13.1841 6.73047 15.0894 6.73047 17.4519H4.38672C4.38672 15.122 5.57312 13.209 6.33062 12.225H5.56172V12.4552H3.21797V9.88125H8.94344V12.8246H8.94352Z" fill="url(#paint5_linear_10628_7281)"/><path d="M27.8398 20.171H40.0013V7.16211H27.8398V20.171ZM31.0578 9.88118H36.7833V12.8245L36.4396 13.1679C36.4238 13.184 34.5703 15.0894 34.5703 17.4519H32.2266C32.2266 15.122 33.413 13.2089 34.1705 12.2249H33.4016V12.4552H31.0578V9.88118Z" fill="url(#paint6_linear_10628_7281)"/><defs><linearGradient id="paint0_linear_10628_7281" x1="20.0001" y1="34.4746" x2="20.2534" y2="39.8052" gradientUnits="userSpaceOnUse"><stop stop-color="#06AC06"/><stop offset="1" stop-color="#005085"/></linearGradient><linearGradient id="paint1_linear_10628_7281" x1="20" y1="22.5156" x2="20.0625" y2="25.9798" gradientUnits="userSpaceOnUse"><stop stop-color="#06AC06"/><stop offset="1" stop-color="#005085"/></linearGradient><linearGradient id="paint2_linear_10628_7281" x1="20" y1="28.0781" x2="20.0855" y2="32.13" gradientUnits="userSpaceOnUse"><stop stop-color="#06AC06"/><stop offset="1" stop-color="#005085"/></linearGradient><linearGradient id="paint3_linear_10628_7281" x1="20" y1="0.181641" x2="20.1118" y2="4.81621" gradientUnits="userSpaceOnUse"><stop stop-color="#06AC06"/><stop offset="1" stop-color="#005085"/></linearGradient><linearGradient id="paint4_linear_10628_7281" x1="19.9987" y1="7.16211" x2="23.0204" y2="19.4266" gradientUnits="userSpaceOnUse"><stop stop-color="#06AC06"/><stop offset="1" stop-color="#005085"/></linearGradient><linearGradient id="paint5_linear_10628_7281" x1="6.08074" y1="7.16211" x2="8.84026" y2="19.5567" gradientUnits="userSpaceOnUse"><stop stop-color="#06AC06"/><stop offset="1" stop-color="#005085"/></linearGradient><linearGradient id="paint6_linear_10628_7281" x1="33.9206" y1="7.16211" x2="36.6801" y2="19.5567" gradientUnits="userSpaceOnUse"><stop stop-color="#06AC06"/><stop offset="1" stop-color="#005085"/></linearGradient></defs></svg>