<svg preserveAspectRatio="none" width="200" height="129" viewBox="0 0 200 129" fill="none" xmlns="http://www.w3.org/2000/svg"><rect width="200" height="129" fill="#035D03"/><g opacity="0.5"><path d="M32.1949 70.0917V59.1574C32.1949 57.9101 31.8572 57.0578 31.1898 56.6629H36.7176C37.9906 56.6629 39.0573 56.9539 39.9176 57.5359C40.3326 57.8017 40.672 58.1764 40.9015 58.6218C41.131 59.0673 41.2423 59.5677 41.2242 60.072V60.2176C41.2242 61.6935 40.4805 62.7329 39.0131 63.2941C39.6274 63.4145 40.214 63.6543 40.7418 64.0009C41.1973 64.2837 41.5992 64.65 41.9277 65.0819C42.0673 65.2774 42.1884 65.4862 42.2896 65.7055C42.3999 65.9436 42.4809 66.195 42.5308 66.4539C42.6216 66.7995 42.6689 67.1559 42.6715 67.5141V67.9506C42.5308 69.4681 41.9076 70.6114 40.7619 71.4222C39.6161 72.2329 38.1689 72.6278 36.3799 72.6278H31.1898C31.5174 72.3852 31.7914 72.0735 31.9939 71.7132C32.1386 71.4637 32.1949 70.9233 32.1949 70.0917ZM35.3346 63.1071H36.1588C37.0074 63.1249 37.8435 62.8943 38.5709 62.4419C39.2543 61.9845 39.596 61.3817 39.596 60.6125V60.571C39.596 59.7394 39.3146 59.095 38.7518 58.6793C38.2558 58.3244 37.6664 58.1358 37.0633 58.1388H36.8422L35.3145 58.3259V63.1071H35.3346ZM35.3346 70.6946L37.2844 70.8817L37.7467 70.9025C38.553 70.9362 39.3443 70.6708 39.9779 70.1541C40.3016 69.8808 40.5604 69.5345 40.7346 69.1417C40.9088 68.749 40.9938 68.3202 40.983 67.8882C40.9955 67.402 40.8919 66.9201 40.6816 66.485C40.4713 66.0499 40.1606 65.6751 39.7769 65.3937C39.0202 64.8565 38.1218 64.5734 37.204 64.583H36.9829L35.3145 64.6869V70.6946H35.3346ZM46.4665 69.2187V59.9057C46.4665 59.3861 46.4464 58.9495 46.4263 58.5961C46.4146 58.3016 46.3742 58.0091 46.3057 57.723C46.2508 57.5015 46.1428 57.2978 45.9917 57.1307C45.8407 56.9636 45.6514 56.8384 45.4414 56.7668L45.4816 56.6629H50.7279C51.8737 56.6629 52.7983 56.8707 53.5019 57.2865C54.1589 57.6579 54.7021 58.2125 55.0697 58.8871C55.3213 59.4029 55.4521 59.9725 55.4516 60.5502L55.4114 60.9867C55.2305 62.8368 54.0446 64.1464 51.8737 64.874L55.3109 69.5097C55.9743 70.4659 57.12 71.5053 58.7281 72.6278H56.4366C55.4114 72.6278 54.5873 72.1497 53.9441 71.1935L51.331 67.7012L49.2646 64.3127C50.2865 64.1464 51.2561 63.7333 52.0948 63.1071C52.435 62.8632 52.7119 62.5366 52.9012 62.156C53.0905 61.7753 53.1863 61.3523 53.1802 60.9243V60.6749C53.1871 60.2885 53.1116 59.9052 52.9591 59.5524C52.7954 59.237 52.5694 58.9608 52.2958 58.7416C51.6719 58.3335 50.943 58.1305 50.2053 58.1596C49.7235 58.1722 49.2446 58.242 48.7781 58.3675V69.8215C48.7588 70.3945 48.8129 70.9677 48.9389 71.5261C48.9979 71.7522 49.1016 71.9631 49.2435 72.1456C49.3853 72.3281 49.5623 72.4781 49.7631 72.5863V72.6278H45.5258V72.5239C45.7318 72.4318 45.9127 72.2889 46.0529 72.1077C46.1931 71.9265 46.2882 71.7125 46.3298 71.4845C46.4347 70.7343 46.4804 69.9765 46.4665 69.2187ZM61.1804 69.1771L65.0197 58.7208C65.1427 58.3876 65.2172 58.0373 65.2408 57.6815C65.2579 57.4666 65.2006 57.2524 65.0791 57.0772C64.9576 56.9021 64.7798 56.7773 64.5775 56.7252V56.6836H68.1353L73.1003 69.9047C73.3255 70.5074 73.6083 71.0854 73.9445 71.63C74.235 72.0157 74.6061 72.3284 75.03 72.5447V72.6486H70.4268V72.5447C70.9495 72.316 71.2108 72.0458 71.2108 71.734C71.1836 71.385 71.0879 71.0455 70.9294 70.7362L69.5022 66.6202H63.8538L62.5272 70.5491C62.4669 70.7154 62.4267 70.8817 62.3865 71.0272C62.3517 71.178 62.3249 71.3307 62.3061 71.4845C62.3136 71.7298 62.3981 71.9658 62.5468 72.1571C62.6954 72.3483 62.9002 72.4844 63.1302 72.5447V72.6486H59.0296V72.5447C59.4148 72.3217 59.7558 72.0255 60.0347 71.6716C60.2678 71.3388 60.4697 70.9838 60.6377 70.6114L61.1804 69.1771ZM64.3966 64.8324H68.8389L66.668 58.7208L64.3966 64.8324ZM76.6782 72.6486L84.8191 58.6793L82.608 58.5338L80.5778 58.4298C80.2562 58.4298 79.9949 58.4506 79.7738 58.4714C79.5338 58.5093 79.2981 58.572 79.0702 58.6585C78.8219 58.7518 78.5801 58.863 78.3466 58.9911C78.0959 59.1234 77.86 59.2838 77.6431 59.4692H77.5627L78.7486 56.6836H88.6584L80.5577 70.6738C80.8793 70.6738 81.2612 70.6946 81.7236 70.7154C82.7688 70.7777 83.4523 70.7985 83.7538 70.7985L85.5025 70.9233C86.189 70.9227 86.8721 70.8248 87.5327 70.6322C88.3321 70.3764 89.1008 70.0277 89.8242 69.5928L88.582 72.6694H76.6823L76.6782 72.6486ZM92.558 69.2187V59.9057C92.5835 59.1475 92.5364 58.3885 92.4173 57.6399C92.3627 57.4293 92.259 57.2359 92.1154 57.0764C91.9717 56.9169 91.7924 56.7963 91.5931 56.7252V56.6836H95.8545V56.7252C95.6519 56.8111 95.4726 56.9467 95.3319 57.1202C95.1949 57.2963 95.0986 57.5025 95.0505 57.723C95.0071 57.8941 94.9736 58.0676 94.95 58.2427C94.9333 58.3597 94.9266 58.4779 94.9299 58.5961L94.8897 59.9265V69.2394C94.8897 70.4036 94.95 71.1935 95.0706 71.5885C95.199 72.0072 95.4802 72.3577 95.8545 72.5655V72.6694H91.5931V72.5655C91.7986 72.4844 91.9805 72.3501 92.1213 72.1753C92.2621 72.0006 92.3571 71.7913 92.3972 71.5677C92.5215 70.7915 92.5767 70.0052 92.562 69.2187H92.558ZM99.332 69.6968V59.4484C99.332 58.5753 99.2516 57.9725 99.0707 57.6191C98.8293 57.2493 98.514 56.9374 98.146 56.7044V56.6629H101.443C101.443 56.8292 101.664 57.2033 102.126 57.8062L110.327 68.99V59.49C110.344 58.9146 110.276 58.3398 110.126 57.7854C109.985 57.3281 109.664 56.9747 109.141 56.6836V56.6421H113.101V56.6836C112.707 56.9363 112.387 57.2957 112.176 57.723C111.996 58.0972 111.915 58.7208 111.915 59.5939L111.955 73.3762C111.332 73.2108 110.754 72.8976 110.267 72.4615C109.806 72.0439 109.383 71.5847 109.001 71.0896L100.96 60.0513V69.676C100.96 70.5075 101.041 71.0896 101.201 71.4429C101.433 71.8725 101.756 72.2421 102.146 72.5239V72.6278H98.146V72.5239C98.564 72.3122 98.8928 71.95 99.0707 71.5053C99.2556 71.1103 99.332 70.5075 99.332 69.6968ZM114.79 61.2777C115.193 60.2669 115.796 59.3537 116.558 58.5961C117.3 57.852 118.175 57.2658 119.135 56.8707C119.626 56.6774 120.128 56.5177 120.639 56.3926C121.162 56.2848 121.694 56.2291 122.227 56.2263H122.528C123.826 56.211 125.108 56.5175 126.267 57.1202C127.516 57.7481 128.568 58.7281 129.302 59.9473C129.685 60.5923 129.988 61.2835 130.207 62.0053C130.426 62.7461 130.535 63.5173 130.529 64.292V64.6869C130.529 65.6206 130.38 66.5478 130.086 67.4309C129.726 68.4674 129.173 69.4209 128.458 70.2373C127.737 71.0674 126.862 71.739 125.885 72.2121C125.369 72.4708 124.831 72.6796 124.277 72.8357C123.725 72.9789 123.158 73.0488 122.589 73.0436H122.448C121.869 73.0494 121.29 73.0007 120.719 72.8981C120.176 72.7926 119.644 72.6325 119.131 72.42C118.104 72.0102 117.172 71.3796 116.398 70.5699C115.664 69.8275 115.077 68.9451 114.669 67.9714C114.475 67.4865 114.321 66.9859 114.207 66.4747C114.101 65.9761 114.047 65.4675 114.046 64.9572C114.066 64.9572 114.066 64.9156 114.086 64.8948C114.086 64.2675 114.14 63.6414 114.247 63.0239C114.381 62.4268 114.564 61.8426 114.794 61.2777H114.79ZM116.679 64.7285C116.675 65.1624 116.722 65.5953 116.82 66.0173C116.927 66.4578 117.068 66.8888 117.242 67.3062C117.56 68.1165 118.024 68.8572 118.609 69.4889C119.152 70.1003 119.817 70.5826 120.559 70.9025C121.111 71.1496 121.706 71.277 122.307 71.2766H122.729C123.326 71.2851 123.919 71.1794 124.478 70.9648C125.014 70.7568 125.51 70.4543 125.946 70.071C126.75 69.351 127.348 68.4161 127.674 67.3685C127.93 66.5707 128.059 65.7353 128.056 64.8948C128.056 64.6038 128.036 64.3127 128.016 64.0841C127.892 62.4608 127.265 60.9223 126.227 59.6979C125.755 59.147 125.172 58.7092 124.519 58.4148C123.867 58.1204 123.16 57.9766 122.448 57.9933H122.267C121.477 57.9814 120.694 58.1518 119.976 58.4922C119.283 58.8254 118.666 59.3073 118.167 59.9057C117.202 61.0283 116.699 62.525 116.699 64.3959V64.7285H116.679ZM139.876 72.6486L145.524 58.7208C144.941 58.5753 144.338 58.4714 143.755 58.3882C143.236 58.31 142.712 58.2683 142.187 58.2635C140.499 58.2635 139.132 58.7001 138.087 59.5524H138.006L139.011 56.6629H148.7L143.212 70.5491C143.152 70.7154 143.112 70.9025 143.072 71.048C143.037 71.2058 143.01 71.3654 142.991 71.5261C142.995 71.7386 143.058 71.9455 143.172 72.1223C143.286 72.2992 143.446 72.4385 143.634 72.5239V72.6278H139.876V72.6486ZM151.011 72.6486L156.66 58.7208C156.077 58.5753 155.474 58.4714 154.891 58.3882C154.372 58.31 153.848 58.2683 153.323 58.2635C151.635 58.2635 150.268 58.7001 149.223 59.5524H149.142L150.147 56.6629H159.836L154.348 70.5491C154.288 70.7154 154.248 70.9025 154.208 71.048C154.173 71.2058 154.146 71.3654 154.127 71.5261C154.131 71.7386 154.194 71.9455 154.308 72.1223C154.422 72.2992 154.582 72.4385 154.77 72.5239V72.6278H151.011V72.6486ZM162.127 72.6486L167.776 58.7208C167.193 58.5753 166.59 58.4714 166.007 58.3882C165.488 58.31 164.964 58.2683 164.439 58.2635C162.75 58.2635 161.384 58.7001 160.338 59.5524H160.258L161.263 56.6629H170.952L165.464 70.5491C165.404 70.7154 165.364 70.9025 165.323 71.048C165.288 71.2058 165.262 71.3654 165.243 71.5261C165.247 71.7386 165.309 71.9455 165.423 72.1223C165.537 72.2992 165.698 72.4385 165.886 72.5239V72.6278H162.127V72.6486Z" fill="white"/></g></svg>