<svg width="35" height="35" viewBox="0 0 80 81" fill="none" xmlns="http://www.w3.org/2000/svg">
    <g clip-path="url(#clip0)">
        <path d="M39.9556 80.0014C17.788 79.9467 -0.065985 62.0202 0.000183316 39.8869C0.0663516 17.7536 17.9941 -0.0558569 40.1758 0.000131659C62.2238 0.0561202 80.0562 18.0195 80.0002 40.1108C79.9442 62.2022 62.0075 80.0549 39.9556 80.0014ZM71.747 59.3518C80.1834 46.1093 79.6363 25.3311 64.4939 11.9868C50.0412 -0.754441 27.8672 -0.171651 14.0889 13.2847C-0.147422 27.1889 0.422642 47.4186 8.39847 59.5516C8.54607 58.9994 8.6835 58.4776 8.82729 57.9572C10.0527 53.5036 12.5302 50.0615 16.7878 48.032C18.9383 47.0063 21.1575 46.192 23.4937 45.725C23.7482 45.6741 24.0931 45.7899 24.3247 45.94C25.0512 46.4108 25.7244 46.9745 26.4599 47.4237C26.8734 47.6782 27.0363 47.9213 27.0325 48.415C27.0096 52.3596 27.0325 56.3043 27.007 60.2489C26.9979 60.4975 27.042 60.7452 27.1364 60.9754C27.2308 61.2056 27.3732 61.413 27.5542 61.5837C29.6877 63.7961 31.8051 66.0251 33.9063 68.2706C34.1202 68.5161 34.2441 68.8271 34.2575 69.1524C34.2855 71.4632 34.2728 73.7752 34.2728 76.086L34.2728 76.7834C38.1118 77.3586 42.0156 77.3508 45.8523 76.7605L45.8523 76.0441C45.8523 73.7752 45.8637 71.5064 45.8433 69.2376C45.8354 69.0405 45.8696 68.844 45.9438 68.6611C46.018 68.4783 46.1304 68.3135 46.2734 68.1777C48.4188 65.9457 50.5413 63.6909 52.6867 61.4603C52.8287 61.3235 52.9402 61.1583 53.0138 60.9754C53.0875 60.7925 53.1217 60.5961 53.1142 60.3991C53.099 56.3908 53.1142 52.3825 53.0977 48.3768C53.0977 47.9531 53.202 47.7062 53.5914 47.4708C54.3676 47.0013 55.0713 46.4134 55.8309 45.9146C56.0447 45.7746 56.3845 45.6601 56.6059 45.7237C58.5438 46.3218 60.5111 46.8562 62.3854 47.6184C66.1786 49.1632 69.0023 51.7679 70.4936 55.6617C70.9542 56.8565 71.3232 58.0934 71.747 59.3518Z" fill="white"/>
        <path d="M19.8955 27.4495C19.9031 16.6336 28.7672 7.78993 39.5869 7.8052C50.3762 7.82047 59.2389 16.6896 59.2147 27.4495C59.1906 38.2833 50.38 47.1295 39.6187 47.1244C28.7252 47.1193 19.8879 38.3011 19.8955 27.4495ZM50.0606 27.4813C50.0641 25.4042 49.4518 23.3726 48.301 21.6433C47.1501 19.914 45.5125 18.5647 43.5951 17.7659C41.6776 16.9672 39.5664 16.7547 37.5282 17.1555C35.4901 17.5563 33.6165 18.5522 32.1442 20.0176C30.6719 21.4829 29.6671 23.3518 29.2567 25.388C28.8463 27.4243 29.0488 29.5365 29.8385 31.4577C30.6283 33.3789 31.9698 35.0229 33.6936 36.1818C35.4174 37.3408 37.4461 37.9627 39.5233 37.969C40.9038 37.9732 42.2715 37.7053 43.5484 37.1805C44.8252 36.6558 45.9861 35.8846 46.9647 34.9109C47.9433 33.9373 48.7205 32.7803 49.2517 31.5062C49.7829 30.232 50.0578 28.8656 50.0606 27.4852L50.0606 27.4813ZM52.5725 38.436C54.0014 36.7004 55.0805 34.8387 55.7422 32.701L52.2747 30.702C51.7079 32.8432 50.6288 34.8145 49.1304 36.4459L52.5725 38.436ZM26.8343 30.702C25.7221 31.3382 24.6711 31.9312 23.6442 32.561C23.5233 32.6348 23.4482 32.9695 23.508 33.1196C23.858 33.9811 24.1939 34.8566 24.6533 35.6646C25.1992 36.6317 25.8596 37.5326 26.4793 38.4742L29.9925 36.4382C28.4859 34.8137 27.4013 32.8439 26.8343 30.702ZM26.9832 23.6576C27.6485 21.543 28.8175 19.6216 30.3895 18.0587L26.9323 16.0648C25.4295 17.7572 24.3046 19.5959 23.5653 21.6878L26.9832 23.6576ZM52.1716 16.0711L48.7156 18.0689C50.2941 19.6231 51.4672 21.5407 52.1322 23.6538L55.5615 21.6738C54.7509 19.5501 53.6731 17.6986 52.1716 16.0711ZM36.3294 14.7401C38.4517 14.211 40.6713 14.211 42.7935 14.7401L42.7935 10.7535C40.66 10.326 38.4629 10.326 36.3294 10.7535L36.3294 14.7401ZM36.2938 44.1748C38.4363 44.5982 40.6409 44.5982 42.7834 44.1748L42.7834 40.1882C40.6528 40.7197 38.4243 40.7197 36.2938 40.1882L36.2938 44.1761L36.2938 44.1748Z" fill="white"/>
        <path d="M30.8382 53.8509C30.8382 52.7909 30.8382 51.7309 30.8382 50.6697C30.8382 49.5856 31.1958 49.3323 32.2163 49.7497C34.0372 50.4954 35.8377 51.2919 37.6625 52.0261C38.1341 52.1927 38.6257 52.2958 39.1245 52.3328C41.0078 52.5453 42.7498 52.1305 44.4358 51.2576C45.6154 50.6468 46.8828 50.2014 48.126 49.709C49.0498 49.3425 49.4188 49.6174 49.4201 50.6341C49.4201 52.7964 49.4201 54.9596 49.4201 57.1237C49.4201 57.9189 49.0383 58.2269 48.2914 57.9698C46.3102 57.2903 44.3467 56.5701 42.3655 55.883C41.9865 55.7633 41.595 55.6873 41.1986 55.6565C39.3447 55.4644 37.6052 55.8525 35.8976 56.5918C34.6391 57.1364 33.3144 57.5308 32.0089 57.9609C31.2136 58.2231 30.8471 57.9291 30.8446 57.0957C30.8357 56.0128 30.8382 54.9325 30.8382 53.8509Z" fill="white"/>
        <path d="M41.9065 64.1844C41.9051 64.6138 41.776 65.0331 41.5356 65.3888C41.2951 65.7446 40.9543 66.0208 40.5564 66.1822C40.1585 66.3436 39.7215 66.3829 39.3012 66.2952C38.8809 66.2074 38.4962 65.9965 38.1961 65.6894C37.896 65.3823 37.6941 64.9928 37.6161 64.5706C37.5381 64.1483 37.5875 63.7124 37.7581 63.3183C37.9286 62.9243 38.2126 62.5899 38.5738 62.3578C38.9351 62.1256 39.3572 62.0063 39.7865 62.0148C40.3532 62.0281 40.8922 62.2625 41.2883 62.6679C41.6844 63.0733 41.9063 63.6176 41.9065 64.1844Z" fill="white"/>
        <path d="M40.5038 30.8345C40.7583 31.3282 40.9416 31.8664 41.2673 32.3054C42.0194 33.3234 43.0704 33.8731 44.3213 34.0513C44.6113 34.1135 44.8959 34.1985 45.1725 34.3058C45.1611 34.3617 45.1484 34.4177 45.1356 34.4737L34.0206 34.4737L33.9583 34.3287C34.2598 34.2332 34.5563 34.0894 34.8655 34.0487C36.6966 33.8044 38.2249 32.453 38.5493 30.6919C38.2707 30.8739 38.0403 31.0406 37.7986 31.1806C36.4956 31.925 35.19 31.9135 33.9812 31.0202C32.7723 30.127 32.3206 28.857 32.5598 27.3759C32.7863 25.9762 33.5396 24.8182 34.3515 23.6997C35.8072 21.6943 37.6217 20.0478 39.5622 18.4597C42.1466 20.6229 44.6406 22.8179 46.0925 25.9215C46.6397 27.0921 46.856 28.2984 46.3178 29.5442C46.1111 30.0392 45.793 30.4798 45.388 30.8316C44.9831 31.1834 44.5024 31.4369 43.9834 31.5724C43.4644 31.7079 42.9211 31.7217 42.3959 31.6126C41.8707 31.5036 41.3778 31.2747 40.9556 30.9439C40.8614 30.8714 40.7647 30.8052 40.6693 30.7352L40.5038 30.8345Z" fill="white"/>
    </g>
    <defs>
        <clipPath id="clip0">
            <rect width="80" height="80.0013" fill="white"/>
        </clipPath>
    </defs>
</svg>
