<svg width="25" height="25" viewBox="0 0 25 25" fill="none" xmlns="http://www.w3.org/2000/svg"><path d="M12.5016 12.9819C16.0731 12.9819 18.9926 10.0624 18.9926 6.49094C18.9926 2.91949 16.0731 0 12.5016 0C8.93018 0 6.01074 2.91949 6.01074 6.49094C6.01074 10.0624 8.93023 12.9819 12.5016 12.9819Z" fill="#B8B8B8"/><path d="M23.6417 18.169C23.4716 17.7438 23.2449 17.347 22.9898 16.9785C21.6859 15.0511 19.6735 13.7756 17.4059 13.4638C17.1225 13.4355 16.8107 13.4921 16.5839 13.6622C15.3935 14.5409 13.9763 14.9944 12.5023 14.9944C11.0283 14.9944 9.61113 14.5409 8.42064 13.6622C8.19386 13.4921 7.88207 13.4071 7.59865 13.4638C5.33107 13.7756 3.29027 15.0511 2.01477 16.9785C1.75967 17.347 1.53289 17.7722 1.36286 18.169C1.27785 18.3391 1.30617 18.5375 1.39118 18.7076C1.61796 19.1044 1.90138 19.5013 2.15648 19.8414C2.55329 20.38 2.97848 20.8618 3.46036 21.3153C3.85717 21.7121 4.31067 22.0806 4.76423 22.4491C7.00343 24.1214 9.6962 25.0001 12.474 25.0001C15.2518 25.0001 17.9445 24.1214 20.1837 22.4491C20.6372 22.109 21.0907 21.7121 21.4876 21.3153C21.9411 20.8618 22.3946 20.3799 22.7915 19.8414C23.0749 19.4729 23.33 19.1044 23.5568 18.7076C23.6984 18.5375 23.7267 18.3391 23.6417 18.169Z" fill="#B8B8B8"/></svg>