<svg width="16" height="16" viewBox="0 0 16 16" fill="none" xmlns="http://www.w3.org/2000/svg"><g clip-path="url(#clip0_2224_5670)"><path d="M2.06836 12.9205C1.90405 12.9205 1.74634 12.8918 1.59961 12.8398V15.5309C1.59961 15.7898 1.80945 15.9996 2.06836 15.9996H14.1184C14.3772 15.9996 14.5872 15.7898 14.5872 15.5309V12.8398C14.4404 12.8918 14.2827 12.9205 14.1184 12.9205H2.06836ZM12.6121 14.9288H11.1058C10.8469 14.9288 10.6371 14.7189 10.6371 14.4601C10.6371 14.2012 10.8469 13.9913 11.1058 13.9913H12.6121C12.871 13.9913 13.0808 14.2012 13.0808 14.4601C13.0808 14.7189 12.871 14.9288 12.6121 14.9288Z" fill="white"/><path d="M14.1184 9.91016H2.06836C1.80945 9.91016 1.59961 10.12 1.59961 10.3789V11.5164C1.59961 11.7751 1.80945 11.9851 2.06836 11.9851H14.1184C14.3772 11.9851 14.5872 11.7751 14.5872 11.5164V10.3789C14.5872 10.12 14.3772 9.91016 14.1184 9.91016Z" fill="white"/><path d="M12.8632 0H3.32361C2.36987 0 1.59961 0.771851 1.59961 1.724V2.1416H14.5872V1.724C14.5872 0.770386 13.8153 0 12.8632 0Z" fill="white"/><path d="M5.30371 8.96997V3.07812H1.59961V9.05066C1.74622 8.99841 1.90393 8.96997 2.06836 8.96997H5.30371ZM2.9281 4.79529H3.97522C4.12341 4.79529 4.25879 4.87903 4.32495 5.01147C4.39124 5.14392 4.37695 5.30249 4.28809 5.42102L4.16248 5.5885C3.88879 5.95337 3.73804 6.40552 3.73804 6.86169C3.73804 7.07764 3.56299 7.25269 3.34692 7.25269C3.13098 7.25269 2.95593 7.07764 2.95593 6.86169C2.95593 6.41711 3.06055 5.97522 3.2561 5.57739H2.9281C2.71216 5.57739 2.53711 5.40222 2.53711 5.18628C2.53711 4.97034 2.71216 4.79529 2.9281 4.79529Z" fill="white"/><path d="M6.24121 3.07812V8.96997H9.94556V3.07812H6.24121ZM8.92969 5.42102L8.80408 5.5885C8.5304 5.95337 8.37964 6.40552 8.37964 6.86169C8.37964 7.07764 8.20459 7.25269 7.98865 7.25269C7.77271 7.25269 7.59766 7.07764 7.59766 6.86169C7.59766 6.41711 7.70227 5.97534 7.89771 5.57739H7.56982C7.35388 5.57739 7.17871 5.40234 7.17871 5.1864C7.17871 4.97046 7.35388 4.79529 7.56982 4.79529H8.61694C8.76501 4.79529 8.90039 4.87903 8.96667 5.01147C9.03284 5.14392 9.01855 5.30249 8.92969 5.42102Z" fill="white"/><path d="M14.5879 3.07812H10.8838V8.96997H14.1191C14.2834 8.96997 14.4413 8.99841 14.5879 9.05066V3.07812ZM13.5721 4.48584L13.4465 4.65332C13.1729 5.01831 13.0221 5.47046 13.0221 5.92651C13.0221 6.14258 12.847 6.31763 12.6311 6.31763C12.415 6.31763 12.24 6.14258 12.24 5.92651C12.24 5.48193 12.3446 5.04016 12.5402 4.64221H12.2122C11.9962 4.64221 11.8212 4.46716 11.8212 4.25122C11.8212 4.03528 11.9962 3.86023 12.2122 3.86023H13.2593C13.4075 3.86023 13.5428 3.94385 13.609 4.07629C13.6753 4.20886 13.661 4.36731 13.5721 4.48584Z" fill="white"/></g><defs><clipPath id="clip0_2224_5670"><rect width="13.0667" height="16" fill="white" transform="translate(1.59961)"/></clipPath></defs></svg>