<svg width="60" height="60" viewBox="0 0 60 60" fill="none" xmlns="http://www.w3.org/2000/svg">
<g clip-path="url(#clip0_469_6513)">
<path d="M49.78 21.6099L48.21 22.9399L46.8 21.4399C44.64 22.6299 41.43 25.8999 39.7 30.2599C41.92 31.7699 44.72 32.6899 47.63 32.8499C50.54 33.0199 53.43 32.4299 55.81 31.1899C54.59 26.6599 51.78 23.0299 49.78 21.5999V21.6099ZM47.44 27.5699C47.4 28.2199 46.85 28.7099 46.2 28.6799C45.55 28.6399 45.06 28.0899 45.09 27.4399C45.13 26.7899 45.68 26.2999 46.33 26.3299C46.98 26.3699 47.47 26.9199 47.44 27.5699Z" fill="url(#paint0_linear_469_6513)"/>
<path d="M40.46 23.79C42.13 21.63 43.99 20.01 45.55 19.15L47.32 18.18L48.42 19.35L49.65 18.31L51.29 19.48C51.41 19.56 51.53 19.68 51.65 19.77C52.34 15.19 50.68 10.87 47.24 6.96999C44.84 4.18999 41.24 1.48999 38.54 0.21999C37.94 -0.0100098 37.49 -0.0100098 36.89 -0.0100098C36.29 0.0699902 35.54 0.43999 35.09 0.88999C33.07 3.13999 31.79 4.78999 27.97 3.28999C23.7 1.63999 18.97 0.96999 14.69 4.78999C9.30001 9.66999 7.27001 16.2 9.60001 23.33C10.72 27 13.2 28.58 16.8 28.73L17.18 24.75L22.51 30.45C18.54 25.5 21.91 21.9 24.76 20.7C28.14 19.2 30.91 17.25 31.36 13.12C31.36 12.97 31.44 12.74 31.51 12.6C32.11 11.32 33.84 10.95 34.96 11.77C35.26 11.99 35.56 12.29 35.71 12.6C37.36 16.12 38.86 19.8 40.36 23.4L40.47 23.79H40.46Z" fill="url(#paint1_linear_469_6513)"/>
<path d="M38.46 59.94C37.37 59.38 36.71 58.25 36.71 56.91C36.71 54.86 38.2 52.16 40.23 50.15C38.95 48.53 37.79 46.47 36.99 44.01L30.9 59.7C30.9 59.62 22.57 41.92 22.57 41.92C22.57 41.54 24.82 41.32 27.6 41.25L29.93 42.75L32.18 41.25C33.82 41.29 35.31 41.37 36.35 41.5C36.08 40.13 35.92 38.66 35.9 37.1C34.71 37.6 33.52 37.98 32.33 38.17L30.01 36.67L27.68 38.17C26.33 37.95 25.06 37.5 23.7 36.9C21.38 35.85 20.1 36.67 20.78 39.37C20.93 39.9 21.01 40.49 21.16 41.25C19.51 41.4 18.01 41.48 16.58 41.7C11.32 42.38 8.40001 45.75 8.02001 51.08C7.72001 55.28 10.27 57.68 13.12 60H38.62C38.57 59.98 38.51 59.97 38.46 59.94Z" fill="url(#paint2_linear_469_6513)"/>
<path d="M47.52 34.92C44.41 34.74 41.49 33.83 39.04 32.29C38.77 33.31 38.59 34.38 38.53 35.48C38.13 42.39 40.89 47.79 44.13 50.44C40.84 52.17 38.38 56.97 39.65 57.63C40.94 58.29 42.9 55.26 46.33 55.46C49.76 55.66 51.36 58.9 52.71 58.39C54.05 57.89 52.17 52.83 49.09 50.73C52.62 48.48 55.98 43.43 56.38 36.52C56.44 35.42 56.38 34.34 56.24 33.3C53.62 34.55 50.62 35.11 47.51 34.93L47.52 34.92Z" fill="url(#paint3_linear_469_6513)"/>
</g>
<defs>
<linearGradient id="paint0_linear_469_6513" x1="32.1996" y1="-0.0100101" x2="46.717" y2="56.2542" gradientUnits="userSpaceOnUse">
<stop stop-color="#06AC06"/>
<stop offset="1" stop-color="#005085"/>
</linearGradient>
<linearGradient id="paint1_linear_469_6513" x1="32.1996" y1="-0.0100101" x2="46.717" y2="56.2542" gradientUnits="userSpaceOnUse">
<stop stop-color="#06AC06"/>
<stop offset="1" stop-color="#005085"/>
</linearGradient>
<linearGradient id="paint2_linear_469_6513" x1="32.1996" y1="-0.0100101" x2="46.717" y2="56.2542" gradientUnits="userSpaceOnUse">
<stop stop-color="#06AC06"/>
<stop offset="1" stop-color="#005085"/>
</linearGradient>
<linearGradient id="paint3_linear_469_6513" x1="32.1996" y1="-0.0100101" x2="46.717" y2="56.2542" gradientUnits="userSpaceOnUse">
<stop stop-color="#06AC06"/>
<stop offset="1" stop-color="#005085"/>
</linearGradient>
<clipPath id="clip0_469_6513">
<rect width="48.42" height="60" fill="white" transform="translate(8)"/>
</clipPath>
</defs>
</svg>
