<svg width="60" height="60" viewBox="0 0 60 60" fill="none" xmlns="http://www.w3.org/2000/svg">
<g clip-path="url(#clip0_1116_730)">
<path fill-rule="evenodd" clip-rule="evenodd" d="M4.90127 59.0064C5.01043 59.5478 5.44771 60 6 60H54C54.5523 60 54.9896 59.5478 55.0987 59.0064C55.4948 57.0421 57.0421 55.4948 59.0064 55.0987C59.5478 54.9896 60 54.5523 60 54V6C60 5.44772 59.5478 5.01043 59.0064 4.90127C57.0421 4.50522 55.4948 2.95791 55.0987 0.993616C54.9896 0.452226 54.5523 0 54 0H6C5.44772 0 5.01043 0.452225 4.90127 0.993615C4.50522 2.95791 2.95791 4.50522 0.993616 4.90127C0.452226 5.01043 0 5.44771 0 6V54C0 54.5523 0.452225 54.9896 0.993615 55.0987C2.95791 55.4948 4.50522 57.0421 4.90127 59.0064ZM49.6428 32.4284C49.0514 32.4284 48.5716 32.9081 48.5716 33.5C48.5716 34.0914 48.0919 34.5712 47.5 34.5712C46.9081 34.5712 46.4288 34.0914 46.4288 33.5V29.214C46.4288 28.6225 45.9491 28.1428 45.3572 28.1428C44.7653 28.1428 44.2856 28.6225 44.2856 29.214V31.3572C44.2856 31.9486 43.8063 32.4284 43.2144 32.4284C42.6225 32.4284 42.1428 31.9486 42.1428 31.3572C42.1428 30.7653 41.6631 30.2856 41.0716 30.2856C40.4797 30.2856 40 30.7653 40 31.3572C40 31.9486 39.5203 32.4284 38.9288 32.4284C38.3369 32.4284 37.8572 31.9486 37.8572 31.3572V29.214C37.8572 28.6225 37.3775 28.1428 36.7856 28.1428C36.1942 28.1428 35.7144 28.6225 35.7144 29.214C35.7144 29.8058 35.2347 30.2856 34.6428 30.2856C34.0514 30.2856 33.5716 29.8058 33.5716 29.214C33.5716 28.6225 33.0919 28.1428 32.5 28.1428C31.9081 28.1428 31.4288 28.6225 31.4288 29.214V30.2856C31.4288 30.8775 30.9491 31.3572 30.3572 31.3572C29.7653 31.3572 29.2856 30.8775 29.2856 30.2856C29.2856 29.6937 28.8063 29.214 28.2144 29.214C27.6225 29.214 27.1428 29.6937 27.1428 30.2856C27.1428 30.8775 26.6631 31.3572 26.0716 31.3572C25.4797 31.3572 25 30.8775 25 30.2856V27.0712C25 26.4797 24.5203 26 23.9288 26C23.3369 26 22.8572 26.4797 22.8572 27.0712V29.214C22.8572 29.8058 22.3775 30.2856 21.7856 30.2856C21.1942 30.2856 20.7144 29.8058 20.7144 29.214C20.7144 28.6225 20.2347 28.1428 19.6428 28.1428C19.0514 28.1428 18.5716 28.6225 18.5716 29.214V31.3572C18.5716 31.9486 18.0919 32.4284 17.5 32.4284C16.9081 32.4284 16.4288 31.9486 16.4288 31.3572C16.4288 30.7653 15.9491 30.2856 15.3572 30.2856C14.7653 30.2856 14.2856 30.7653 14.2856 31.3572V33.5C14.2856 34.0914 13.8063 34.5712 13.2144 34.5712C12.6225 34.5712 12.1428 34.0914 12.1428 33.5C12.1428 32.9081 11.6631 32.4284 11.0716 32.4284C10.4797 32.4284 10 32.9081 10 33.5V44.214C10 44.8058 10.4797 45.2856 11.0716 45.2856C11.6631 45.2856 12.1428 44.8058 12.1428 44.214C12.1428 43.6225 12.6225 43.1428 13.2144 43.1428C13.8063 43.1428 14.2856 43.6225 14.2856 44.214V46.3572C14.2856 46.9486 14.7653 47.4284 15.3572 47.4284C15.9491 47.4284 16.4288 46.9486 16.4288 46.3572C16.4288 45.7653 16.9081 45.2856 17.5 45.2856C18.0919 45.2856 18.5716 45.7653 18.5716 46.3572V48.5C18.5716 49.0914 19.0514 49.5712 19.6428 49.5712C20.2347 49.5712 20.7144 49.0914 20.7144 48.5C20.7144 47.9081 21.1942 47.4284 21.7856 47.4284C22.3775 47.4284 22.8572 47.9081 22.8572 48.5V50.6428C22.8572 51.2347 23.3369 51.714 23.9288 51.714C24.5203 51.714 25 51.2347 25 50.6428V47.4284C25 46.8365 25.4797 46.3572 26.0716 46.3572C26.6631 46.3572 27.1428 46.8365 27.1428 47.4284C27.1428 48.0203 27.6225 48.5 28.2144 48.5C28.8063 48.5 29.2856 48.0203 29.2856 47.4284C29.2856 46.8365 29.7653 46.3572 30.3572 46.3572C30.9491 46.3572 31.4288 46.8365 31.4288 47.4284V48.5C31.4288 49.0914 31.9081 49.5712 32.5 49.5712C33.0919 49.5712 33.5716 49.0914 33.5716 48.5C33.5716 47.9081 34.0514 47.4284 34.6428 47.4284C35.2347 47.4284 35.7144 47.9081 35.7144 48.5C35.7144 49.0914 36.1942 49.5712 36.7856 49.5712C37.3775 49.5712 37.8572 49.0914 37.8572 48.5V46.3572C37.8572 45.7653 38.3369 45.2856 38.9288 45.2856C39.5203 45.2856 40 45.7653 40 46.3572C40 46.9486 40.4797 47.4284 41.0716 47.4284C41.6631 47.4284 42.1428 46.9486 42.1428 46.3572C42.1428 45.7653 42.6225 45.2856 43.2144 45.2856C43.8063 45.2856 44.2856 45.7653 44.2856 46.3572V48.5C44.2856 49.0914 44.7653 49.5712 45.3572 49.5712C45.9491 49.5712 46.4288 49.0914 46.4288 48.5V44.214C46.4288 43.6225 46.9081 43.1428 47.5 43.1428C48.0919 43.1428 48.5716 43.6225 48.5716 44.214C48.5716 44.8058 49.0514 45.2856 49.6428 45.2856C50.2347 45.2856 50.7144 44.8058 50.7144 44.214V33.5C50.7144 32.9081 50.2347 32.4284 49.6428 32.4284ZM22.5023 34.101C22.1595 33.9823 21.8894 33.6841 21.8894 33.3213V33.0944C21.8894 32.8157 21.6635 32.5898 21.3848 32.5898C21.1061 32.5898 20.8801 32.8157 20.8801 33.0944V33.288C20.8801 33.6499 20.6006 33.9432 20.2503 34.0342C20.0545 34.0851 19.8687 34.1517 19.6931 34.2338C19.2361 34.4454 18.8764 34.7459 18.614 35.1352C18.3559 35.5245 18.2268 35.9815 18.2268 36.5063C18.2268 37.0818 18.3474 37.5494 18.5886 37.9091C18.8341 38.2688 19.1705 38.5693 19.5979 38.8105C20.0295 39.0517 20.5268 39.2866 21.0896 39.5151C21.3562 39.6293 21.5699 39.7436 21.7307 39.8578C21.8915 39.9721 22.0079 40.1054 22.0798 40.2578C22.1518 40.4101 22.1877 40.6026 22.1877 40.8354C22.1877 41.0131 22.1539 41.176 22.0862 41.3242C22.0227 41.468 21.9233 41.5844 21.7878 41.6733C21.6524 41.7579 21.4768 41.8002 21.261 41.8002C21.1002 41.8002 20.9457 41.777 20.7976 41.7304C20.6495 41.6796 20.5162 41.5992 20.3977 41.4892C20.2834 41.3749 20.1925 41.2226 20.1248 41.0322C19.9913 40.6567 19.7001 40.3212 19.3016 40.3212H18.884C18.3317 40.3212 17.8593 40.7778 18.0007 41.3116C18.046 41.4826 18.1044 41.6412 18.176 41.7875C18.3707 42.1853 18.6309 42.5048 18.9568 42.746C19.2869 42.983 19.6508 43.1544 20.0486 43.2602C20.0851 43.2698 20.1217 43.279 20.1582 43.2877C20.4927 43.3677 20.7532 43.6516 20.7532 43.9955V44.1647C20.7532 44.4434 20.9791 44.6694 21.2578 44.6694C21.5365 44.6694 21.7625 44.4434 21.7625 44.1647V43.9989C21.7625 43.6552 22.0249 43.3748 22.3575 43.2882C22.5338 43.2423 22.7015 43.1843 22.8606 43.1142C23.3219 42.9111 23.6816 42.617 23.9397 42.2319C24.1978 41.8425 24.3269 41.3728 24.3269 40.8227C24.3269 40.2514 24.2021 39.7859 23.9524 39.4262C23.707 39.0623 23.3684 38.7555 22.9368 38.5058C22.5051 38.2561 22.0142 38.0149 21.4641 37.7822C21.1848 37.6552 20.9648 37.5325 20.804 37.414C20.6431 37.2913 20.5289 37.1601 20.4612 37.0204C20.3977 36.8766 20.366 36.7094 20.366 36.519C20.366 36.337 20.3956 36.172 20.4548 36.0239C20.5141 35.8758 20.6093 35.7573 20.7405 35.6684C20.8717 35.5753 21.043 35.5287 21.2546 35.5287C21.3943 35.5287 21.5234 35.5563 21.6418 35.6113C21.7603 35.662 21.864 35.7425 21.9529 35.8525C22.0417 35.9625 22.1095 36.1043 22.156 36.2778C22.2536 36.6111 22.5137 36.8998 22.861 36.8998H23.3713C23.9236 36.8998 24.3947 36.4422 24.2415 35.9116C24.2148 35.8193 24.1841 35.7297 24.1492 35.643C24.0011 35.2706 23.7895 34.9575 23.5144 34.7036C23.2393 34.4454 22.9135 34.2486 22.5369 34.1132C22.5254 34.1091 22.5138 34.105 22.5023 34.101ZM31.6033 34.101C31.2605 33.9823 30.9904 33.6841 30.9904 33.3213V33.0944C30.9904 32.8157 30.7645 32.5898 30.4858 32.5898C30.2071 32.5898 29.9811 32.8157 29.9811 33.0944V33.288C29.9811 33.6499 29.7016 33.9432 29.3514 34.0342C29.1555 34.0851 28.9698 34.1517 28.7941 34.2338C28.3371 34.4454 27.9774 34.7459 27.715 35.1352C27.4569 35.5245 27.3278 35.9815 27.3278 36.5063C27.3278 37.0818 27.4484 37.5494 27.6896 37.9091C27.9351 38.2688 28.2715 38.5693 28.6989 38.8105C29.1306 39.0517 29.6278 39.2866 30.1906 39.5151C30.4572 39.6293 30.6709 39.7436 30.8317 39.8578C30.9925 39.9721 31.1089 40.1054 31.1808 40.2578C31.2528 40.4101 31.2888 40.6026 31.2888 40.8354C31.2888 41.0131 31.2549 41.176 31.1872 41.3242C31.1237 41.468 31.0243 41.5844 30.8889 41.6733C30.7534 41.7579 30.5778 41.8002 30.362 41.8002C30.2012 41.8002 30.0467 41.777 29.8986 41.7304C29.7505 41.6796 29.6172 41.5992 29.4987 41.4892C29.3845 41.3749 29.2935 41.2226 29.2258 41.0322C29.0923 40.6567 28.8012 40.3212 28.4027 40.3212H27.985C27.4328 40.3212 26.9604 40.7778 27.1017 41.3116C27.147 41.4826 27.2054 41.6412 27.277 41.7875C27.4717 42.1853 27.732 42.5048 28.0578 42.746C28.3879 42.983 28.7518 43.1544 29.1496 43.2602C29.1861 43.2698 29.2227 43.279 29.2592 43.2877C29.5937 43.3677 29.8542 43.6516 29.8542 43.9955V44.1647C29.8542 44.4434 30.0801 44.6694 30.3588 44.6694C30.6375 44.6694 30.8635 44.4434 30.8635 44.1647V43.9989C30.8635 43.6552 31.1259 43.3748 31.4585 43.2882C31.6348 43.2423 31.8025 43.1843 31.9616 43.1142C32.4229 42.9111 32.7826 42.617 33.0407 42.2319C33.2989 41.8425 33.4279 41.3728 33.4279 40.8227C33.4279 40.2514 33.3031 39.7859 33.0534 39.4262C32.808 39.0623 32.4694 38.7555 32.0378 38.5058C31.6061 38.2561 31.1153 38.0149 30.5651 37.7822C30.2858 37.6552 30.0658 37.5325 29.905 37.414C29.7442 37.2913 29.6299 37.1601 29.5622 37.0204C29.4987 36.8766 29.467 36.7094 29.467 36.519C29.467 36.337 29.4966 36.172 29.5558 36.0239C29.6151 35.8758 29.7103 35.7573 29.8415 35.6684C29.9727 35.5753 30.1441 35.5287 30.3557 35.5287C30.4953 35.5287 30.6244 35.5563 30.7429 35.6113C30.8614 35.662 30.965 35.7425 31.0539 35.8525C31.1428 35.9625 31.2105 36.1043 31.257 36.2778C31.3546 36.6111 31.6147 36.8998 31.962 36.8998H32.4724C33.0246 36.8998 33.4957 36.4422 33.3425 35.9116C33.3158 35.8193 33.2851 35.7297 33.2502 35.643C33.1021 35.2706 32.8905 34.9575 32.6154 34.7036C32.3404 34.4454 32.0145 34.2486 31.6379 34.1132C31.6264 34.1091 31.6148 34.105 31.6033 34.101ZM40.7043 34.101C40.3615 33.9823 40.0914 33.6841 40.0914 33.3213V33.0944C40.0914 32.8157 39.8655 32.5898 39.5868 32.5898C39.3081 32.5898 39.0822 32.8157 39.0822 33.0944V33.288C39.0822 33.6499 38.8026 33.9432 38.4524 34.0342C38.2565 34.0851 38.0708 34.1517 37.8951 34.2338C37.4381 34.4454 37.0784 34.7459 36.816 35.1352C36.5579 35.5245 36.4288 35.9815 36.4288 36.5063C36.4288 37.0818 36.5494 37.5494 36.7907 37.9091C37.0361 38.2688 37.3725 38.5693 37.7999 38.8105C38.2316 39.0517 38.7288 39.2866 39.2916 39.5151C39.5582 39.6293 39.7719 39.7436 39.9327 39.8578C40.0936 39.9721 40.2099 40.1054 40.2819 40.2578C40.3538 40.4101 40.3898 40.6026 40.3898 40.8354C40.3898 41.0131 40.3559 41.176 40.2882 41.3242C40.2247 41.468 40.1253 41.5844 39.9899 41.6733C39.8545 41.7579 39.6788 41.8002 39.463 41.8002C39.3022 41.8002 39.1478 41.777 38.9996 41.7304C38.8515 41.6796 38.7182 41.5992 38.5997 41.4892C38.4855 41.3749 38.3945 41.2226 38.3268 41.0322C38.1933 40.6567 37.9022 40.3212 37.5037 40.3212H37.0861C36.5338 40.3212 36.0614 40.7778 36.2028 41.3116C36.248 41.4826 36.3065 41.6412 36.3781 41.7875C36.5727 42.1853 36.833 42.5048 37.1588 42.746C37.4889 42.983 37.8528 43.1544 38.2506 43.2602C38.2871 43.2698 38.3237 43.279 38.3602 43.2877C38.6947 43.3677 38.9552 43.6516 38.9552 43.9955V44.1647C38.9552 44.4434 39.1811 44.6694 39.4598 44.6694C39.7385 44.6694 39.9645 44.4434 39.9645 44.1647V43.9989C39.9645 43.6552 40.2269 43.3748 40.5595 43.2882C40.7358 43.2423 40.9035 43.1843 41.0626 43.1142C41.5239 42.9111 41.8836 42.617 42.1417 42.2319C42.3999 41.8425 42.5289 41.3728 42.5289 40.8227C42.5289 40.2514 42.4041 39.7859 42.1544 39.4262C41.909 39.0623 41.5704 38.7555 41.1388 38.5058C40.7072 38.2561 40.2163 38.0149 39.6661 37.7822C39.3868 37.6552 39.1668 37.5325 39.006 37.414C38.8452 37.2913 38.7309 37.1601 38.6632 37.0204C38.5997 36.8766 38.568 36.7094 38.568 36.519C38.568 36.337 38.5976 36.172 38.6569 36.0239C38.7161 35.8758 38.8113 35.7573 38.9425 35.6684C39.0737 35.5753 39.2451 35.5287 39.4567 35.5287C39.5963 35.5287 39.7254 35.5563 39.8439 35.6113C39.9624 35.662 40.066 35.7425 40.1549 35.8525C40.2438 35.9625 40.3115 36.1043 40.358 36.2778C40.4556 36.6111 40.7157 36.8998 41.063 36.8998H41.5734C42.1257 36.8998 42.5968 36.4422 42.4435 35.9116C42.4169 35.8193 42.3861 35.7297 42.3512 35.643C42.2031 35.2706 41.9915 34.9575 41.7164 34.7036C41.4414 34.4454 41.1155 34.2486 40.7389 34.1132C40.7274 34.1091 40.7159 34.105 40.7043 34.101ZM50.2256 12.0668C50.6067 12.1222 50.8773 12.3143 50.9682 12.594C51.059 12.8737 50.953 13.1883 50.6774 13.457L48.8065 15.2806C48.5708 15.5104 48.4633 15.8414 48.5189 16.1658L48.9606 18.7409C49.0285 19.1365 48.9128 19.3736 48.8039 19.5028C48.6761 19.6544 48.4896 19.7379 48.279 19.7379C48.1205 19.7379 47.9519 19.6916 47.778 19.6001L45.4653 18.3843C45.174 18.2311 44.826 18.2311 44.5347 18.3843L42.2222 19.6C42.0482 19.6915 41.8796 19.7379 41.7211 19.7379C41.5105 19.7379 41.3241 19.6544 41.1963 19.5028C41.0873 19.3735 40.9717 19.1365 41.0395 18.7409L41.4813 16.1658C41.5369 15.8414 41.4294 15.5104 41.1936 15.2806L39.3227 13.457C39.047 13.1883 38.9409 12.8737 39.0318 12.594C39.1226 12.3143 39.3933 12.1222 39.7744 12.0668L42.36 11.691C42.6857 11.6437 42.9673 11.4391 43.1129 11.144L44.2691 8.80127C44.4395 8.45594 44.7059 8.25782 45 8.25782C45.2941 8.25782 45.5605 8.45594 45.7309 8.80118L46.8872 11.144C47.0329 11.4391 47.3144 11.6437 47.6401 11.691L50.2256 12.0668ZM35.9682 12.594C35.8773 12.3143 35.6067 12.1222 35.2256 12.0668L32.6401 11.691C32.3144 11.6437 32.0329 11.4391 31.8872 11.144L30.7309 8.80118C30.5605 8.45594 30.2941 8.25782 30 8.25782C29.7059 8.25782 29.4395 8.45594 29.2691 8.80127L28.1129 11.144C27.9673 11.4391 27.6857 11.6437 27.36 11.691L24.7744 12.0668C24.3933 12.1222 24.1226 12.3143 24.0318 12.594C23.9409 12.8737 24.047 13.1883 24.3227 13.457L26.1937 15.2806C26.4294 15.5104 26.5369 15.8414 26.4813 16.1658L26.0395 18.7409C25.9717 19.1365 26.0873 19.3735 26.1963 19.5028C26.3241 19.6544 26.5105 19.7379 26.7211 19.7379C26.8796 19.7379 27.0482 19.6915 27.2222 19.6L29.5347 18.3843C29.826 18.2311 30.174 18.2311 30.4653 18.3843L32.778 19.6001C32.9519 19.6916 33.1205 19.7379 33.279 19.7379C33.4896 19.7379 33.6761 19.6544 33.8039 19.5028C33.9128 19.3736 34.0285 19.1365 33.9606 18.7409L33.5189 16.1658C33.4633 15.8414 33.5708 15.5104 33.8065 15.2806L35.6774 13.457C35.953 13.1883 36.059 12.8737 35.9682 12.594ZM20.2256 12.0668C20.6067 12.1222 20.8773 12.3143 20.9682 12.594C21.059 12.8737 20.953 13.1883 20.6774 13.457L18.8065 15.2806C18.5708 15.5104 18.4633 15.8414 18.5189 16.1658L18.9606 18.7409C19.0285 19.1365 18.9128 19.3736 18.8039 19.5028C18.6761 19.6544 18.4896 19.7379 18.2791 19.7379C18.1206 19.7379 17.9519 19.6916 17.778 19.6001L15.4653 18.3843C15.174 18.2311 14.826 18.2311 14.5347 18.3843L12.2222 19.6C12.0482 19.6915 11.8796 19.7379 11.7211 19.7379C11.5105 19.7379 11.3241 19.6544 11.1963 19.5028C11.0873 19.3735 10.9717 19.1365 11.0395 18.7409L11.4813 16.1658C11.5369 15.8414 11.4294 15.5104 11.1937 15.2806L9.32272 13.457C9.04696 13.1883 8.94095 12.8737 9.03177 12.594C9.12259 12.3143 9.39331 12.1222 9.77444 12.0668L12.36 11.691C12.6857 11.6437 12.9673 11.4391 13.1129 11.144L14.2691 8.80127C14.4395 8.45594 14.7059 8.25782 15 8.25782C15.2941 8.25782 15.5605 8.45594 15.7309 8.80118L16.8872 11.144C17.0329 11.4391 17.3144 11.6437 17.6401 11.691L20.2256 12.0668Z" fill="url(#paint0_linear_1116_730)"/>
</g>
<defs>
<linearGradient id="paint0_linear_1116_730" x1="30" y1="-3.5849e-07" x2="41.9696" y2="57.5087" gradientUnits="userSpaceOnUse">
<stop stop-color="#06AC06"/>
<stop offset="1" stop-color="#005085"/>
</linearGradient>
<clipPath id="clip0_1116_730">
<rect width="60" height="60" fill="white"/>
</clipPath>
</defs>
</svg>
