<svg width="45" height="17" viewBox="0 0 45 17" fill="none" xmlns="http://www.w3.org/2000/svg"><path d="M44.3444 1.48806L39.2285 13.9126C39.1723 14.0614 39.1348 14.2288 39.0973 14.359C39.0599 14.5078 39.0411 14.6379 39.0224 14.7867C39.0224 15.1773 39.266 15.5307 39.622 15.6795V15.7725H36.1553L41.421 3.31081C40.8776 3.18062 40.3154 3.08762 39.772 3.01322C39.2847 2.93882 38.7975 2.90162 38.3103 2.90162C36.7362 2.90162 35.4619 3.29222 34.4875 4.0548H34.375L35.312 1.46946L44.3444 1.48806ZM33.9628 1.48806L28.8469 13.9126C28.7907 14.0614 28.7532 14.2288 28.7157 14.359C28.6783 14.5078 28.6595 14.6379 28.6408 14.7867C28.6408 15.1773 28.8844 15.5307 29.2404 15.6795V15.7725H25.7549L31.0207 3.31081C30.4772 3.18062 29.9151 3.08762 29.3716 3.01322C28.8844 2.93882 28.3972 2.90162 27.9099 2.90162C26.3358 2.90162 25.0616 3.29222 24.0871 4.0548H24.0122L24.9491 1.46946L33.9628 1.48806ZM23.5812 1.48806L18.4653 13.9126C18.4091 14.0614 18.3716 14.2288 18.3341 14.359C18.2967 14.5078 18.2779 14.6379 18.2592 14.7867C18.2592 15.1773 18.5028 15.5307 18.8588 15.6795V15.7725H15.3921L20.6578 3.31081C20.1144 3.18062 19.5522 3.08762 19.0088 3.01322C18.5215 2.93882 18.0343 2.90162 17.5471 2.90162C15.973 2.90162 14.6987 3.29222 13.7243 4.0548H13.6493L14.5863 1.46946L23.5812 1.48806ZM6.71574 1.48806C7.89632 1.48806 8.8895 1.74845 9.6953 2.26924C10.4823 2.75283 10.9508 3.62701 10.9134 4.53839V4.66858C10.9134 5.98915 10.22 6.91913 8.85203 7.42132C9.43295 7.53292 9.97639 7.73751 10.4636 8.0537C10.8946 8.3141 11.2694 8.63029 11.5692 9.02088C11.7004 9.18828 11.8128 9.37427 11.9065 9.57887C12.0002 9.78346 12.0939 10.0253 12.1314 10.2485C12.2251 10.5646 12.2626 10.8808 12.2626 11.197V11.5876C12.1314 12.9454 11.5505 13.9684 10.4823 14.6937C9.41421 15.4191 8.06497 15.7725 6.39717 15.7725H1.56242C1.86225 15.5493 2.1246 15.2703 2.31199 14.9541C2.44317 14.7123 2.49938 14.2288 2.49938 13.4848V3.70141C2.49938 2.58543 2.18082 1.82285 1.56242 1.46946H6.71574V1.48806ZM5.42272 7.25392H6.19104C6.97809 7.27252 7.76514 7.06793 8.43976 6.65874C9.0769 6.24955 9.39547 5.71016 9.39547 5.02198V4.98478C9.39547 4.24079 9.13312 3.66421 8.60841 3.29222C8.13993 2.97602 7.59649 2.80863 7.03431 2.80863H6.82818L5.40398 2.97602V7.25392H5.42272ZM7.69019 14.2288C8.43976 14.266 9.17059 14.0242 9.77025 13.5592C10.3887 13.057 10.726 12.313 10.7072 11.5318C10.726 10.639 10.3137 9.80206 9.58286 9.29987C8.87076 8.81629 8.04623 8.55589 7.18422 8.57449H6.97809L5.42272 8.66749V14.0428L7.24044 14.2102L7.69019 14.2288ZM44.3444 0.930071H35.312C35.0684 0.930071 34.8622 1.07887 34.7873 1.30206L33.8503 3.8874C33.7941 4.0548 33.8128 4.24079 33.9253 4.38959C34.0377 4.53839 34.2064 4.63138 34.3938 4.63138H34.4687C34.5999 4.63138 34.7311 4.59419 34.8248 4.50119C35.6868 3.813 36.8674 3.45961 38.3103 3.45961C38.7788 3.45961 39.2473 3.49681 39.697 3.57121C40.0156 3.60841 40.3154 3.66421 40.634 3.72001L35.6306 15.5493C35.5556 15.7167 35.5743 15.9213 35.6868 16.0701C35.7992 16.2189 35.9679 16.3119 36.1553 16.3119H39.622C39.9406 16.3119 40.1842 16.0701 40.1842 15.7539V15.6609C40.1842 15.4377 40.053 15.2331 39.8469 15.1587C39.697 15.1029 39.6033 14.9541 39.6033 14.7867C39.622 14.6751 39.6408 14.5821 39.6595 14.4706L39.772 14.08L44.8878 1.65545C44.9628 1.48806 44.944 1.28346 44.8316 1.13467C44.7004 1.00447 44.5318 0.930071 44.3444 0.930071ZM33.9628 0.930071H24.9304C24.6868 0.930071 24.4806 1.07887 24.4057 1.30206L23.4687 3.8874C23.4125 4.0548 23.4312 4.24079 23.5437 4.38959C23.6561 4.53839 23.8248 4.63138 24.0122 4.63138H24.0871C24.2183 4.63138 24.3495 4.59419 24.4432 4.50119C25.3052 3.813 26.4858 3.45961 27.9287 3.45961C28.3972 3.45961 28.8657 3.49681 29.3154 3.57121C29.634 3.60841 29.9338 3.66421 30.2524 3.72001L25.249 15.5493C25.174 15.7167 25.1927 15.9213 25.3052 16.0701C25.4176 16.2189 25.5863 16.3119 25.7737 16.3119H29.2404C29.559 16.3119 29.8026 16.0701 29.8026 15.7539V15.6609C29.8026 15.4377 29.6714 15.2331 29.4653 15.1587C29.3154 15.1029 29.2217 14.9541 29.2217 14.7867C29.2404 14.6751 29.2592 14.5821 29.2779 14.4706L29.3904 14.08L34.5062 1.65545C34.5812 1.48806 34.5624 1.28346 34.45 1.13467C34.3188 1.00447 34.1502 0.930071 33.9628 0.930071ZM23.5812 0.930071H14.5488C14.3052 0.930071 14.099 1.07887 14.0241 1.30206L13.0871 3.8874C13.0309 4.0548 13.0496 4.24079 13.1621 4.38959C13.2745 4.53839 13.4432 4.63138 13.6306 4.63138H13.7055C13.8367 4.63138 13.9679 4.59419 14.0616 4.50119C14.9236 3.813 16.1042 3.45961 17.5471 3.45961C18.0156 3.45961 18.4841 3.49681 18.9338 3.57121C19.2524 3.60841 19.5522 3.66421 19.8708 3.72001L14.8674 15.5493C14.7924 15.7167 14.8111 15.9213 14.9236 16.0701C15.036 16.2189 15.2047 16.3119 15.3921 16.3119H18.8588C19.1774 16.3119 19.421 16.0701 19.421 15.7539V15.6609C19.421 15.4377 19.2898 15.2331 19.0837 15.1587C18.9338 15.1029 18.8401 14.9541 18.8401 14.7867C18.8588 14.6751 18.8776 14.5821 18.8963 14.4706L19.0088 14.08L24.1246 1.65545C24.1996 1.48806 24.1808 1.28346 24.0684 1.13467C23.9372 1.00447 23.7686 0.930071 23.5812 0.930071ZM6.71574 0.930071H1.56242C1.31881 0.930071 1.09393 1.09747 1.01898 1.33926C0.944018 1.58106 1.05645 1.84145 1.28133 1.97165C1.73107 2.23204 1.9372 2.82723 1.9372 3.72001V13.5034C1.9372 14.4148 1.82477 14.6751 1.80603 14.7123C1.65611 14.9541 1.44998 15.1773 1.20637 15.3447C1.01898 15.4935 0.944018 15.7353 1.03772 15.9585C1.11267 16.1817 1.31881 16.3305 1.56242 16.3305H6.39717C8.15867 16.3305 9.63908 15.9399 10.8009 15.1401C12.0002 14.3218 12.6749 13.1314 12.8248 11.6248V11.1784C12.8248 10.8064 12.7685 10.4344 12.6749 10.0811C12.5999 9.82066 12.5249 9.56027 12.4125 9.31847C12.3001 9.09528 12.1689 8.87208 12.019 8.66749C11.6629 8.2211 11.2319 7.83051 10.7447 7.55152C10.576 7.43992 10.4074 7.34692 10.22 7.27252C11.0445 6.64014 11.4568 5.74736 11.4568 4.63138V4.50119C11.4943 3.38521 10.9321 2.34364 9.97639 1.76705C8.9832 1.19046 7.85884 0.911472 6.71574 0.930071ZM6.88439 3.34801H7.07179C7.52153 3.34801 7.95254 3.47821 8.32732 3.72001C8.70211 3.999 8.87076 4.38959 8.87076 4.96618V5.00338C8.87076 5.48696 8.60841 5.95195 8.17741 6.17515C7.57775 6.52854 6.90313 6.71454 6.20978 6.69594H6.00364V3.45961L6.88439 3.34801ZM6.99683 9.13248H7.18422C7.91506 9.11388 8.64589 9.33707 9.24555 9.76486C9.82647 10.1741 10.145 10.8436 10.1263 11.5504C10.145 12.1642 9.88269 12.7594 9.39547 13.15C8.90824 13.522 8.30858 13.708 7.69019 13.6894L7.27792 13.6708L5.9849 13.5592V9.20688L6.99683 9.13248Z" fill="black"/><path d="M36.1178 15.698C35.9679 15.698 35.8368 15.5678 35.8555 15.4004C35.8555 15.3632 35.8742 15.326 35.8742 15.3074L41.0088 3.16186C40.5778 3.06886 40.1468 2.99446 39.7158 2.93866C39.2473 2.86427 38.7601 2.82707 38.2916 2.82707C36.7925 2.82707 35.5557 3.19906 34.6374 3.92444C34.5812 3.96164 34.525 3.98024 34.4688 3.98024H34.3751C34.2814 3.98024 34.2064 3.94304 34.1502 3.86864C34.094 3.79424 34.094 3.70125 34.1127 3.60825L35.0497 1.02291C35.0872 0.911312 35.1996 0.836914 35.3121 0.836914H44.3444C44.4381 0.836914 44.5318 0.874113 44.5693 0.967111C44.6068 1.04151 44.6255 1.13451 44.588 1.2275L39.4722 13.652C39.4347 13.7822 39.3972 13.931 39.3598 14.0612C39.3223 14.1914 39.3035 14.303 39.2848 14.4332C39.2848 14.7122 39.4534 14.954 39.7158 15.0656C39.8095 15.1214 39.8845 15.2144 39.8845 15.326V15.419C39.8845 15.5678 39.7533 15.698 39.6034 15.698H36.1178ZM25.755 15.698C25.6051 15.698 25.4739 15.5678 25.4926 15.4004C25.4926 15.3632 25.5114 15.326 25.5114 15.3074L30.646 3.16186C30.2149 3.06886 29.7839 2.99446 29.3529 2.93866C28.8845 2.86427 28.3972 2.82707 27.9287 2.82707C26.4296 2.82707 25.1928 3.19906 24.2746 3.92444C24.2184 3.96164 24.1621 3.98024 24.1059 3.98024H24.031C23.9373 3.98024 23.8623 3.94304 23.8061 3.86864C23.7499 3.79424 23.7499 3.70125 23.7686 3.60825L24.7056 1.02291C24.7431 0.911312 24.8555 0.836914 24.9679 0.836914H34.0003C34.094 0.836914 34.1877 0.874113 34.2252 0.967111C34.2626 1.04151 34.2814 1.13451 34.2439 1.2275L29.1281 13.652C29.0906 13.7822 29.0531 13.931 29.0156 14.0612C28.9782 14.1914 28.9594 14.303 28.9407 14.4332C28.9407 14.7122 29.1093 14.954 29.3717 15.0656C29.4654 15.1214 29.5403 15.2144 29.5403 15.326V15.419C29.5403 15.5678 29.4092 15.698 29.2592 15.698H25.755ZM15.3734 15.698C15.2235 15.698 15.0923 15.5678 15.111 15.4004C15.111 15.3632 15.1298 15.326 15.1298 15.3074L20.2644 3.16186C19.8333 3.06886 19.4023 2.99446 18.9713 2.93866C18.5029 2.86427 18.0156 2.82707 17.5471 2.82707C16.048 2.82707 14.8112 3.19906 13.893 3.92444C13.8368 3.96164 13.7805 3.98024 13.7243 3.98024H13.6494C13.5557 3.98024 13.4807 3.94304 13.4245 3.86864C13.3683 3.79424 13.3683 3.70125 13.387 3.60825L14.324 1.02291C14.3615 0.911312 14.4739 0.836914 14.5863 0.836914H23.6187C23.7124 0.836914 23.8061 0.874113 23.8436 0.967111C23.881 1.04151 23.8998 1.13451 23.8623 1.2275L18.7465 13.652C18.709 13.7822 18.6715 13.931 18.634 14.0612C18.5965 14.1914 18.5778 14.303 18.5591 14.4332C18.5591 14.7122 18.7277 14.954 18.9901 15.0656C19.0838 15.1214 19.1587 15.2144 19.1587 15.326V15.419C19.1587 15.5678 19.0276 15.698 18.8776 15.698H15.3734ZM1.56248 15.698C1.45004 15.698 1.33761 15.6236 1.30013 15.512C1.26265 15.4004 1.30013 15.2702 1.39383 15.1958C1.65618 14.9912 1.88105 14.7494 2.06844 14.4704C2.12466 14.3588 2.2371 14.024 2.2371 13.1312V3.34786C2.2371 2.34348 1.97475 1.65529 1.4313 1.3577C1.31887 1.3019 1.26265 1.17171 1.30013 1.04151C1.33761 0.929912 1.4313 0.836914 1.56248 0.836914H6.7158C7.9526 0.836914 9.002 1.11591 9.84527 1.67389C10.726 2.19468 11.232 3.16186 11.1945 4.16624V4.29643C11.232 5.41241 10.6323 6.45398 9.65788 6.99337C9.99519 7.12357 10.3138 7.27236 10.6136 7.45836C11.0633 7.71875 11.4756 8.07214 11.7942 8.49994C11.9441 8.68593 12.0565 8.89053 12.1502 9.11372C12.2626 9.33692 12.3376 9.57871 12.3938 9.8205C12.4875 10.1553 12.5437 10.4901 12.5437 10.8435V11.2527C12.4126 12.6848 11.7754 13.8008 10.6511 14.5634C9.5267 15.326 8.12125 15.698 6.41597 15.698H1.56248ZM7.27798 13.559L7.70899 13.5776C8.3836 13.5962 9.03948 13.3916 9.58292 12.9824C10.1264 12.5546 10.4449 11.8851 10.4262 11.1783C10.4449 10.3785 10.0701 9.63451 9.41427 9.16952C8.75839 8.72313 7.97134 8.48134 7.18429 8.49994H6.99689L5.72262 8.57433V13.4102L7.27798 13.559ZM6.20984 6.60278C6.95941 6.62138 7.69025 6.41678 8.32738 6.04479C8.88957 5.6914 9.15192 5.24501 9.15192 4.63123V4.59403C9.15192 3.92444 8.92704 3.44085 8.4773 3.12466C8.06503 2.84567 7.57781 2.69687 7.07185 2.69687H6.86572L5.70388 2.82707V6.58418L6.20984 6.60278Z" fill="white"/><path d="M44.3444 1.11599L39.2285 13.5405C39.1723 13.6893 39.1348 13.8567 39.0973 13.9869C39.0599 14.1357 39.0411 14.2659 39.0224 14.4147C39.0224 14.8053 39.266 15.1587 39.622 15.3075V15.4005H36.1553L41.421 2.93874C40.8776 2.80855 40.3154 2.71555 39.772 2.64115C39.2847 2.56675 38.7975 2.52955 38.3103 2.52955C36.7362 2.52955 35.4619 2.92015 34.4875 3.68273H34.375L35.312 1.09739L44.3444 1.11599ZM33.9628 1.11599L28.8469 13.5405C28.7907 13.6893 28.7532 13.8567 28.7157 13.9869C28.6783 14.1357 28.6595 14.2659 28.6408 14.4147C28.6408 14.8053 28.8844 15.1587 29.2404 15.3075V15.4005H25.7549L31.0207 2.93874C30.4772 2.80855 29.9151 2.71555 29.3716 2.64115C28.8844 2.56675 28.3972 2.52955 27.9099 2.52955C26.3358 2.52955 25.0616 2.92015 24.0871 3.68273H24.0122L24.9491 1.09739L33.9628 1.11599ZM23.5812 1.11599L18.4653 13.5405C18.4091 13.6893 18.3716 13.8567 18.3341 13.9869C18.2967 14.1357 18.2779 14.2659 18.2592 14.4147C18.2592 14.8053 18.5028 15.1587 18.8588 15.3075V15.4005H15.3921L20.6578 2.93874C20.1144 2.80855 19.5522 2.71555 19.0088 2.64115C18.5215 2.56675 18.0343 2.52955 17.5471 2.52955C15.973 2.52955 14.6987 2.92015 13.7243 3.68273H13.6493L14.5863 1.09739L23.5812 1.11599ZM6.71574 1.11599C7.89632 1.11599 8.8895 1.37638 9.6953 1.89717C10.4823 2.38076 10.9508 3.25494 10.9134 4.16632V4.29651C10.9134 5.61708 10.22 6.54706 8.85203 7.04925C9.43295 7.16085 9.97639 7.36544 10.4636 7.68163C10.8946 7.94203 11.2694 8.25822 11.5692 8.64881C11.7004 8.81621 11.8128 9.0022 11.9065 9.2068C12.0002 9.41139 12.0939 9.65319 12.1314 9.87638C12.2251 10.1926 12.2626 10.5088 12.2626 10.825V11.2156C12.1314 12.5733 11.5505 13.5963 10.4823 14.3217C9.41421 15.0471 8.06497 15.4005 6.39717 15.4005H1.56242C1.86225 15.1773 2.1246 14.8983 2.31199 14.5821C2.44317 14.3403 2.49938 13.8567 2.49938 13.1127V3.32934C2.49938 2.21336 2.18082 1.45078 1.56242 1.09739H6.71574V1.11599ZM5.42272 6.88185H6.19104C6.97809 6.90045 7.76514 6.69586 8.43976 6.28667C9.0769 5.87748 9.39547 5.33809 9.39547 4.6499V4.61271C9.39547 3.86872 9.13312 3.29214 8.60841 2.92015C8.13993 2.60395 7.59649 2.43656 7.03431 2.43656H6.82818L5.40398 2.60395V6.88185H5.42272ZM7.69019 13.8567C8.43976 13.8939 9.17059 13.6521 9.77025 13.1871C10.3887 12.6849 10.726 11.9409 10.7072 11.1598C10.726 10.267 10.3137 9.42999 9.58286 8.9278C8.87076 8.44422 8.04623 8.18382 7.18422 8.20242H6.97809L5.42272 8.29542V13.6707L7.24044 13.8381L7.69019 13.8567ZM44.3444 0.558001H35.312C35.0684 0.558001 34.8622 0.706797 34.7873 0.929992L33.8503 3.51533C33.7941 3.68273 33.8128 3.86872 33.9253 4.01752C34.0377 4.16632 34.2064 4.25931 34.3938 4.25931H34.4687C34.5999 4.25931 34.7311 4.22211 34.8248 4.12912C35.6868 3.44093 36.8674 3.08754 38.3103 3.08754C38.7788 3.08754 39.2473 3.12474 39.697 3.19914C40.0156 3.23634 40.3154 3.29214 40.634 3.34793L35.6306 15.1773C35.5556 15.3447 35.5743 15.5492 35.6868 15.698C35.7992 15.8468 35.9679 15.9398 36.1553 15.9398H39.622C39.9406 15.9398 40.1842 15.698 40.1842 15.3819V15.2889C40.1842 15.0657 40.053 14.8611 39.8469 14.7867C39.697 14.7309 39.6033 14.5821 39.6033 14.4147C39.622 14.3031 39.6408 14.2101 39.6595 14.0985L39.772 13.7079L44.8878 1.28338C44.9628 1.11599 44.944 0.911392 44.8316 0.762596C44.7004 0.632399 44.5318 0.558001 44.3444 0.558001ZM33.9628 0.558001H24.9304C24.6868 0.558001 24.4806 0.706797 24.4057 0.929992L23.4687 3.51533C23.4125 3.68273 23.4312 3.86872 23.5437 4.01752C23.6561 4.16632 23.8248 4.25931 24.0122 4.25931H24.0871C24.2183 4.25931 24.3495 4.22211 24.4432 4.12912C25.3052 3.44093 26.4858 3.08754 27.9287 3.08754C28.3972 3.08754 28.8657 3.12474 29.3154 3.19914C29.634 3.23634 29.9338 3.29214 30.2524 3.34793L25.249 15.1773C25.174 15.3447 25.1927 15.5492 25.3052 15.698C25.4176 15.8468 25.5863 15.9398 25.7737 15.9398H29.2404C29.559 15.9398 29.8026 15.698 29.8026 15.3819V15.2889C29.8026 15.0657 29.6714 14.8611 29.4653 14.7867C29.3154 14.7309 29.2217 14.5821 29.2217 14.4147C29.2404 14.3031 29.2592 14.2101 29.2779 14.0985L29.3904 13.7079L34.5062 1.28338C34.5812 1.11599 34.5624 0.911392 34.45 0.762596C34.3188 0.632399 34.1502 0.558001 33.9628 0.558001ZM23.5812 0.558001H14.5488C14.3052 0.558001 14.099 0.706797 14.0241 0.929992L13.0871 3.51533C13.0309 3.68273 13.0496 3.86872 13.1621 4.01752C13.2745 4.16632 13.4432 4.25931 13.6306 4.25931H13.7055C13.8367 4.25931 13.9679 4.22211 14.0616 4.12912C14.9236 3.44093 16.1042 3.08754 17.5471 3.08754C18.0156 3.08754 18.4841 3.12474 18.9338 3.19914C19.2524 3.23634 19.5522 3.29214 19.8708 3.34793L14.8674 15.1773C14.7924 15.3447 14.8111 15.5492 14.9236 15.698C15.036 15.8468 15.2047 15.9398 15.3921 15.9398H18.8588C19.1774 15.9398 19.421 15.698 19.421 15.3819V15.2889C19.421 15.0657 19.2898 14.8611 19.0837 14.7867C18.9338 14.7309 18.8401 14.5821 18.8401 14.4147C18.8588 14.3031 18.8776 14.2101 18.8963 14.0985L19.0088 13.7079L24.1246 1.28338C24.1996 1.11599 24.1808 0.911392 24.0684 0.762596C23.9372 0.632399 23.7686 0.558001 23.5812 0.558001ZM6.71574 0.558001H1.56242C1.31881 0.558001 1.09393 0.725397 1.01898 0.967191C0.944018 1.20899 1.05645 1.46938 1.28133 1.59958C1.73107 1.85997 1.9372 2.45516 1.9372 3.34793V13.1313C1.9372 14.0427 1.82477 14.3031 1.80603 14.3403C1.65611 14.5821 1.44998 14.8053 1.20637 14.9727C1.01898 15.1215 0.944018 15.3633 1.03772 15.5864C1.11267 15.8096 1.31881 15.9584 1.56242 15.9584H6.39717C8.15867 15.9584 9.63908 15.5678 10.8009 14.7681C12.0002 13.9497 12.6749 12.7593 12.8248 11.2527V10.8064C12.8248 10.4344 12.7685 10.0624 12.6749 9.70899C12.5999 9.44859 12.5249 9.1882 12.4125 8.9464C12.3001 8.72321 12.1689 8.50001 12.019 8.29542C11.6629 7.84903 11.2319 7.45844 10.7447 7.17944C10.576 7.06785 10.4074 6.97485 10.22 6.90045C11.0445 6.26807 11.4568 5.37529 11.4568 4.25931V4.12912C11.4943 3.01314 10.9321 1.97157 9.97639 1.39498C8.9832 0.818395 7.85884 0.539401 6.71574 0.558001ZM6.88439 2.97594H7.07179C7.52153 2.97594 7.95254 3.10614 8.32732 3.34793C8.70211 3.62693 8.87076 4.01752 8.87076 4.59411V4.63131C8.87076 5.11489 8.60841 5.57988 8.17741 5.80308C7.57775 6.15647 6.90313 6.34246 6.20978 6.32387H6.00364V3.08754L6.88439 2.97594ZM6.99683 8.76041H7.18422C7.91506 8.74181 8.64589 8.965 9.24555 9.39279C9.82647 9.80198 10.145 10.4716 10.1263 11.1784C10.145 11.7921 9.88269 12.3873 9.39547 12.7779C8.90824 13.1499 8.30858 13.3359 7.69019 13.3173L7.27792 13.2987L5.9849 13.1871V8.83481L6.99683 8.76041Z" fill="black"/><path d="M36.1178 15.5119C35.9679 15.5119 35.8368 15.3817 35.8555 15.2143C35.8555 15.1771 35.8742 15.1399 35.8742 15.1213L41.0088 2.97582C40.5778 2.88283 40.1468 2.80843 39.7158 2.75263C39.2473 2.67823 38.7601 2.64103 38.2916 2.64103C36.7925 2.64103 35.5557 3.01302 34.6374 3.73841C34.5812 3.77561 34.525 3.7942 34.4688 3.7942H34.3751C34.2814 3.7942 34.2064 3.75701 34.1502 3.68261C34.094 3.60821 34.094 3.51521 34.1127 3.42221L35.0497 0.836875C35.0872 0.725277 35.1996 0.650879 35.3121 0.650879H44.3444C44.4381 0.650879 44.5318 0.688078 44.5693 0.781076C44.6068 0.855474 44.6255 0.948472 44.588 1.04147L39.4722 13.466C39.4347 13.5962 39.3972 13.745 39.3598 13.8752C39.3223 14.0054 39.3035 14.117 39.2848 14.2472C39.2848 14.5262 39.4534 14.7679 39.7158 14.8795C39.8095 14.9353 39.8845 15.0283 39.8845 15.1399V15.2329C39.8845 15.3817 39.7533 15.5119 39.6034 15.5119H36.1178ZM25.755 15.5119C25.6051 15.5119 25.4739 15.3817 25.4926 15.2143C25.4926 15.1771 25.5114 15.1399 25.5114 15.1213L30.646 2.97582C30.2149 2.88283 29.7839 2.80843 29.3529 2.75263C28.8845 2.67823 28.3972 2.64103 27.9287 2.64103C26.4296 2.64103 25.1928 3.01302 24.2746 3.73841C24.2184 3.77561 24.1621 3.7942 24.1059 3.7942H24.031C23.9373 3.7942 23.8623 3.75701 23.8061 3.68261C23.7499 3.60821 23.7499 3.51521 23.7686 3.42221L24.7056 0.836875C24.7431 0.725277 24.8555 0.650879 24.9679 0.650879H34.0003C34.094 0.650879 34.1877 0.688078 34.2252 0.781076C34.2626 0.855474 34.2814 0.948472 34.2439 1.04147L29.1281 13.466C29.0906 13.5962 29.0531 13.745 29.0156 13.8752C28.9782 14.0054 28.9594 14.117 28.9407 14.2472C28.9407 14.5262 29.1093 14.7679 29.3717 14.8795C29.4654 14.9353 29.5403 15.0283 29.5403 15.1399V15.2329C29.5403 15.3817 29.4092 15.5119 29.2592 15.5119H25.755ZM15.3734 15.5119C15.2235 15.5119 15.0923 15.3817 15.111 15.2143C15.111 15.1771 15.1298 15.1399 15.1298 15.1213L20.2644 2.97582C19.8333 2.88283 19.4023 2.80843 18.9713 2.75263C18.5029 2.67823 18.0156 2.64103 17.5471 2.64103C16.048 2.64103 14.8112 3.01302 13.893 3.73841C13.8368 3.77561 13.7805 3.7942 13.7243 3.7942H13.6494C13.5557 3.7942 13.4807 3.75701 13.4245 3.68261C13.3683 3.60821 13.3683 3.51521 13.387 3.42221L14.324 0.836875C14.3615 0.725277 14.4739 0.650879 14.5863 0.650879H23.6187C23.7124 0.650879 23.8061 0.688078 23.8436 0.781076C23.881 0.855474 23.8998 0.948472 23.8623 1.04147L18.7465 13.466C18.709 13.5962 18.6715 13.745 18.634 13.8752C18.5965 14.0054 18.5778 14.117 18.5591 14.2472C18.5591 14.5262 18.7277 14.7679 18.9901 14.8795C19.0838 14.9353 19.1587 15.0283 19.1587 15.1399V15.2329C19.1587 15.3817 19.0276 15.5119 18.8776 15.5119H15.3734ZM1.56248 15.5119C1.45004 15.5119 1.33761 15.4375 1.30013 15.3259C1.26265 15.2143 1.30013 15.0841 1.39383 15.0097C1.65618 14.8051 1.88105 14.5634 2.06844 14.2844C2.12466 14.1728 2.2371 13.838 2.2371 12.9452V3.16182C2.2371 2.15744 1.97475 1.46926 1.4313 1.17167C1.31887 1.11587 1.26265 0.985671 1.30013 0.855474C1.33761 0.743877 1.4313 0.650879 1.56248 0.650879H6.7158C7.9526 0.650879 9.002 0.929872 9.84527 1.48786C10.726 2.00865 11.232 2.97582 11.1945 3.9802V4.1104C11.232 5.22637 10.6323 6.26795 9.65788 6.80733C9.99519 6.93753 10.3138 7.08633 10.6136 7.27232C11.0633 7.53272 11.4756 7.88611 11.7942 8.3139C11.9441 8.49989 12.0565 8.70449 12.1502 8.92768C12.2626 9.15088 12.3376 9.39267 12.3938 9.63447C12.4875 9.96926 12.5437 10.3041 12.5437 10.6574V11.0666C12.4126 12.4988 11.7754 13.6148 10.6511 14.3774C9.5267 15.1399 8.12125 15.5119 6.41597 15.5119H1.56248ZM7.27798 13.373L7.70899 13.3916C8.3836 13.4102 9.03948 13.2056 9.58292 12.7964C10.1264 12.3686 10.4449 11.699 10.4262 10.9922C10.4449 10.1925 10.0701 9.44847 9.41427 8.98348C8.75839 8.53709 7.97134 8.2953 7.18429 8.3139H6.99689L5.72262 8.3883V13.2242L7.27798 13.373ZM6.20984 6.41674C6.95941 6.43534 7.69025 6.23075 8.32738 5.85876C8.88957 5.50536 9.15192 5.05898 9.15192 4.44519V4.40799C9.15192 3.73841 8.92704 3.25482 8.4773 2.93863C8.06503 2.65963 7.57781 2.51084 7.07185 2.51084H6.86572L5.70388 2.64103V6.39814L6.20984 6.41674Z" fill="white"/><path d="M44.3444 0.929953L39.2285 13.3545C39.1723 13.5033 39.1348 13.6707 39.0973 13.8008C39.0599 13.9496 39.0411 14.0798 39.0224 14.2286C39.0224 14.6192 39.266 14.9726 39.622 15.1214V15.2144H36.1553L41.421 2.75271C40.8776 2.62251 40.3154 2.52951 39.772 2.45512C39.2847 2.38072 38.7975 2.34352 38.3103 2.34352C36.7362 2.34352 35.4619 2.73411 34.4875 3.49669H34.375L35.312 0.911353L44.3444 0.929953ZM33.9628 0.929953L28.8469 13.3545C28.7907 13.5033 28.7532 13.6707 28.7157 13.8008C28.6783 13.9496 28.6595 14.0798 28.6408 14.2286C28.6408 14.6192 28.8844 14.9726 29.2404 15.1214V15.2144H25.7549L31.0207 2.75271C30.4772 2.62251 29.9151 2.52951 29.3716 2.45512C28.8844 2.38072 28.3972 2.34352 27.9099 2.34352C26.3358 2.34352 25.0616 2.73411 24.0871 3.49669H24.0122L24.9491 0.911353L33.9628 0.929953ZM23.5812 0.929953L18.4653 13.3545C18.4091 13.5033 18.3716 13.6707 18.3341 13.8008C18.2967 13.9496 18.2779 14.0798 18.2592 14.2286C18.2592 14.6192 18.5028 14.9726 18.8588 15.1214V15.2144H15.3921L20.6578 2.75271C20.1144 2.62251 19.5522 2.52951 19.0088 2.45512C18.5215 2.38072 18.0343 2.34352 17.5471 2.34352C15.973 2.34352 14.6987 2.73411 13.7243 3.49669H13.6493L14.5863 0.911353L23.5812 0.929953ZM6.71574 0.929953C7.89632 0.929953 8.8895 1.19035 9.6953 1.71113C10.4823 2.19472 10.9508 3.0689 10.9134 3.98028V4.11048C10.9134 5.43105 10.22 6.36103 8.85203 6.86321C9.43295 6.97481 9.97639 7.17941 10.4636 7.4956C10.8946 7.75599 11.2694 8.07218 11.5692 8.46278C11.7004 8.63017 11.8128 8.81617 11.9065 9.02076C12.0002 9.22536 12.0939 9.46715 12.1314 9.69035C12.2251 10.0065 12.2626 10.3227 12.2626 10.6389V11.0295C12.1314 12.3873 11.5505 13.4103 10.4823 14.1356C9.41421 14.861 8.06497 15.2144 6.39717 15.2144H1.56242C1.86225 14.9912 2.1246 14.7122 2.31199 14.396C2.44317 14.1542 2.49938 13.6707 2.49938 12.9267V3.1433C2.49938 2.02733 2.18082 1.26474 1.56242 0.911353H6.71574V0.929953ZM5.42272 6.69582H6.19104C6.97809 6.71442 7.76514 6.50982 8.43976 6.10063C9.0769 5.69144 9.39547 5.15205 9.39547 4.46387V4.42667C9.39547 3.68269 9.13312 3.1061 8.60841 2.73411C8.13993 2.41792 7.59649 2.25052 7.03431 2.25052H6.82818L5.40398 2.41792V6.69582H5.42272ZM7.69019 13.6707C8.43976 13.7079 9.17059 13.4661 9.77025 13.0011C10.3887 12.4989 10.726 11.7549 10.7072 10.9737C10.726 10.0809 10.3137 9.24396 9.58286 8.74177C8.87076 8.25818 8.04623 7.99779 7.18422 8.01639H6.97809L5.42272 8.10938V13.4847L7.24044 13.6521L7.69019 13.6707ZM44.3444 0.371966H35.312C35.0684 0.371966 34.8622 0.520762 34.7873 0.743957L33.8503 3.3293C33.7941 3.49669 33.8128 3.68269 33.9253 3.83148C34.0377 3.98028 34.2064 4.07328 34.3938 4.07328H34.4687C34.5999 4.07328 34.7311 4.03608 34.8248 3.94308C35.6868 3.2549 36.8674 2.90151 38.3103 2.90151C38.7788 2.90151 39.2473 2.93871 39.697 3.0131C40.0156 3.0503 40.3154 3.1061 40.634 3.1619L35.6306 14.9912C35.5556 15.1586 35.5743 15.3632 35.6868 15.512C35.7992 15.6608 35.9679 15.7538 36.1553 15.7538H39.622C39.9406 15.7538 40.1842 15.512 40.1842 15.1958V15.1028C40.1842 14.8796 40.053 14.675 39.8469 14.6006C39.697 14.5448 39.6033 14.396 39.6033 14.2286C39.622 14.117 39.6408 14.024 39.6595 13.9124L39.772 13.5219L44.8878 1.09735C44.9628 0.929953 44.944 0.725357 44.8316 0.576561C44.7004 0.446364 44.5318 0.371966 44.3444 0.371966ZM33.9628 0.371966H24.9304C24.6868 0.371966 24.4806 0.520762 24.4057 0.743957L23.4687 3.3293C23.4125 3.49669 23.4312 3.68269 23.5437 3.83148C23.6561 3.98028 23.8248 4.07328 24.0122 4.07328H24.0871C24.2183 4.07328 24.3495 4.03608 24.4432 3.94308C25.3052 3.2549 26.4858 2.90151 27.9287 2.90151C28.3972 2.90151 28.8657 2.93871 29.3154 3.0131C29.634 3.0503 29.9338 3.1061 30.2524 3.1619L25.249 14.9912C25.174 15.1586 25.1927 15.3632 25.3052 15.512C25.4176 15.6608 25.5863 15.7538 25.7737 15.7538H29.2404C29.559 15.7538 29.8026 15.512 29.8026 15.1958V15.1028C29.8026 14.8796 29.6714 14.675 29.4653 14.6006C29.3154 14.5448 29.2217 14.396 29.2217 14.2286C29.2404 14.117 29.2592 14.024 29.2779 13.9124L29.3904 13.5219L34.5062 1.09735C34.5812 0.929953 34.5624 0.725357 34.45 0.576561C34.3188 0.446364 34.1502 0.371966 33.9628 0.371966ZM23.5812 0.371966H14.5488C14.3052 0.371966 14.099 0.520762 14.0241 0.743957L13.0871 3.3293C13.0309 3.49669 13.0496 3.68269 13.1621 3.83148C13.2745 3.98028 13.4432 4.07328 13.6306 4.07328H13.7055C13.8367 4.07328 13.9679 4.03608 14.0616 3.94308C14.9236 3.2549 16.1042 2.90151 17.5471 2.90151C18.0156 2.90151 18.4841 2.93871 18.9338 3.0131C19.2524 3.0503 19.5522 3.1061 19.8708 3.1619L14.8674 14.9912C14.7924 15.1586 14.8111 15.3632 14.9236 15.512C15.036 15.6608 15.2047 15.7538 15.3921 15.7538H18.8588C19.1774 15.7538 19.421 15.512 19.421 15.1958V15.1028C19.421 14.8796 19.2898 14.675 19.0837 14.6006C18.9338 14.5448 18.8401 14.396 18.8401 14.2286C18.8588 14.117 18.8776 14.024 18.8963 13.9124L19.0088 13.5219L24.1246 1.09735C24.1996 0.929953 24.1808 0.725357 24.0684 0.576561C23.9372 0.446364 23.7686 0.371966 23.5812 0.371966ZM6.71574 0.371966H1.56242C1.31881 0.371966 1.09393 0.539362 1.01898 0.781156C0.944018 1.02295 1.05645 1.28334 1.28133 1.41354C1.73107 1.67393 1.9372 2.26912 1.9372 3.1619V12.9453C1.9372 13.8566 1.82477 14.117 1.80603 14.1542C1.65611 14.396 1.44998 14.6192 1.20637 14.7866C1.01898 14.9354 0.944018 15.1772 1.03772 15.4004C1.11267 15.6236 1.31881 15.7724 1.56242 15.7724H6.39717C8.15867 15.7724 9.63908 15.3818 10.8009 14.582C12.0002 13.7636 12.6749 12.5733 12.8248 11.0667V10.6203C12.8248 10.2483 12.7685 9.87634 12.6749 9.52295C12.5999 9.26256 12.5249 9.00216 12.4125 8.76037C12.3001 8.53717 12.1689 8.31398 12.019 8.10938C11.6629 7.66299 11.2319 7.2724 10.7447 6.99341C10.576 6.88181 10.4074 6.78881 10.22 6.71442C11.0445 6.08203 11.4568 5.18925 11.4568 4.07328V3.94308C11.4943 2.82711 10.9321 1.78553 9.97639 1.20895C8.9832 0.632359 7.85884 0.353366 6.71574 0.371966ZM6.88439 2.78991H7.07179C7.52153 2.78991 7.95254 2.92011 8.32732 3.1619C8.70211 3.44089 8.87076 3.83148 8.87076 4.40807V4.44527C8.87076 4.92886 8.60841 5.39385 8.17741 5.61704C7.57775 5.97043 6.90313 6.15643 6.20978 6.13783H6.00364V2.90151L6.88439 2.78991ZM6.99683 8.57437H7.18422C7.91506 8.55577 8.64589 8.77897 9.24555 9.20676C9.82647 9.61595 10.145 10.2855 10.1263 10.9923C10.145 11.6061 9.88269 12.2013 9.39547 12.5919C8.90824 12.9639 8.30858 13.1499 7.69019 13.1313L7.27792 13.1127L5.9849 13.0011V8.64877L6.99683 8.57437Z" fill="black"/><path d="M44.3444 0.929953L39.2285 13.3545C39.1723 13.5033 39.1348 13.6707 39.0973 13.8008C39.0599 13.9496 39.0411 14.0798 39.0224 14.2286C39.0224 14.6192 39.266 14.9726 39.622 15.1214V15.2144H36.1553L41.421 2.75271C40.8776 2.62251 40.3154 2.52951 39.772 2.45512C39.2847 2.38072 38.7975 2.34352 38.3103 2.34352C36.7362 2.34352 35.4619 2.73411 34.4875 3.49669H34.375L35.312 0.911353L44.3444 0.929953ZM33.9628 0.929953L28.8469 13.3545C28.7907 13.5033 28.7532 13.6707 28.7157 13.8008C28.6783 13.9496 28.6595 14.0798 28.6408 14.2286C28.6408 14.6192 28.8844 14.9726 29.2404 15.1214V15.2144H25.7549L31.0207 2.75271C30.4772 2.62251 29.9151 2.52951 29.3716 2.45512C28.8844 2.38072 28.3972 2.34352 27.9099 2.34352C26.3358 2.34352 25.0616 2.73411 24.0871 3.49669H24.0122L24.9491 0.911353L33.9628 0.929953ZM23.5812 0.929953L18.4653 13.3545C18.4091 13.5033 18.3716 13.6707 18.3341 13.8008C18.2967 13.9496 18.2779 14.0798 18.2592 14.2286C18.2592 14.6192 18.5028 14.9726 18.8588 15.1214V15.2144H15.3921L20.6578 2.75271C20.1144 2.62251 19.5522 2.52951 19.0088 2.45512C18.5215 2.38072 18.0343 2.34352 17.5471 2.34352C15.973 2.34352 14.6987 2.73411 13.7243 3.49669H13.6493L14.5863 0.911353L23.5812 0.929953ZM6.71574 0.929953C7.89632 0.929953 8.8895 1.19035 9.6953 1.71113C10.4823 2.19472 10.9508 3.0689 10.9134 3.98028V4.11048C10.9134 5.43105 10.22 6.36103 8.85203 6.86321C9.43295 6.97481 9.97639 7.17941 10.4636 7.4956C10.8946 7.75599 11.2694 8.07218 11.5692 8.46278C11.7004 8.63017 11.8128 8.81617 11.9065 9.02076C12.0002 9.22536 12.0939 9.46715 12.1314 9.69035C12.2251 10.0065 12.2626 10.3227 12.2626 10.6389V11.0295C12.1314 12.3873 11.5505 13.4103 10.4823 14.1356C9.41421 14.861 8.06497 15.2144 6.39717 15.2144H1.56242C1.86225 14.9912 2.1246 14.7122 2.31199 14.396C2.44317 14.1542 2.49938 13.6707 2.49938 12.9267V3.1433C2.49938 2.02733 2.18082 1.26474 1.56242 0.911353H6.71574V0.929953ZM5.42272 6.69582H6.19104C6.97809 6.71442 7.76514 6.50982 8.43976 6.10063C9.0769 5.69144 9.39547 5.15205 9.39547 4.46387V4.42667C9.39547 3.68269 9.13312 3.1061 8.60841 2.73411C8.13993 2.41792 7.59649 2.25052 7.03431 2.25052H6.82818L5.40398 2.41792V6.69582H5.42272ZM7.69019 13.6707C8.43976 13.7079 9.17059 13.4661 9.77025 13.0011C10.3887 12.4989 10.726 11.7549 10.7072 10.9737C10.726 10.0809 10.3137 9.24396 9.58286 8.74177C8.87076 8.25818 8.04623 7.99779 7.18422 8.01639H6.97809L5.42272 8.10938V13.4847L7.24044 13.6521L7.69019 13.6707ZM44.3444 0.371966H35.312C35.0684 0.371966 34.8622 0.520762 34.7873 0.743957L33.8503 3.3293C33.7941 3.49669 33.8128 3.68269 33.9253 3.83148C34.0377 3.98028 34.2064 4.07328 34.3938 4.07328H34.4687C34.5999 4.07328 34.7311 4.03608 34.8248 3.94308C35.6868 3.2549 36.8674 2.90151 38.3103 2.90151C38.7788 2.90151 39.2473 2.93871 39.697 3.0131C40.0156 3.0503 40.3154 3.1061 40.634 3.1619L35.6306 14.9912C35.5556 15.1586 35.5743 15.3632 35.6868 15.512C35.7992 15.6608 35.9679 15.7538 36.1553 15.7538H39.622C39.9406 15.7538 40.1842 15.512 40.1842 15.1958V15.1028C40.1842 14.8796 40.053 14.675 39.8469 14.6006C39.697 14.5448 39.6033 14.396 39.6033 14.2286C39.622 14.117 39.6408 14.024 39.6595 13.9124L39.772 13.5219L44.8878 1.09735C44.9628 0.929953 44.944 0.725357 44.8316 0.576561C44.7004 0.446364 44.5318 0.371966 44.3444 0.371966ZM33.9628 0.371966H24.9304C24.6868 0.371966 24.4806 0.520762 24.4057 0.743957L23.4687 3.3293C23.4125 3.49669 23.4312 3.68269 23.5437 3.83148C23.6561 3.98028 23.8248 4.07328 24.0122 4.07328H24.0871C24.2183 4.07328 24.3495 4.03608 24.4432 3.94308C25.3052 3.2549 26.4858 2.90151 27.9287 2.90151C28.3972 2.90151 28.8657 2.93871 29.3154 3.0131C29.634 3.0503 29.9338 3.1061 30.2524 3.1619L25.249 14.9912C25.174 15.1586 25.1927 15.3632 25.3052 15.512C25.4176 15.6608 25.5863 15.7538 25.7737 15.7538H29.2404C29.559 15.7538 29.8026 15.512 29.8026 15.1958V15.1028C29.8026 14.8796 29.6714 14.675 29.4653 14.6006C29.3154 14.5448 29.2217 14.396 29.2217 14.2286C29.2404 14.117 29.2592 14.024 29.2779 13.9124L29.3904 13.5219L34.5062 1.09735C34.5812 0.929953 34.5624 0.725357 34.45 0.576561C34.3188 0.446364 34.1502 0.371966 33.9628 0.371966ZM23.5812 0.371966H14.5488C14.3052 0.371966 14.099 0.520762 14.0241 0.743957L13.0871 3.3293C13.0309 3.49669 13.0496 3.68269 13.1621 3.83148C13.2745 3.98028 13.4432 4.07328 13.6306 4.07328H13.7055C13.8367 4.07328 13.9679 4.03608 14.0616 3.94308C14.9236 3.2549 16.1042 2.90151 17.5471 2.90151C18.0156 2.90151 18.4841 2.93871 18.9338 3.0131C19.2524 3.0503 19.5522 3.1061 19.8708 3.1619L14.8674 14.9912C14.7924 15.1586 14.8111 15.3632 14.9236 15.512C15.036 15.6608 15.2047 15.7538 15.3921 15.7538H18.8588C19.1774 15.7538 19.421 15.512 19.421 15.1958V15.1028C19.421 14.8796 19.2898 14.675 19.0837 14.6006C18.9338 14.5448 18.8401 14.396 18.8401 14.2286C18.8588 14.117 18.8776 14.024 18.8963 13.9124L19.0088 13.5219L24.1246 1.09735C24.1996 0.929953 24.1808 0.725357 24.0684 0.576561C23.9372 0.446364 23.7686 0.371966 23.5812 0.371966ZM6.71574 0.371966H1.56242C1.31881 0.371966 1.09393 0.539362 1.01898 0.781156C0.944018 1.02295 1.05645 1.28334 1.28133 1.41354C1.73107 1.67393 1.9372 2.26912 1.9372 3.1619V12.9453C1.9372 13.8566 1.82477 14.117 1.80603 14.1542C1.65611 14.396 1.44998 14.6192 1.20637 14.7866C1.01898 14.9354 0.944018 15.1772 1.03772 15.4004C1.11267 15.6236 1.31881 15.7724 1.56242 15.7724H6.39717C8.15867 15.7724 9.63908 15.3818 10.8009 14.582C12.0002 13.7636 12.6749 12.5733 12.8248 11.0667V10.6203C12.8248 10.2483 12.7685 9.87634 12.6749 9.52295C12.5999 9.26256 12.5249 9.00216 12.4125 8.76037C12.3001 8.53717 12.1689 8.31398 12.019 8.10938C11.6629 7.66299 11.2319 7.2724 10.7447 6.99341C10.576 6.88181 10.4074 6.78881 10.22 6.71442C11.0445 6.08203 11.4568 5.18925 11.4568 4.07328V3.94308C11.4943 2.82711 10.9321 1.78553 9.97639 1.20895C8.9832 0.632359 7.85884 0.353366 6.71574 0.371966ZM6.88439 2.78991H7.07179C7.52153 2.78991 7.95254 2.92011 8.32732 3.1619C8.70211 3.44089 8.87076 3.83148 8.87076 4.40807V4.44527C8.87076 4.92886 8.60841 5.39385 8.17741 5.61704C7.57775 5.97043 6.90313 6.15643 6.20978 6.13783H6.00364V2.90151L6.88439 2.78991ZM6.99683 8.57437H7.18422C7.91506 8.55577 8.64589 8.77897 9.24555 9.20676C9.82647 9.61595 10.145 10.2855 10.1263 10.9923C10.145 11.6061 9.88269 12.2013 9.39547 12.5919C8.90824 12.9639 8.30858 13.1499 7.69019 13.1313L7.27792 13.1127L5.9849 13.0011V8.64877L6.99683 8.57437Z" fill="url(#paint0_linear)"/><g opacity="0.7"><path opacity="0.7" d="M44.2134 1.20894L39.21 13.3917C39.1537 13.5405 39.0975 13.7079 39.0788 13.8752C39.0413 14.024 39.0226 14.1728 38.9851 14.3216V14.3588C39.0038 14.6378 39.1163 14.9168 39.3037 15.1214H36.5677L41.721 2.9201C41.7398 2.86431 41.7398 2.82711 41.721 2.77131C41.7023 2.71551 41.6461 2.67831 41.5899 2.67831C41.0277 2.54811 40.4655 2.45512 39.9221 2.38072C39.4161 2.30632 38.9289 2.26912 38.4229 2.26912C36.9987 2.26912 35.8181 2.58531 34.8624 3.1805L35.5745 1.20894H44.2134ZM33.8318 1.20894L28.8284 13.3917C28.7721 13.5405 28.7159 13.7079 28.6972 13.8752C28.6597 14.024 28.641 14.1728 28.6035 14.3216V14.3588C28.6222 14.6378 28.7347 14.9168 28.9221 15.1214H26.1861L31.3394 2.9201C31.3582 2.86431 31.3582 2.82711 31.3394 2.77131C31.3207 2.71551 31.2645 2.67831 31.2083 2.67831C30.6461 2.54811 30.0839 2.45512 29.5405 2.38072C29.0345 2.30632 28.5473 2.26912 28.0413 2.26912C26.6171 2.26912 25.4365 2.58531 24.4808 3.1805L25.1929 1.20894H33.8318ZM23.4502 1.20894L18.4468 13.3917C18.3905 13.5405 18.3343 13.7079 18.3156 13.8752C18.2781 14.024 18.2594 14.1728 18.2219 14.3216V14.3588C18.2406 14.6378 18.3531 14.9168 18.5405 15.1214H15.8045L20.9578 2.9201C20.9766 2.86431 20.9766 2.82711 20.9578 2.77131C20.9391 2.71551 20.8829 2.67831 20.8267 2.67831C20.2645 2.54811 19.7023 2.45512 19.1589 2.38072C18.6529 2.30632 18.1657 2.26912 17.6597 2.26912C16.2355 2.26912 15.0549 2.58531 14.0992 3.1805L14.8113 1.20894H23.4502ZM6.86585 1.20894C7.87777 1.17175 8.8897 1.45074 9.75171 1.97153C10.52 2.45512 10.8761 3.1433 10.8761 4.07328V4.20347C10.8761 5.44965 10.2389 6.30523 8.92717 6.78881C8.85222 6.82601 8.81474 6.90041 8.81474 6.97481C8.83348 7.04921 8.8897 7.12361 8.96465 7.14221C9.50809 7.2538 10.0328 7.4584 10.5013 7.75599C10.9135 7.99779 11.2696 8.31398 11.5694 8.68597C11.6819 8.85337 11.7943 9.02076 11.888 9.20676C11.9817 9.41135 12.0566 9.61595 12.1129 9.83914C12.2066 10.1367 12.244 10.4343 12.244 10.7505V11.1225C12.1316 12.4059 11.5507 13.4103 10.5575 14.0798C9.52683 14.7866 8.19634 15.14 6.58476 15.14H2.19975C2.3684 14.9912 2.49958 14.8052 2.61201 14.6006C2.76193 14.3216 2.83689 13.8194 2.83689 13.0383V3.2549C2.83689 2.34352 2.63075 1.65533 2.23723 1.20894H6.86585ZM5.59157 6.97481H6.35988C7.18442 6.99341 8.00895 6.77021 8.72104 6.34242C9.37692 5.97043 9.77045 5.28225 9.77045 4.53827V4.50107C9.77045 3.68269 9.48936 3.0689 8.90844 2.64111C8.42121 2.30632 7.82155 2.12032 7.22189 2.13892H6.99702L5.57283 2.30632C5.47913 2.32492 5.40418 2.39932 5.40418 2.49231V6.78881C5.40418 6.90041 5.47913 6.97481 5.59157 6.97481ZM7.84029 13.9496C8.62735 13.9682 9.4144 13.7265 10.0328 13.2429C10.6887 12.7221 11.0635 11.9223 11.0447 11.0853C11.0635 10.1367 10.6137 9.26256 9.8454 8.70457C9.11457 8.20238 8.23382 7.94199 7.35307 7.94199H7.1282L5.57283 8.03499C5.47913 8.05358 5.40418 8.12798 5.40418 8.22098V13.5963C5.40418 13.6893 5.47913 13.7636 5.57283 13.7822L7.40929 13.9496H7.84029ZM44.4945 1.02295H35.4621L34.5251 3.60829H34.6001C35.5745 2.84571 36.8488 2.45512 38.4229 2.45512C38.9101 2.45512 39.3974 2.49231 39.8846 2.56671C40.428 2.64111 40.9902 2.73411 41.5336 2.86431L36.2679 15.326H39.7347V15.233C39.3786 15.0842 39.1912 14.7866 39.135 14.3402C39.1537 14.1914 39.1912 14.0612 39.21 13.9124C39.2474 13.7637 39.2849 13.6149 39.3411 13.4661L44.4945 1.02295ZM34.1129 1.02295H25.0805L24.1435 3.60829H24.2185C25.1929 2.84571 26.4672 2.45512 28.0413 2.45512C28.5285 2.45512 29.0158 2.49231 29.503 2.56671C30.0464 2.64111 30.6086 2.73411 31.152 2.86431L25.8863 15.326H29.3531V15.233C28.997 15.0842 28.8096 14.7866 28.7534 14.3402C28.7721 14.1914 28.8096 14.0612 28.8284 13.9124C28.8658 13.7637 28.9033 13.6149 28.9595 13.4661L34.1129 1.02295ZM23.7313 1.02295H14.6989L13.7619 3.60829H13.8369C14.8113 2.84571 16.0856 2.45512 17.6597 2.45512C18.1469 2.45512 18.6342 2.49231 19.1214 2.56671C19.6648 2.64111 20.227 2.73411 20.7704 2.86431L15.5047 15.326H18.9715V15.233C18.6154 15.0842 18.428 14.7866 18.3718 14.3402C18.3905 14.1914 18.428 14.0612 18.4468 13.9124C18.4842 13.7637 18.5217 13.6149 18.5779 13.4661L23.7313 1.02295ZM6.86585 1.02295H1.71252C2.33092 1.39494 2.64949 2.13892 2.64949 3.2549V13.0383C2.64949 13.7822 2.59327 14.2658 2.4621 14.5076C2.2747 14.8238 2.01235 15.1028 1.71252 15.326H6.54728C8.19634 15.326 9.56431 14.9726 10.6325 14.2472C11.7006 13.5219 12.2815 12.4803 12.4127 11.1411V10.7505C12.4127 10.4343 12.3752 10.1181 12.2815 9.80194C12.2253 9.57875 12.1503 9.35555 12.0566 9.13236C11.9629 8.94636 11.8505 8.76037 11.7193 8.57437C11.4195 8.18378 11.0447 7.86759 10.6137 7.60719C10.1265 7.291 9.58305 7.08641 9.00213 6.97481C10.3701 6.45402 11.0635 5.54264 11.0635 4.22207V4.09188C11.1009 3.1805 10.6325 2.30632 9.8454 1.82273C9.03961 1.28334 8.04643 1.02295 6.86585 1.02295ZM5.59157 6.78881V2.49231L7.01576 2.32492H7.22189C7.78407 2.32492 8.32752 2.49231 8.796 2.80851C9.3207 3.1991 9.58305 3.75709 9.58305 4.50107V4.53827C9.58305 5.20785 9.227 5.84024 8.62735 6.17503C7.95273 6.58422 7.16568 6.78881 6.37862 6.77021L5.59157 6.78881ZM7.84029 13.7637L7.40929 13.7451L5.59157 13.5777V8.20238L7.14694 8.10938H7.35307C8.21508 8.10938 9.03961 8.35118 9.75171 8.83477C10.4825 9.33695 10.8948 10.1739 10.8761 11.0667C10.8948 11.8479 10.5388 12.5919 9.9391 13.0941C9.33944 13.5591 8.60861 13.7823 7.84029 13.7637Z" fill="black"/></g><path d="M2.49935 12.9455V3.16212C2.49935 2.04615 2.18078 1.28357 1.56238 0.930176H6.7157C7.89628 0.930176 8.88947 1.19057 9.69526 1.71136C10.4823 2.19495 10.9508 3.06913 10.9133 3.9805V4.1107C10.9133 5.43127 10.22 6.36125 8.85199 6.86344C9.43291 6.97503 9.97635 7.17963 10.4636 7.49582C10.8946 7.75622 11.2694 8.07241 11.5692 8.463C11.7004 8.6304 11.8128 8.81639 11.9065 9.02099C12.0002 9.22558 12.0939 9.46738 12.1314 9.69057C12.2251 10.0068 12.2625 10.323 12.2625 10.6391V11.0297C12.1314 12.3875 11.5505 13.4105 10.4823 14.1359C9.41417 14.8612 8.06493 15.2146 6.39713 15.2146H1.56238C1.86221 14.9914 2.12456 14.7125 2.31195 14.3963C2.44313 14.1731 2.49935 13.6895 2.49935 12.9455ZM5.42268 6.69604H6.191C6.97805 6.71464 7.7651 6.51004 8.43972 6.10085C9.07686 5.69166 9.39543 5.15228 9.39543 4.46409V4.42689C9.39543 3.68291 9.13308 3.10632 8.60837 2.73433C8.13989 2.41814 7.59645 2.25074 7.03427 2.25074H6.82814L5.40395 2.41814V6.69604H5.42268ZM5.42268 13.4849L7.2404 13.6523L7.67141 13.6709C8.42098 13.7081 9.15182 13.4663 9.75148 13.0013C10.3699 12.4991 10.7072 11.7551 10.6884 10.9739C10.7072 10.0812 10.2949 9.24418 9.56408 8.74199C8.85199 8.2584 8.02745 8.01661 7.16544 8.01661H6.95931L5.40395 8.10961V13.4849H5.42268ZM15.3733 15.2332L20.639 2.77153C20.0956 2.64134 19.5334 2.54834 18.99 2.47394C18.5028 2.39954 18.0155 2.36234 17.5283 2.36234C15.9542 2.36234 14.6799 2.75293 13.7055 3.51552H13.6305L14.5675 0.930176H23.5999L18.484 13.3547C18.4278 13.5035 18.3903 13.6709 18.3528 13.8011C18.3154 13.9499 18.2966 14.0801 18.2779 14.2289C18.2779 14.6195 18.5215 14.9728 18.8775 15.1216V15.2146L15.3733 15.2332ZM25.7549 15.2332L31.0206 2.77153C30.4772 2.64134 29.915 2.54834 29.3716 2.47394C28.8844 2.39954 28.3971 2.36234 27.9099 2.36234C26.3358 2.36234 25.0615 2.75293 24.0871 3.51552H24.0121L24.9491 0.930176H33.9815L28.8656 13.3547C28.8094 13.5035 28.7719 13.6709 28.7344 13.8011C28.697 13.9499 28.6782 14.0801 28.6595 14.2289C28.6595 14.6195 28.9031 14.9728 29.2591 15.1216V15.2146L25.7549 15.2332ZM36.1177 15.2332L41.3835 2.77153C40.8401 2.64134 40.2779 2.54834 39.7344 2.47394C39.2472 2.39954 38.76 2.36234 38.2728 2.36234C36.6987 2.36234 35.4244 2.75293 34.4499 3.51552H34.375L35.312 0.930176H44.3443L39.2285 13.3547C39.1723 13.5035 39.1348 13.6709 39.0973 13.8011C39.0598 13.9499 39.0411 14.0801 39.0223 14.2289C39.0223 14.6195 39.266 14.9728 39.622 15.1216V15.2146L36.1177 15.2332Z" fill="white"/><defs><linearGradient id="paint0_linear" x1="22.9674" y1="15.7909" x2="22.9674" y2="0.363317" gradientUnits="userSpaceOnUse"><stop stop-color="#FEF6D9"/><stop offset="0.02" stop-color="#FBE6C0"/><stop offset="0.05" stop-color="#F6CA93"/><stop offset="0.09" stop-color="#F1B370"/><stop offset="0.13" stop-color="#EEA153"/><stop offset="0.16" stop-color="#EB933D"/><stop offset="0.2" stop-color="#EA8A2E"/><stop offset="0.24" stop-color="#E98526"/><stop offset="0.28" stop-color="#E88324"/><stop offset="0.67" stop-color="#DB6527"/><stop offset="1" stop-color="#170B0B"/></linearGradient></defs></svg>