<svg width="59" height="60" viewBox="0 0 59 60" fill="none" xmlns="http://www.w3.org/2000/svg">
<path d="M53.3961 30.0756L57.779 25.5416C58.308 25.0126 58.5346 24.1814 58.3835 23.4257C58.2324 22.67 57.6278 22.0655 56.9477 21.7632L51.0535 19.5718L53.0938 13.602C53.3205 12.8463 53.1694 12.0151 52.716 11.4106C52.2626 10.806 51.4314 10.5038 50.6757 10.5038L44.4037 11.1083L43.648 4.83627C43.5724 4.0806 43.0434 3.4005 42.3633 3.02267C41.6832 2.64484 40.852 2.7204 40.1719 3.09824L34.7311 6.42317L31.255 1.05793C30.8016 0.377834 30.1215 0 29.2903 0C28.5346 0 27.779 0.377834 27.3256 1.05793L23.8495 6.34761L18.4843 3.09824C17.8042 2.7204 16.9729 2.64484 16.2928 3.02267C15.6127 3.4005 15.0837 4.00504 15.0082 4.83627L14.177 11.1083L7.90493 10.5038C7.14926 10.4282 6.31801 10.7305 5.86461 11.335C5.41121 11.9395 5.26008 12.7708 5.48678 13.5265L7.4515 19.4962L1.48175 21.6877C0.726084 21.9899 0.197098 22.5945 0.0459645 23.3501C-0.105169 24.1058 0.121522 24.937 0.650489 25.466L5.0334 30L0.650489 34.534C0.121522 35.063 -0.105169 35.8942 0.0459645 36.6499C0.197098 37.4055 0.801651 38.0101 1.48175 38.3123L7.4515 40.5038L5.41123 46.4736C5.18453 47.2292 5.33567 48.0605 5.78907 48.665C6.24247 49.2695 7.07366 49.5718 7.82933 49.4962L14.1014 48.8917L14.8571 55.1637C14.9326 55.9194 15.4616 56.5995 16.1417 56.9773C16.8218 57.3552 17.653 57.2796 18.3331 56.9018L23.7739 53.6524L27.1744 58.9421C27.6278 59.6222 28.3079 60 29.1392 60C29.8948 60 30.6505 59.6222 31.1039 58.9421L34.58 53.6524L39.9452 56.9773C40.6253 57.3552 41.4566 57.4307 42.1367 57.0529C42.8168 56.7506 43.3457 56.0705 43.4213 55.2393L44.2525 48.9673L50.5246 49.5718C51.2802 49.6474 52.1115 49.3451 52.5649 48.7406C53.0938 48.136 53.1694 47.3048 52.9427 46.5491L50.978 40.5793L56.9477 38.3879C57.7034 38.0856 58.2324 37.4811 58.3835 36.7254C58.5346 35.9698 58.308 35.1385 57.779 34.6096L53.3961 30.0756ZM21.6581 35.2141C21.6581 35.5919 21.3558 35.8942 20.978 35.8942H18.9377C18.711 35.8942 18.4843 35.7431 18.3331 35.5164L15.915 31.4358C15.5372 30.7557 14.8571 29.5466 14.177 28.1864C14.2525 29.471 14.2525 30.7557 14.2525 32.267V35.2141C14.2525 35.5919 13.9503 35.8942 13.5724 35.8942H12.0611C11.6833 35.8942 11.381 35.5919 11.381 35.2141V24.8615C11.381 24.4836 11.6833 24.1814 12.0611 24.1814H14.4036C14.6303 24.1814 14.857 24.3325 15.0082 24.4836L17.3508 28.4131C17.8797 29.3199 18.4087 30.3023 18.8621 31.3602C18.7865 30.3023 18.711 29.0932 18.711 27.733V24.937C18.711 24.5592 19.0132 24.2569 19.3911 24.2569H20.9024C21.2803 24.2569 21.5825 24.5592 21.5825 24.937L21.6581 35.2141ZM30.9528 35.2141C30.9528 35.5919 30.6505 35.8942 30.2727 35.8942H23.6984C23.3205 35.8942 23.0183 35.5919 23.0183 35.2141V24.8615C23.0183 24.4836 23.3205 24.1814 23.6984 24.1814H30.046C30.4238 24.1814 30.7261 24.4836 30.7261 24.8615V25.995C30.7261 26.3728 30.4238 26.6751 30.046 26.6751H26.1165V28.6398H29.8193C30.1971 28.6398 30.4994 28.9421 30.4994 29.3199V30.4534C30.4994 30.8312 30.1971 31.1335 29.8193 31.1335H26.1165V33.4005H30.2727C30.6505 33.4005 30.9528 33.7028 30.9528 34.0806V35.2141ZM46.7462 25.0882L43.9503 35.3652C43.8747 35.6675 43.5724 35.8942 43.2702 35.8942H41.1543C40.852 35.8942 40.5497 35.6675 40.4742 35.3652L39.5674 30.9068C39.4162 30.0756 39.2651 29.3199 39.1895 28.5642C39.0384 29.3955 38.8873 30.1511 38.7362 30.9068L37.6782 35.3652C37.6026 35.6675 37.3004 35.8942 36.9981 35.8942H34.8067C34.5044 35.8942 34.2022 35.6675 34.1266 35.3652L31.5573 25.0126C31.4817 24.7859 31.5573 24.5592 31.7085 24.4081C31.8596 24.2569 32.0107 24.1814 32.2374 24.1814H34.051C34.3533 24.1814 34.6556 24.4081 34.7311 24.7103L35.5623 28.9421C35.789 29.9244 35.9402 30.9068 36.0913 31.8892C36.2425 30.9824 36.4691 30.0756 36.6958 28.9421L37.6026 24.7103C37.6782 24.4081 37.9805 24.1814 38.2828 24.1814H40.323C40.6253 24.1814 40.9276 24.4081 41.0032 24.7103L41.91 29.0932C42.0611 29.9244 42.2122 30.8312 42.3633 31.738C42.4389 31.1335 42.59 30.4534 42.7412 29.8489V29.7733C42.8167 29.471 42.8168 29.2443 42.8923 28.9421L43.7991 24.7103C43.8747 24.4081 44.1769 24.1814 44.4792 24.1814H46.1417C46.3684 24.1814 46.5195 24.2569 46.6707 24.4836C46.7462 24.6348 46.8218 24.8615 46.7462 25.0882Z" fill="url(#paint0_linear)"/>
<defs>
<linearGradient id="paint0_linear" x1="29.2147" y1="-3.5849e-07" x2="41.4783" y2="57.3789" gradientUnits="userSpaceOnUse">
<stop stop-color="#06AC06"/>
<stop offset="1" stop-color="#005085"/>
</linearGradient>
</defs>
</svg>
