<svg width="65" height="65" viewBox="0 0 65 65" fill="none" xmlns="http://www.w3.org/2000/svg"><path d="M31.1455 48.7506V39.2715C31.1455 38.5267 33.8538 38.5267 33.8538 39.2715V48.7506C33.8538 49.4954 31.1455 49.4954 31.1455 48.7506Z" fill="#F0AB00"/><path d="M46.8128 30.659C50.6172 28.9255 53.8433 26.1353 56.1072 22.6206C58.3711 19.1059 59.5775 15.0147 59.5826 10.834C59.5826 10.4748 59.4399 10.1304 59.186 9.87644C58.932 9.62249 58.5876 9.47982 58.2284 9.47982H48.7493C48.0045 9.47982 48.0045 6.77148 48.7493 6.77148H58.2284C59.3059 6.77148 60.3392 7.1995 61.1011 7.96136C61.8629 8.72323 62.2909 9.75654 62.2909 10.834C62.2859 15.5342 60.9303 20.1339 58.3854 24.0856C55.8406 28.0373 52.2138 31.1744 47.9368 33.1236L46.5826 33.7329C46.5744 32.7037 46.6514 31.6755 46.8128 30.659Z" fill="#F0AB00"/><path d="M18.4028 33.7329L17.0486 33.1236C12.7742 31.1725 9.15015 28.0345 6.60782 24.0829C4.06549 20.1314 2.71187 15.5327 2.70801 10.834C2.70801 9.75654 3.13602 8.72323 3.89789 7.96136C4.65975 7.1995 5.69307 6.77148 6.77051 6.77148H16.2497C16.9945 6.77148 16.9945 9.47982 16.2497 9.47982H6.77051C6.41136 9.47982 6.06692 9.62249 5.81297 9.87644C5.55901 10.1304 5.41634 10.4748 5.41634 10.834C5.42148 15.0147 6.6278 19.1059 8.89171 22.6206C11.1556 26.1353 14.3818 28.9255 18.1861 30.659C18.343 31.6759 18.4155 32.7041 18.4028 33.7329Z" fill="#F0AB00"/><path d="M48.7497 2.70898H16.2497C15.8905 2.70898 15.5461 2.85166 15.2921 3.10561C15.0382 3.35957 14.8955 3.704 14.8955 4.06315V23.0215C14.8955 27.6904 16.7502 32.1681 20.0516 35.4695C23.3531 38.7709 27.8308 40.6257 32.4997 40.6257C37.1686 40.6257 41.6463 38.7709 44.9477 35.4695C48.2491 32.1681 50.1038 27.6904 50.1038 23.0215V4.06315C50.1038 3.704 49.9612 3.35957 49.7072 3.10561C49.4533 2.85166 49.1088 2.70898 48.7497 2.70898Z" fill="#F5C12E"/><path d="M42.1275 17.1856C42.039 16.9141 41.8669 16.6776 41.6359 16.5098C41.4048 16.3419 41.1266 16.2515 40.8411 16.2513H35.4244L33.8536 11.1325C33.7645 10.8616 33.5922 10.6257 33.3612 10.4584C33.1302 10.2912 32.8523 10.2012 32.5671 10.2012C32.2819 10.2012 32.004 10.2912 31.773 10.4584C31.542 10.6257 31.3697 10.8616 31.2807 11.1325L29.5473 16.2513H24.1307C23.8452 16.2531 23.5677 16.345 23.3376 16.514C23.1076 16.683 22.9368 16.9203 22.8497 17.1922C22.7626 17.464 22.7637 17.7564 22.8526 18.0276C22.9416 18.2988 23.114 18.5349 23.3452 18.7023L27.6921 21.871L26.0265 26.9898C25.9566 27.2564 25.9698 27.5379 26.0641 27.7968C26.1585 28.0557 26.3296 28.2797 26.5546 28.4388C26.7853 28.6051 27.0624 28.6946 27.3468 28.6946C27.6312 28.6946 27.9083 28.6051 28.139 28.4388L32.4994 25.3377L36.8598 28.4388C37.0905 28.6051 37.3676 28.6946 37.652 28.6946C37.9364 28.6946 38.2136 28.6051 38.4442 28.4388C38.675 28.2726 38.8476 28.0379 38.9375 27.7681C39.0274 27.4983 39.0302 27.2071 38.9452 26.9356L37.2796 21.8169L41.6265 18.6481C41.8493 18.4846 42.0167 18.2568 42.1062 17.9954C42.1958 17.734 42.2032 17.4514 42.1275 17.1856Z" fill="#F9D67A"/><path d="M40.625 47.3965H24.375C23.2976 47.3965 22.2642 47.8245 21.5024 48.5864C20.7405 49.3482 20.3125 50.3815 20.3125 51.459V52.8131C20.3125 53.1723 20.4552 53.5167 20.7091 53.7707C20.9631 54.0246 21.3075 54.1673 21.6667 54.1673H43.3333C43.6925 54.1673 44.0369 54.0246 44.2909 53.7707C44.5448 53.5167 44.6875 53.1723 44.6875 52.8131V51.459C44.6875 50.3815 44.2595 49.3482 43.4976 48.5864C42.7358 47.8245 41.7024 47.3965 40.625 47.3965Z" fill="#F5C12E"/><path d="M41.9785 51.459H23.0202C20.5062 51.459 18.0951 52.4577 16.3174 54.2354C14.5397 56.013 13.541 58.4241 13.541 60.9381C13.541 61.2973 13.6837 61.6417 13.9376 61.8957C14.1916 62.1496 14.536 62.2923 14.8952 62.2923H50.1035C50.4627 62.2923 50.8071 62.1496 51.0611 61.8957C51.315 61.6417 51.4577 61.2973 51.4577 60.9381C51.4577 58.4241 50.459 56.013 48.6813 54.2354C46.9036 52.4577 44.4926 51.459 41.9785 51.459Z" fill="#F0AB00"/></svg>