<svg width="40" height="40" viewBox="0 0 25 25" fill="none" xmlns="http://www.w3.org/2000/svg"><circle cx="12.5" cy="12.5" r="12.5" fill="#FFBA00"/><g clip-path="url(#clip0)"><path d="M19.4671 7.06921C19.1448 7.03982 18.8598 7.27728 18.8304 7.59954L18.7528 8.45117C17.4356 6.38264 15.1492 5 12.4999 5C9.64985 5 7.1382 6.62662 5.89139 9.06799C5.7442 9.35618 5.85852 9.70912 6.14671 9.85631C6.43496 10.0035 6.78784 9.88921 6.93503 9.60099C7.99022 7.53485 10.1092 6.17188 12.4999 6.17188C14.6789 6.17188 16.6454 7.30657 17.7719 9.08422L16.9365 8.48753C16.6731 8.29947 16.3072 8.36047 16.1191 8.62379C15.9311 8.88714 15.9921 9.25306 16.2554 9.44114L18.7888 11.2505C19.1601 11.5152 19.6723 11.2729 19.7129 10.8269L19.9974 7.70595C20.0268 7.38365 19.7894 7.09859 19.4671 7.06921Z" fill="#035D03"/><path d="M18.8531 15.1437C18.5649 14.9965 18.212 15.1108 18.0648 15.399C17.0096 17.4651 14.8907 18.8281 12.5 18.8281C10.321 18.8281 8.35449 17.6934 7.22791 15.9158L8.06337 16.5125C8.32672 16.7005 8.69263 16.6395 8.88072 16.3762C9.06878 16.1129 9.00778 15.7469 8.74446 15.5589L6.21101 13.7494C5.84425 13.4874 5.32798 13.7225 5.28696 14.1731L5.00246 17.2941C4.97307 17.6163 5.21052 17.9014 5.53276 17.9308C5.85544 17.9601 6.14011 17.7224 6.16947 17.4004L6.24711 16.5488C7.56424 18.6174 9.85068 20 12.5 20C15.35 20 17.8616 18.3734 19.1085 15.932C19.2557 15.6438 19.1413 15.2909 18.8531 15.1437Z" fill="#035D03"/></g><defs><clipPath id="clip0"><rect x="5" y="5" width="15" height="15" fill="white"/></clipPath></defs></svg>