<svg width="16" height="16" viewBox="0 0 16 16" fill="none" xmlns="http://www.w3.org/2000/svg"><g clip-path="url(#clip0_2069_24643)"><path d="M6.57341 0C2.94492 0 0.00341797 2.9415 0.00341797 6.56999C0.00341797 10.1985 2.94492 13.14 6.57341 13.14C10.2019 13.14 13.1434 10.1985 13.1434 6.56999C13.1403 2.94278 10.2006 0.00314217 6.57341 0ZM6.57341 10.8548C4.207 10.8548 2.28863 8.9364 2.28863 6.56999C2.28863 4.20358 4.207 2.28521 6.57341 2.28521C8.93982 2.28521 10.8582 4.20358 10.8582 6.56999C10.855 8.93512 8.93853 10.8516 6.57341 10.8548Z" fill="#232323"/><path d="M15.6624 14.0488L13.3772 11.7636C12.9307 11.3171 12.2069 11.3171 11.7604 11.7636C11.3139 12.21 11.3139 12.9339 11.7604 13.3804L14.0456 15.6656C14.4921 16.1121 15.2159 16.1121 15.6624 15.6656C16.1089 15.2191 16.1089 14.4953 15.6624 14.0488Z" fill="#232323"/></g><defs><clipPath id="clip0_2069_24643"><rect width="16" height="16" fill="white"/></clipPath></defs></svg>