<svg width="20" height="20" viewBox="0 0 20 20" fill="none" xmlns="http://www.w3.org/2000/svg"><g clip-path="url(#clip0_10655_13901)"><path d="M8.2164 0C3.68078 0 0.00390625 3.67687 0.00390625 8.21249C0.00390625 12.7481 3.68078 16.425 8.2164 16.425C12.752 16.425 16.4289 12.7481 16.4289 8.21249C16.425 3.67848 12.7504 0.00392771 8.2164 0ZM8.2164 13.5685C5.25838 13.5685 2.86042 11.1705 2.86042 8.21249C2.86042 5.25448 5.25838 2.85652 8.2164 2.85652C11.1744 2.85652 13.5724 5.25448 13.5724 8.21249C13.5684 11.1689 11.1728 13.5645 8.2164 13.5685Z" fill="white"/><path d="M19.5773 17.5603L16.7208 14.7037C16.1627 14.1456 15.2579 14.1456 14.6998 14.7037C14.1417 15.2618 14.1417 16.1666 14.6998 16.7247L17.5563 19.5812C18.1144 20.1393 19.0192 20.1393 19.5773 19.5812C20.1354 19.0232 20.1354 18.1183 19.5773 17.5603Z" fill="white"/></g><defs><clipPath id="clip0_10655_13901"><rect width="20" height="20" fill="white"/></clipPath></defs></svg>