<svg width="60" height="60" viewBox="0 0 60 60" fill="none" xmlns="http://www.w3.org/2000/svg">
<path d="M17.9271 57.4453C21.6014 59.095 25.5008 59.9199 29.5501 59.9949C33.5994 60.0699 37.5737 59.32 41.2481 57.8202C44.8475 56.3955 48.0719 54.2209 50.8464 51.5213C53.621 48.8218 55.8706 45.5973 57.4453 42.0729C59.095 38.3986 59.9199 34.4992 59.9949 30.4499C60.0699 26.4006 59.32 22.4263 57.8202 18.7519C56.3955 15.1525 54.2209 11.9281 51.5213 9.15356C48.8218 6.37903 45.5973 4.12942 42.0729 2.55468C38.3986 0.904966 34.4992 0.080107 30.4499 0.00511983C26.4006 -0.0698674 22.4263 0.680005 18.7519 2.17975C15.1525 3.60451 11.9281 5.77913 9.15356 8.47867C6.37903 11.1782 4.12942 14.4027 2.55468 17.9271C0.904966 21.6014 0.080107 25.5008 0.00511983 29.5501C-0.0698674 33.5994 0.680005 37.5737 2.17975 41.2481C3.60451 44.8475 5.77913 48.0719 8.47867 50.8464C11.1782 53.621 14.3277 55.8706 17.9271 57.4453ZM54.7458 37.3487C55.1207 38.9985 55.2707 40.7232 55.1957 42.3729C52.7961 47.2471 49.1217 51.2964 44.5475 53.9959C43.3477 54.3708 42.1479 54.6708 40.9481 54.8208C40.5732 54.8957 40.1983 54.9707 39.8233 54.9707L37.9486 47.322C38.0236 47.322 38.0236 47.2471 38.0986 47.1721C40.7232 44.6225 43.0478 41.848 45.0724 38.8485L54.6708 36.8988C54.6708 37.1238 54.6708 37.1988 54.7458 37.3487ZM50.6965 13.2029C50.3215 11.9281 49.8716 10.7283 49.2717 9.60348C53.0961 13.2029 55.8706 17.8521 57.2204 23.1012L50.7715 13.5028C50.7715 13.4278 50.6965 13.2779 50.6965 13.2029ZM49.2717 14.7026L56.9204 25.9507C56.6205 28.4253 56.1705 30.8249 55.4956 33.1495C55.3457 33.7494 55.1957 34.3493 54.9707 34.9492L45.4474 36.8988C45.3724 36.8238 45.2974 36.6739 45.2224 36.5239C43.5727 33.5244 41.698 30.7499 39.6733 27.9753C39.5234 27.8254 39.4484 27.6754 39.3734 27.6004L42.7478 15.5275C44.6225 15.2275 46.4972 15.0026 48.3719 14.7026C48.5968 14.7026 48.9718 14.7026 49.2717 14.7026ZM30.4499 1.8798C31.9497 1.8798 33.4494 2.02977 34.8742 2.32972C33.8243 3.52952 32.9995 4.87929 32.2496 6.22906L18.6019 10.1284C16.7273 9.37852 14.7776 8.77862 12.7529 8.40369C12.528 8.3287 12.228 8.3287 12.0031 8.40369C17.0272 4.27939 23.4761 1.80481 30.4499 1.8798ZM18.9769 13.4278C19.1269 12.9029 19.3518 12.378 19.5018 11.8531L32.6995 8.10374L32.7745 8.17872C35.699 10.2034 38.3986 12.528 40.8731 15.0775L37.3487 27.5254C35.3241 28.1253 33.2994 28.7252 31.1998 29.3251C29.85 29.7 28.4253 30.15 27.0755 30.5999L16.8023 21.9014C17.4021 19.0519 18.077 16.2024 18.9769 13.4278ZM10.5783 25.3508C12.228 24.6759 13.8778 24.001 15.5275 23.3261L25.5758 31.7247C25.5008 31.9497 25.5008 32.2496 25.5008 32.4746C25.3508 34.7992 25.1258 37.1238 24.9759 39.4484H24.9009C24.9009 40.3482 24.9009 41.2481 24.8259 42.0729L14.4776 47.0971C14.2527 46.9471 14.0277 46.7971 13.8778 46.6472C12.378 45.3724 10.8033 44.0976 9.37852 42.7478C8.47867 41.923 7.57883 41.0981 6.82895 40.1233L7.80379 26.6256C8.70363 26.2506 9.67847 25.8007 10.5783 25.3508ZM1.8798 29.5501C1.95479 26.0257 2.62967 22.7262 3.82947 19.6518C4.2044 21.6764 4.72931 23.6261 5.47919 25.5008C5.62916 25.8007 5.70415 26.1007 5.85412 26.4006L4.95428 39.6733C4.57934 39.8983 4.27939 40.1983 3.97944 40.4982C2.55468 37.1238 1.8798 33.4494 1.8798 29.5501ZM17.2522 54.8957C17.2522 54.8208 17.2522 54.8208 17.2522 54.8957C16.3523 52.8711 15.8274 50.8464 15.4525 48.7468L25.1258 44.0976C25.1258 44.0976 25.1258 44.0976 25.2008 44.0976C25.8757 44.3975 26.5506 44.6975 27.3005 44.9974C30.15 46.1222 33.0745 47.0971 36.1489 47.772L37.9486 55.3457C37.7987 55.4956 37.6487 55.5706 37.4237 55.7206C36.2239 56.2455 35.0991 56.7704 33.8993 57.2204C32.9995 57.5953 32.0247 57.8202 31.1248 58.1202C30.6749 58.1202 30.15 58.1202 29.7 58.1202C25.2008 58.0452 21.0015 56.9204 17.2522 54.9707C17.1772 54.9707 17.1772 54.9707 17.2522 54.8957Z" fill="url(#paint0_linear)"/>
<defs>
<linearGradient id="paint0_linear" x1="30" y1="-3.5849e-07" x2="41.9696" y2="57.5087" gradientUnits="userSpaceOnUse">
<stop stop-color="#06AC06"/>
<stop offset="1" stop-color="#005085"/>
</linearGradient>
</defs>
</svg>
