<svg width="27" height="28" viewBox="0 0 27 28" fill="none" xmlns="http://www.w3.org/2000/svg"><g filter="url(#filter0_d)"><path d="M13.686 0C6.38674 0 0.44885 5.93788 0.44885 13.2372C0.44885 15.5463 1.05282 17.815 2.19706 19.8109L0.0230171 26.3326C-0.0290342 26.4892 0.00865811 26.661 0.121286 26.7813C0.20744 26.8733 0.326799 26.9231 0.44885 26.9231C0.486991 26.9231 0.525132 26.9181 0.562825 26.9083L7.68263 25.0349C9.53225 25.9772 11.604 26.4744 13.686 26.4744C20.9853 26.4744 26.9232 20.5365 26.9232 13.2372C26.9232 5.93788 20.9853 0 13.686 0ZM7.62834 15.2564C6.63847 15.2564 5.83347 14.4514 5.83347 13.4615C5.83347 12.4717 6.63847 11.6667 7.62834 11.6667C8.61821 11.6667 9.42321 12.4717 9.42321 13.4615C9.42321 14.4514 8.61821 15.2564 7.62834 15.2564ZM13.4617 15.2564C12.4718 15.2564 11.6668 14.4514 11.6668 13.4615C11.6668 12.4717 12.4718 11.6667 13.4617 11.6667C14.4515 11.6667 15.2565 12.4717 15.2565 13.4615C15.2565 14.4514 14.4515 15.2564 13.4617 15.2564ZM19.295 15.2564C18.3051 15.2564 17.5001 14.4514 17.5001 13.4615C17.5001 12.4717 18.3051 11.6667 19.295 11.6667C20.2849 11.6667 21.0899 12.4717 21.0899 13.4615C21.0899 14.4514 20.2849 15.2564 19.295 15.2564Z" fill="white"/></g><defs><filter id="filter0_d" x="0" y="0" width="26.9232" height="27.9231" filterUnits="userSpaceOnUse" color-interpolation-filters="sRGB"><feFlood flood-opacity="0" result="BackgroundImageFix"/><feColorMatrix in="SourceAlpha" type="matrix" values="0 0 0 0 0 0 0 0 0 0 0 0 0 0 0 0 0 0 127 0" result="hardAlpha"/><feOffset dy="1"/><feColorMatrix type="matrix" values="0 0 0 0 1 0 0 0 0 0.729412 0 0 0 0 0 0 0 0 1 0"/><feBlend mode="normal" in2="BackgroundImageFix" result="effect1_dropShadow"/><feBlend mode="normal" in="SourceGraphic" in2="effect1_dropShadow" result="shape"/></filter></defs></svg>