<svg width="20" height="21" viewBox="0 0 20 21" fill="none" xmlns="http://www.w3.org/2000/svg"><g clip-path="url(#clip0)"><path d="M8.33883 11.7933C6.4935 9.92699 6.07683 8.06069 5.98283 7.31296C5.95656 7.1062 6.02691 6.89886 6.17316 6.75199L7.6665 5.24236C7.88617 5.02033 7.92515 4.6743 7.7605 4.40798L5.38283 0.674029C5.20067 0.379132 4.82664 0.2727 4.51916 0.428268L0.702163 2.24636C0.453516 2.37019 0.307265 2.63737 0.335496 2.91622C0.535496 4.83781 1.36383 9.56155 5.95383 14.204C10.5438 18.8465 15.2138 19.684 17.1148 19.8862C17.3905 19.9148 17.6547 19.7669 17.7772 19.5154L19.5748 15.655C19.7281 15.3447 19.6235 14.9675 19.3332 14.7829L15.6412 12.3789C15.378 12.2122 15.0359 12.2513 14.8162 12.4733L13.3235 13.9836C13.1783 14.1315 12.9733 14.2026 12.7688 14.1761C12.0295 14.081 10.1842 13.6596 8.33883 11.7933Z" fill="#FFBA00"/><path d="M5.7193 14.4425C9.89296 18.6636 14.2016 19.915 17.0813 20.2217C17.1152 20.2254 17.1492 20.2272 17.1833 20.2271C17.5641 20.2248 17.911 20.0055 18.08 19.6604L19.8743 15.8071C20.1065 15.3425 19.9501 14.7754 19.5136 14.4994L15.8176 12.0931C15.4231 11.8414 14.9087 11.9007 14.5803 12.2357L13.0876 13.7453C13.015 13.8189 12.9127 13.8545 12.8106 13.8417C12.1303 13.7541 10.355 13.3563 8.5743 11.555C6.79363 9.75379 6.39963 7.95861 6.3133 7.27055C6.30021 7.16725 6.33545 7.06368 6.40863 6.9904L7.9013 5.48077C8.23305 5.14717 8.29073 4.6251 8.03996 4.22567L5.6663 0.495429C5.39604 0.0537962 4.83765 -0.106932 4.37796 0.124596L0.552963 1.94471C0.181729 2.13303 -0.0362185 2.53339 0.00496292 2.95136C0.308296 5.86374 1.54563 10.2214 5.7193 14.4425ZM0.844296 2.55119L4.6683 0.730739C4.71449 0.707096 4.76552 0.694741 4.8173 0.694667C4.93382 0.695179 5.04172 0.756828 5.1023 0.857497L7.47696 4.58774C7.5592 4.72086 7.53971 4.89377 7.42996 5.00476L5.9373 6.51405C5.71736 6.73456 5.61183 7.04628 5.65196 7.35685C5.7473 8.11369 6.17663 10.0848 8.10296 12.0327C10.0293 13.9806 11.978 14.4152 12.7266 14.5116C13.0337 14.5517 13.3417 14.445 13.56 14.223L15.0526 12.7134C15.1607 12.6024 15.3302 12.5817 15.4613 12.6635L19.1563 15.0692C19.3046 15.1629 19.3561 15.3565 19.2743 15.5128L17.4803 19.3661C17.4209 19.4926 17.2886 19.5671 17.151 19.5515C14.3786 19.2562 10.2266 18.0476 6.19063 13.9661C2.15463 9.88459 0.959963 5.68473 0.667963 2.8809C0.653341 2.74463 0.723525 2.6134 0.844296 2.55119Z" fill="#232323"/><path d="M10 5.39382C12.5762 5.39661 14.6639 7.50806 14.6667 10.1135C14.6667 10.6721 15.1144 11.1249 15.6667 11.1249C16.219 11.1249 16.6667 10.6721 16.6667 10.1135C16.6625 6.39155 13.6802 3.37537 10 3.37109C9.44772 3.37109 9 3.8239 9 4.38246C9 4.94102 9.44772 5.39382 10 5.39382ZM10 4.04534C13.3121 4.04924 15.9962 6.76377 16 10.1135C16 10.2997 15.8508 10.4506 15.6667 10.4506C15.4826 10.4506 15.3333 10.2997 15.3333 10.1135C15.3299 7.13599 12.9441 4.72311 10 4.71958C9.81591 4.71958 9.66667 4.56864 9.66667 4.38246C9.66667 4.19627 9.81591 4.04534 10 4.04534Z" fill="#232323"/><path d="M10 2.02273C14.4162 2.02793 17.9949 5.6473 18 10.1136C18 10.6722 18.4477 11.125 19 11.125C19.5523 11.125 20 10.6722 20 10.1136C19.9938 4.53065 15.5203 0.00631665 10 0C9.44772 0 9 0.452803 9 1.01136C9 1.56992 9.44772 2.02273 10 2.02273ZM10 0.674242C15.1522 0.680187 19.3275 4.90287 19.3333 10.1136C19.3333 10.2998 19.1841 10.4508 19 10.4508C18.8159 10.4508 18.6667 10.2998 18.6667 10.1136C18.6612 5.27508 14.7842 1.35406 10 1.34848C9.81591 1.34848 9.66667 1.19755 9.66667 1.01136C9.66667 0.825176 9.81591 0.674242 10 0.674242Z" fill="#232323"/></g><defs><clipPath id="clip0"><rect width="20" height="20.2273" fill="white"/></clipPath></defs></svg>