<svg width="20" height="21" viewBox="0 0 20 21" fill="none" xmlns="http://www.w3.org/2000/svg"><g clip-path="url(#clip0)"><path d="M19.338 3.62012C19.4963 3.77625 19.585 3.99069 19.5838 4.21429V16.0135C19.585 16.2371 19.4963 16.4515 19.338 16.6077L17.5005 14.7493L12.1172 9.30479L19.1672 3.79288L19.338 3.62012Z" fill="white"/><path d="M2.50032 14.7491L0.667008 16.6033L0.662828 16.6075C0.504547 16.4514 0.415837 16.2369 0.417009 16.0133V4.21417C0.415954 4.04599 0.465368 3.88141 0.558688 3.74219L0.833687 3.79276L7.88366 9.30466L2.50032 14.7491Z" fill="white"/><path d="M0.667266 16.6033L2.50058 14.7492L7.88388 9.30469L10.0005 10.9566L12.1172 9.30469L17.5005 14.7492L19.338 16.6075C19.1836 16.7676 18.9716 16.8573 18.7505 16.8561H1.25058C1.02949 16.8573 0.81746 16.7676 0.663086 16.6075L0.667266 16.6033Z" fill="#FFBA00"/><path d="M18.7502 3.37111C18.9713 3.36992 19.1833 3.45968 19.3377 3.61972L19.1669 3.79248L12.1169 9.30439L10.0002 10.9563L7.88356 9.30439L0.833593 3.79252L0.558594 3.74195C0.714062 3.50997 0.973162 3.37107 1.25027 3.37111H18.7502Z" fill="#FFBA00"/><path d="M19.6358 3.32562C19.4033 3.08373 19.0835 2.94802 18.75 2.94972H1.25004C0.835076 2.94937 0.446992 3.15729 0.21422 3.50471C0.0735169 3.71373 -0.00117028 3.96104 4.06485e-05 4.21392V16.0131C-0.00265465 16.3469 0.12879 16.6675 0.364219 16.9014C0.596679 17.1433 0.916521 17.279 1.25004 17.2773H18.75C19.4387 17.2734 19.9961 16.7097 20 16.0131V4.21396C20.0027 3.88017 19.8712 3.55958 19.6358 3.32562ZM10 10.4241L1.51461 3.79255H18.4854L10 10.4241ZM19.0391 16.3132C18.9631 16.3918 18.8587 16.4356 18.75 16.4345H1.25004C1.13765 16.4348 1.03015 16.3882 0.952967 16.3056C0.875701 16.2284 0.832576 16.123 0.833397 16.0131V4.32478L7.25544 9.34365L2.20546 14.451L2.79464 15.0469L7.91962 9.86367L9.74504 11.2905C9.89504 11.4076 10.1042 11.4076 10.2542 11.2905L12.0796 9.86367L17.2046 15.0469L17.7938 14.451L12.7438 9.34365L19.1667 4.32478V16.0131C19.1668 16.1266 19.1207 16.2352 19.0391 16.3132Z" fill="#232323"/></g><defs><clipPath id="clip0"><rect width="20" height="20.2273" fill="white"/></clipPath></defs></svg>