<svg width="30" height="30" viewBox="0 0 30 30" fill="none" xmlns="http://www.w3.org/2000/svg"><path d="M3.54543 25.9762C2.00381 25.9762 0.770508 24.7429 0.770508 23.2013V9.5425C0.770508 8.00088 2.00381 6.76758 3.54543 6.76758H22.7849C24.3265 6.76758 25.5598 8.00088 25.5598 9.5425V12.9341H18.6533C18.0675 12.9341 17.4817 13.0882 16.9884 13.3657C16.5259 13.6124 16.1559 13.9516 15.8476 14.3832C15.5701 14.784 15.3543 15.2465 15.2618 15.7398L15.2309 16.5415L15.3234 17.2198C15.4159 17.5898 15.6009 17.9598 15.8168 18.2989L16.4334 18.9772L16.4951 19.0081L16.8034 19.2547L16.8959 19.3164L17.0192 19.3781L17.2042 19.4706L17.3584 19.5322L17.4509 19.5631L17.6359 19.6247H17.6667L17.9134 19.6864H17.975L18.715 19.7481H25.5907V23.1396C25.5907 24.6813 24.3574 25.9146 22.8157 25.9146L3.54543 25.9762Z" fill="#FFBA00"/><path d="M25.8682 19.8101H27.1631V20.2725C27.194 20.8584 27.0398 21.4442 26.7315 21.9683L25.8682 23.325V19.8101Z" fill="#FFBA00"/><path d="M25.0976 20.2724H18.6536C16.2487 20.2724 14.7379 18.5766 14.7379 16.5417C14.6763 14.3526 16.372 12.5026 18.592 12.4101C18.6228 12.4101 18.6536 12.4101 18.6536 12.4101H25.0668V9.48102C25.0668 8.21689 24.0185 7.16858 22.7544 7.16858H3.54573C3.48407 7.16858 3.36074 7.16858 3.26824 7.16858C2.74409 7.23025 2.25077 7.47691 1.91161 7.8469C1.47996 8.27855 1.2333 8.86437 1.2333 9.48102V23.1398C1.2333 24.4039 2.2816 25.4522 3.54573 25.4522H22.7852C24.0493 25.4522 25.0976 24.4039 25.0976 23.1398C25.0976 23.2015 25.0976 20.2724 25.0976 20.2724ZM25.7143 19.0391H28.3967C28.4892 19.0391 28.5817 19.0083 28.6434 18.9466C28.705 18.8849 28.7359 18.7924 28.7359 18.6999V14.0751C28.7359 13.8592 28.5817 13.7051 28.3659 13.7051H18.6536C17.6362 13.7051 15.9712 14.445 15.9712 16.2642C15.9712 18.5766 17.6053 19.0391 18.6536 19.0391H25.7143ZM26.7009 20.2724H26.3309V21.7215L26.3618 21.6598C26.5776 21.2899 26.7009 20.889 26.7009 20.4574V20.2724ZM27.9342 12.4409H28.3967C29.2909 12.4409 30 13.1501 30 14.0442V18.6691C30 19.1008 29.815 19.5016 29.5375 19.8099C29.2292 20.1182 28.8284 20.2724 28.3967 20.2724H27.9651V20.4574C27.9651 21.1049 27.7801 21.7523 27.4409 22.3073C27.1634 22.7698 26.7934 23.1398 26.3309 23.4173C26.2076 25.2672 24.6351 26.7164 22.7852 26.7164H3.54573C1.57246 26.7164 0 25.1131 0 23.1706V9.54268C0 8.58688 0.36999 7.69274 1.0483 7.04525C1.2333 6.86026 1.41829 6.7061 1.63412 6.58277C1.78828 4.73282 3.32991 3.28369 5.17986 3.28369H24.4193C26.3926 3.28369 27.9651 4.88698 27.9959 6.82943L27.9342 12.4409ZM18.9311 15.3392C19.517 15.3392 19.9794 15.8017 19.9794 16.3875C19.9794 16.9733 19.517 17.4358 18.9311 17.4358C18.3453 17.4358 17.8828 16.9733 17.8828 16.3875C17.8828 15.8017 18.3453 15.3392 18.9311 15.3392ZM3.54573 5.96612H22.7852C24.7585 5.96612 26.3309 7.56941 26.3309 9.51185V12.4101H26.7009V6.79859C26.7009 5.53446 25.6526 4.48616 24.3885 4.48616H5.17986C4.22405 4.48616 3.36074 5.10281 3.02158 5.99695C3.11408 5.99695 3.20658 5.96612 3.29907 5.96612H3.54573Z" fill="#232323"/></svg>