<svg width="25" height="25" viewBox="0 0 25 25" fill="none" xmlns="http://www.w3.org/2000/svg"><path d="M5.84194 5.06919L15.8082 2.3488L15.2805 1.28199C14.9351 0.588556 14.0929 0.3022 13.3995 0.647512L4.47754 5.06919H5.84194Z" fill="#B8B8B8"/><path d="M18.9025 2.42725C18.779 2.42725 18.6554 2.44409 18.5319 2.47778L16.1905 3.11787L9.04004 5.06902H17.1563H20.6936L20.2556 3.46318C20.0872 2.83713 19.5201 2.42725 18.9025 2.42725Z" fill="#B8B8B8"/><path d="M22.1561 6.05176H21.836H21.4009H20.9657H17.6446H5.44076H3.84054H2.49298H2.24312H1.40651C0.962942 6.05176 0.567097 6.2567 0.308815 6.57955C0.190904 6.72834 0.101067 6.8996 0.0505334 7.08769C0.0196519 7.2056 0 7.32913 0 7.45546V7.62391V9.22413V23.0956C0 23.8704 0.62886 24.4993 1.40371 24.4993H22.1533C22.9282 24.4993 23.557 23.8704 23.557 23.0956V19.1792H15.2274C13.9107 19.1792 12.8411 18.1096 12.8411 16.7929V15.5071V15.072V14.6368V13.6711C12.8411 13.0254 13.0994 12.4386 13.5177 12.0091C13.8883 11.6273 14.3852 11.369 14.941 11.3044C15.0337 11.2932 15.1291 11.2876 15.2246 11.2876H22.3891H22.8243H23.2594H23.557V7.45546C23.5598 6.68062 22.9309 6.05176 22.1561 6.05176Z" fill="#B8B8B8"/><path d="M24.5429 12.6295C24.4026 12.5003 24.2369 12.4021 24.0516 12.3375C23.9084 12.2898 23.7569 12.2617 23.5968 12.2617H23.5603H23.5323H23.0971H21.5278H15.2279C14.4531 12.2617 13.8242 12.8906 13.8242 13.6654V14.3644V14.7996V15.2347V16.79C13.8242 17.5649 14.4531 18.1938 15.2279 18.1938H23.5603H23.5968C23.7569 18.1938 23.9085 18.1657 24.0516 18.118C24.2369 18.0562 24.4026 17.9551 24.5429 17.826C24.8237 17.5705 25.0006 17.1999 25.0006 16.7901V13.6654C25.0006 13.2555 24.8237 12.8849 24.5429 12.6295ZM18.1589 15.5071C18.1589 15.8945 17.8444 16.2089 17.457 16.2089H16.991C16.6036 16.2089 16.2891 15.8945 16.2891 15.5071V15.041C16.2891 14.8164 16.393 14.6171 16.5586 14.4907C16.6794 14.3981 16.8282 14.3392 16.991 14.3392H17.1089H17.457C17.8444 14.3392 18.1589 14.6536 18.1589 15.041V15.5071Z" fill="#B8B8B8"/></svg>